G04*
G04 #@! TF.GenerationSoftware,Altium Limited,Altium Designer,23.2.1 (34)*
G04*
G04 Layer_Color=65535*
%FSTAX24Y24*%
%MOIN*%
G70*
G04*
G04 #@! TF.SameCoordinates,BC3F6091-25B6-48BF-90D5-32B1282762A0*
G04*
G04*
G04 #@! TF.FilePolarity,Positive*
G04*
G01*
G75*
%ADD10C,0.0070*%
%ADD11C,0.0070*%
%ADD12C,0.0100*%
%ADD13C,0.0079*%
%ADD14C,0.0050*%
%ADD15R,0.1260X0.0200*%
G36*
X0168Y01805D02*
X01655Y0183D01*
Y01815D01*
X0163D01*
Y01795D01*
X01655D01*
Y0178D01*
X0168Y01805D01*
D02*
G37*
G36*
X05Y0175D02*
X04975Y01775D01*
Y0176D01*
X0495D01*
Y0174D01*
X04975D01*
Y01725D01*
X05Y0175D01*
D02*
G37*
G36*
X049975Y0195D02*
X049725Y01975D01*
Y0196D01*
X049475D01*
Y0194D01*
X049725D01*
Y01925D01*
X049975Y0195D01*
D02*
G37*
G36*
X050124Y028613D02*
X049874Y028863D01*
Y028713D01*
X049624D01*
Y028513D01*
X049874D01*
Y028363D01*
X050124Y028613D01*
D02*
G37*
G36*
X050099Y030613D02*
X049849Y030863D01*
Y030713D01*
X049599D01*
Y030513D01*
X049849D01*
Y030363D01*
X050099Y030613D01*
D02*
G37*
G36*
X050124Y039376D02*
X049874Y039626D01*
Y039476D01*
X049624D01*
Y039276D01*
X049874D01*
Y039126D01*
X050124Y039376D01*
D02*
G37*
G36*
X050099Y041376D02*
X049849Y041626D01*
Y041476D01*
X049599D01*
Y041276D01*
X049849D01*
Y041126D01*
X050099Y041376D01*
D02*
G37*
D10*
X049731Y041982D02*
G03*
X049677Y041926I-000457J000394D01*
G01*
X050888Y04034D02*
G03*
X050888Y04034I-000064J0D01*
G01*
X050858Y042376D02*
G03*
X050858Y042376I-000064J0D01*
G01*
X049736Y039987D02*
G03*
X049672Y039922I-000462J000389D01*
G01*
X049761Y03796D02*
G03*
X049696Y037894I-000461J00039D01*
G01*
X050868Y038356D02*
G03*
X050868Y038356I-000064J0D01*
G01*
X049731Y031219D02*
G03*
X049677Y031163I-000457J000394D01*
G01*
X050888Y029577D02*
G03*
X050888Y029577I-000064J0D01*
G01*
X050858Y031613D02*
G03*
X050858Y031613I-000064J0D01*
G01*
X049736Y029224D02*
G03*
X049672Y029159I-000462J000389D01*
G01*
X049761Y027197D02*
G03*
X049696Y027131I-000461J00039D01*
G01*
X050868Y027593D02*
G03*
X050868Y027593I-000064J0D01*
G01*
X016412Y018662D02*
G03*
X016401Y018649I-000462J000388D01*
G01*
X017544Y01703D02*
G03*
X017544Y01703I-000064J0D01*
G01*
X017534Y01905D02*
G03*
X017534Y01905I-000064J0D01*
G01*
X016413Y016663D02*
G03*
X016401Y016649I-000463J000387D01*
G01*
X045605Y041016D02*
G03*
X045605Y041016I-000178J0D01*
G01*
X045595Y039506D02*
G03*
X045595Y039506I-000178J0D01*
G01*
X043282Y040399D02*
G03*
X043282Y040399I-000178J0D01*
G01*
X041152Y039809D02*
G03*
X041162Y040969I-000575J000585D01*
G01*
X045605Y030266D02*
G03*
X045605Y030266I-000178J0D01*
G01*
X045595Y028756D02*
G03*
X045595Y028756I-000178J0D01*
G01*
X043282Y029649D02*
G03*
X043282Y029649I-000178J0D01*
G01*
X041152Y029059D02*
G03*
X041162Y030219I-000575J000585D01*
G01*
X049607Y020106D02*
G03*
X049553Y02005I-000457J000394D01*
G01*
X050764Y018464D02*
G03*
X050764Y018464I-000064J0D01*
G01*
X050734Y0205D02*
G03*
X050734Y0205I-000064J0D01*
G01*
X049612Y018111D02*
G03*
X049548Y018046I-000462J000389D01*
G01*
X049637Y016084D02*
G03*
X049572Y016018I-000461J00039D01*
G01*
X050744Y01648D02*
G03*
X050744Y01648I-000064J0D01*
G01*
X045505Y019166D02*
G03*
X045505Y019166I-000178J0D01*
G01*
X045495Y017656D02*
G03*
X045495Y017656I-000178J0D01*
G01*
X043182Y018549D02*
G03*
X043182Y018549I-000178J0D01*
G01*
X041052Y017959D02*
G03*
X041062Y019119I-000575J000585D01*
G01*
X03645Y03855D02*
X0371D01*
X03645D02*
Y04005D01*
X03771D01*
Y03855D02*
Y04005D01*
X0371Y03855D02*
X03771D01*
X0371Y04005D02*
Y04035D01*
Y03825D02*
Y03855D01*
X03663Y03896D02*
X0376D01*
X03689Y03855D02*
X0371D01*
X03726D01*
X048854Y042796D02*
X049704Y041946D01*
X050274Y037376D02*
Y043376D01*
X048274D02*
X049774D01*
X048274Y037376D02*
X050784D01*
Y037476D01*
X051094D01*
Y037376D02*
Y037476D01*
Y037376D02*
X051274D01*
Y043376D01*
X049774D02*
X051274D01*
X050824Y043436D02*
X051074D01*
X048464Y041376D02*
X049974D01*
X048859Y040791D02*
X049704Y039946D01*
X048274Y037376D02*
Y043376D01*
X048884Y038776D02*
X049724Y037926D01*
X048484Y039376D02*
X049994D01*
X048854Y032033D02*
X049704Y031183D01*
X050274Y026613D02*
Y032613D01*
X048274D02*
X049774D01*
X048274Y026613D02*
X050784D01*
Y026713D01*
X051094D01*
Y026613D02*
Y026713D01*
Y026613D02*
X051274D01*
Y032613D01*
X049774D02*
X051274D01*
X050824Y032673D02*
X051074D01*
X048464Y030613D02*
X049974D01*
X048859Y030028D02*
X049704Y029183D01*
X048274Y026613D02*
Y032613D01*
X048884Y028013D02*
X049724Y027163D01*
X048484Y028613D02*
X049994D01*
X03533Y03321D02*
Y03387D01*
X03504Y03326D02*
X03533Y03355D01*
X03504Y03384D02*
X03533Y03355D01*
X035879Y033157D02*
Y033948D01*
X03516Y03402D02*
X03533Y03419D01*
X03532Y03399D02*
X03549Y03416D01*
X01695Y01606D02*
Y02003D01*
X01495Y02005D02*
X01645D01*
X01495Y01605D02*
X01746D01*
Y0161D01*
X01777D01*
Y01605D02*
Y0161D01*
Y01605D02*
X01795D01*
Y02005D01*
X01645D02*
X01795D01*
X0175Y02011D02*
X01775D01*
X01516Y01805D02*
X01667D01*
X01495Y01605D02*
Y02005D01*
X044945Y040398D02*
X045335Y040788D01*
X045595Y039506D02*
X045865Y039236D01*
Y038576D02*
Y039236D01*
X045605Y041076D02*
X045865Y041336D01*
Y042096D01*
X040859Y040389D02*
X042902D01*
X043302Y040399D02*
X044945D01*
X041142Y038669D02*
Y039799D01*
X041152Y040979D02*
Y042119D01*
X039875Y043488D02*
X047509D01*
X039875Y037282D02*
X047509D01*
X039875D02*
Y043488D01*
X047509Y037282D02*
Y043488D01*
X03533Y04391D02*
Y04457D01*
X03504Y04396D02*
X03533Y04425D01*
X03504Y04454D02*
X03533Y04425D01*
X035879Y043857D02*
Y044648D01*
X03516Y04472D02*
X03533Y04489D01*
X03532Y04469D02*
X03549Y04486D01*
X03695Y02765D02*
X0376D01*
X03695D02*
Y02915D01*
X03821D01*
Y02765D02*
Y02915D01*
X0376Y02765D02*
X03821D01*
X0376Y02915D02*
Y02945D01*
Y02735D02*
Y02765D01*
X03713Y02806D02*
X0381D01*
X03739Y02765D02*
X0376D01*
X03776D01*
X044945Y029648D02*
X045335Y030038D01*
X045595Y028756D02*
X045865Y028486D01*
Y027826D02*
Y028486D01*
X045605Y030326D02*
X045865Y030586D01*
Y031346D01*
X040859Y029639D02*
X042902D01*
X043302Y029649D02*
X044945D01*
X041142Y027919D02*
Y029049D01*
X041152Y030229D02*
Y031369D01*
X039875Y032738D02*
X047509D01*
X039875Y026532D02*
X047509D01*
X039875D02*
Y032738D01*
X047509Y026532D02*
Y032738D01*
X03523Y02226D02*
Y02292D01*
X03494Y02231D02*
X03523Y0226D01*
X03494Y02289D02*
X03523Y0226D01*
X035779Y022207D02*
Y022998D01*
X03506Y02307D02*
X03523Y02324D01*
X03522Y02304D02*
X03539Y02321D01*
X04873Y02092D02*
X04958Y02007D01*
X05015Y0155D02*
Y0215D01*
X04815D02*
X04965D01*
X04815Y0155D02*
X05066D01*
Y0156D01*
X05097D01*
Y0155D02*
Y0156D01*
Y0155D02*
X05115D01*
Y0215D01*
X04965D02*
X05115D01*
X0507Y02156D02*
X05095D01*
X04834Y0195D02*
X04985D01*
X048735Y018915D02*
X04958Y01807D01*
X04815Y0155D02*
Y0215D01*
X04876Y0169D02*
X0496Y01605D01*
X04836Y0175D02*
X04987D01*
X03645Y01675D02*
X0371D01*
X03645D02*
Y01825D01*
X03771D01*
Y01675D02*
Y01825D01*
X0371Y01675D02*
X03771D01*
X0371Y01825D02*
Y01855D01*
Y01645D02*
Y01675D01*
X03663Y01716D02*
X0376D01*
X03689Y01675D02*
X0371D01*
X03726D01*
X044845Y018548D02*
X045235Y018938D01*
X045495Y017656D02*
X045765Y017386D01*
Y016726D02*
Y017386D01*
X045505Y019226D02*
X045765Y019486D01*
Y020246D01*
X040759Y018539D02*
X042802D01*
X043202Y018549D02*
X044845D01*
X041042Y016819D02*
Y017949D01*
X041052Y019129D02*
Y020269D01*
X039775Y021638D02*
X047409D01*
X039775Y015432D02*
X047409D01*
X039775D02*
Y021638D01*
X047409Y015432D02*
Y021638D01*
D11*
X035877Y033952D02*
G03*
X035876Y033153I-000679J-000398D01*
G01*
X035877Y044652D02*
G03*
X035876Y043853I-000679J-000398D01*
G01*
X035777Y023002D02*
G03*
X035776Y022203I-000679J-000398D01*
G01*
D12*
X025174Y017494D02*
G03*
X025926Y0175I000376J-000004D01*
G01*
X025926Y018496D02*
G03*
X025174Y01849I-000376J000004D01*
G01*
X02254Y0179D02*
G03*
X02254Y0179I-00099J0D01*
G01*
X029158Y04077D02*
X030142D01*
Y03837D02*
Y04077D01*
X029158Y03837D02*
X030142D01*
X029158D02*
Y04077D01*
X02965Y03784D02*
Y03836D01*
Y04079D02*
Y04131D01*
X02517Y0175D02*
Y0185D01*
X02593Y01751D02*
Y01847D01*
X02056Y0179D02*
X02253D01*
X02087D02*
X02103D01*
X02086D02*
X02103D01*
X02062Y01814D02*
X02086Y0179D01*
X02116D02*
X02117D01*
X0207Y01836D02*
X02116Y0179D01*
X02082Y01855D02*
X02147Y0179D01*
X0218D02*
X02184D01*
X02101Y01869D02*
X0218Y0179D01*
X02215D02*
X02216D01*
X02122Y01883D02*
X02215Y0179D01*
X02149Y01889D02*
X02248Y0179D01*
X02251Y01808D02*
Y01816D01*
X02183Y01884D02*
X02251Y01816D01*
X028908Y01892D02*
X029892D01*
Y01652D02*
Y01892D01*
X028908Y01652D02*
X029892D01*
X028908D02*
Y01892D01*
X0294Y01599D02*
Y01651D01*
Y01894D02*
Y01946D01*
X046045Y042713D02*
X046089Y042756D01*
X032832Y04077D02*
X033816D01*
Y03837D02*
Y04077D01*
X032832Y03837D02*
X033816D01*
X032832D02*
Y04077D01*
X033324Y03784D02*
Y03836D01*
Y04079D02*
Y04131D01*
X032982Y03002D02*
X033966D01*
Y02762D02*
Y03002D01*
X032982Y02762D02*
X033966D01*
X032982D02*
Y03002D01*
X033474Y02709D02*
Y02761D01*
Y03004D02*
Y03056D01*
X029158Y03002D02*
X030142D01*
Y02762D02*
Y03002D01*
X029158Y02762D02*
X030142D01*
X029158D02*
Y03002D01*
X02965Y02709D02*
Y02761D01*
Y03004D02*
Y03056D01*
X046045Y031963D02*
X046089Y032006D01*
X032557Y01892D02*
X033541D01*
Y01652D02*
Y01892D01*
X032557Y01652D02*
X033541D01*
X032557D02*
Y01892D01*
X033049Y01599D02*
Y01651D01*
Y01894D02*
Y01946D01*
X045946Y020863D02*
X045988Y020906D01*
X0192Y0454D02*
Y0458D01*
X0194Y046D01*
X0196Y0458D01*
Y0454D01*
Y0457D01*
X0192D01*
X0198Y0454D02*
X02D01*
X0199D01*
Y046D01*
X0198Y0459D01*
X0208Y01997D02*
X0207Y02007D01*
X0205D01*
X0204Y01997D01*
Y01957D01*
X0205Y01947D01*
X0207D01*
X0208Y01957D01*
X021Y01947D02*
X0212D01*
X0211D01*
Y02007D01*
X021Y01997D01*
X02562Y01995D02*
X02552Y02005D01*
X02532D01*
X02522Y01995D01*
Y01955D01*
X02532Y01945D01*
X02552D01*
X02562Y01955D01*
X02622Y01945D02*
X02582D01*
X02622Y01985D01*
Y01995D01*
X02612Y02005D01*
X02592D01*
X02582Y01995D01*
X03652Y04214D02*
Y04154D01*
X03682D01*
X03692Y04164D01*
Y04204D01*
X03682Y04214D01*
X03652D01*
X03712Y04154D02*
X03732D01*
X03722D01*
Y04214D01*
X03712Y04204D01*
X03702Y03124D02*
Y03064D01*
X03732D01*
X03742Y03074D01*
Y03114D01*
X03732Y03124D01*
X03702D01*
X03802Y03064D02*
X03762D01*
X03802Y03104D01*
Y03114D01*
X03792Y03124D01*
X03772D01*
X03762Y03114D01*
X03652Y02034D02*
Y01974D01*
X03682D01*
X03692Y01984D01*
Y02024D01*
X03682Y02034D01*
X03652D01*
X03712Y02024D02*
X03722Y02034D01*
X03742D01*
X03752Y02024D01*
Y02014D01*
X03742Y02004D01*
X03732D01*
X03742D01*
X03752Y01994D01*
Y01984D01*
X03742Y01974D01*
X03722D01*
X03712Y01984D01*
X0194Y0257D02*
Y0251D01*
Y0254D01*
X0198D01*
Y0257D01*
Y0251D01*
X0204Y0256D02*
X0203Y0257D01*
X0201D01*
X02Y0256D01*
Y0252D01*
X0201Y0251D01*
X0203D01*
X0204Y0252D01*
X0206Y0251D02*
X0208D01*
X0207D01*
Y0257D01*
X0206Y0256D01*
X01465Y02104D02*
Y02044D01*
Y02074D01*
X01505D01*
Y02104D01*
Y02044D01*
X01525Y02104D02*
Y02044D01*
X01555D01*
X01565Y02054D01*
Y02094D01*
X01555Y02104D01*
X01525D01*
X01585Y02044D02*
X01605D01*
X01595D01*
Y02104D01*
X01585Y02094D01*
X04834Y03361D02*
Y03301D01*
Y03331D01*
X04874D01*
Y03361D01*
Y03301D01*
X04894Y03361D02*
Y03301D01*
X04924D01*
X04934Y03311D01*
Y03351D01*
X04924Y03361D01*
X04894D01*
X04954Y03351D02*
X04964Y03361D01*
X04984D01*
X049939Y03351D01*
Y03341D01*
X04984Y03331D01*
X04974D01*
X04984D01*
X049939Y03321D01*
Y03311D01*
X04984Y03301D01*
X04964D01*
X04954Y03311D01*
X04822Y0225D02*
Y0219D01*
Y0222D01*
X04862D01*
Y0225D01*
Y0219D01*
X04882Y0225D02*
Y0219D01*
X04912D01*
X04922Y022D01*
Y0224D01*
X04912Y0225D01*
X04882D01*
X04972Y0219D02*
Y0225D01*
X04942Y0222D01*
X049819D01*
X03444Y04598D02*
Y04538D01*
X03484D01*
X03544Y04598D02*
X03504D01*
Y04538D01*
X03544D01*
X03504Y04568D02*
X03524D01*
X03564Y04598D02*
Y04538D01*
X03594D01*
X036039Y04548D01*
Y04588D01*
X03594Y04598D01*
X03564D01*
X036239Y04538D02*
X036439D01*
X036339D01*
Y04598D01*
X036239Y04588D01*
X03444Y03528D02*
Y03468D01*
X03484D01*
X03544Y03528D02*
X03504D01*
Y03468D01*
X03544D01*
X03504Y03498D02*
X03524D01*
X03564Y03528D02*
Y03468D01*
X03594D01*
X036039Y03478D01*
Y03518D01*
X03594Y03528D01*
X03564D01*
X036639Y03468D02*
X036239D01*
X036639Y03508D01*
Y03518D01*
X036539Y03528D01*
X036339D01*
X036239Y03518D01*
X03434Y02433D02*
Y02373D01*
X03474D01*
X03534Y02433D02*
X03494D01*
Y02373D01*
X03534D01*
X03494Y02403D02*
X03514D01*
X03554Y02433D02*
Y02373D01*
X03584D01*
X035939Y02383D01*
Y02423D01*
X03584Y02433D01*
X03554D01*
X036139Y02423D02*
X036239Y02433D01*
X036439D01*
X036539Y02423D01*
Y02413D01*
X036439Y02403D01*
X036339D01*
X036439D01*
X036539Y02393D01*
Y02383D01*
X036439Y02373D01*
X036239D01*
X036139Y02383D01*
X02886Y04539D02*
Y04579D01*
X02876Y04589D01*
X02856D01*
X02846Y04579D01*
Y04539D01*
X02856Y04529D01*
X02876D01*
X02866Y04549D02*
X02886Y04529D01*
X02876D02*
X02886Y04539D01*
X02906Y04529D02*
X02926D01*
X02916D01*
Y04589D01*
X02906Y04579D01*
X02886Y03469D02*
Y03509D01*
X02876Y03519D01*
X02856D01*
X02846Y03509D01*
Y03469D01*
X02856Y03459D01*
X02876D01*
X02866Y03479D02*
X02886Y03459D01*
X02876D02*
X02886Y03469D01*
X02946Y03459D02*
X02906D01*
X02946Y03499D01*
Y03509D01*
X02936Y03519D01*
X02916D01*
X02906Y03509D01*
X02871Y02374D02*
Y02414D01*
X02861Y02424D01*
X02841D01*
X02831Y02414D01*
Y02374D01*
X02841Y02364D01*
X02861D01*
X02851Y02384D02*
X02871Y02364D01*
X02861D02*
X02871Y02374D01*
X02891Y02414D02*
X02901Y02424D01*
X02921D01*
X02931Y02414D01*
Y02404D01*
X02921Y02394D01*
X02911D01*
X02921D01*
X02931Y02384D01*
Y02374D01*
X02921Y02364D01*
X02901D01*
X02891Y02374D01*
X03288Y04219D02*
Y04279D01*
X03318D01*
X03328Y04269D01*
Y04249D01*
X03318Y04239D01*
X03288D01*
X03308D02*
X03328Y04219D01*
X03348D02*
X03368D01*
X03358D01*
Y04279D01*
X03348Y04269D01*
X02921Y04219D02*
Y04279D01*
X02951D01*
X02961Y04269D01*
Y04249D01*
X02951Y04239D01*
X02921D01*
X02941D02*
X02961Y04219D01*
X03021D02*
X02981D01*
X03021Y04259D01*
Y04269D01*
X03011Y04279D01*
X02991D01*
X02981Y04269D01*
X03303Y03144D02*
Y03204D01*
X03333D01*
X03343Y03194D01*
Y03174D01*
X03333Y03164D01*
X03303D01*
X03323D02*
X03343Y03144D01*
X03363Y03194D02*
X03373Y03204D01*
X03393D01*
X03403Y03194D01*
Y03184D01*
X03393Y03174D01*
X03383D01*
X03393D01*
X03403Y03164D01*
Y03154D01*
X03393Y03144D01*
X03373D01*
X03363Y03154D01*
X02921Y03144D02*
Y03204D01*
X02951D01*
X02961Y03194D01*
Y03174D01*
X02951Y03164D01*
X02921D01*
X02941D02*
X02961Y03144D01*
X03011D02*
Y03204D01*
X02981Y03174D01*
X03021D01*
X032609Y020348D02*
Y020948D01*
X032909D01*
X033009Y020848D01*
Y020648D01*
X032909Y020548D01*
X032609D01*
X032809D02*
X033009Y020348D01*
X033608Y020948D02*
X033208D01*
Y020648D01*
X033408Y020748D01*
X033508D01*
X033608Y020648D01*
Y020448D01*
X033508Y020348D01*
X033308D01*
X033208Y020448D01*
X02896Y020348D02*
Y020948D01*
X02926D01*
X02936Y020848D01*
Y020648D01*
X02926Y020548D01*
X02896D01*
X02916D02*
X02936Y020348D01*
X02996Y020948D02*
X02976Y020848D01*
X02956Y020648D01*
Y020448D01*
X02966Y020348D01*
X02986D01*
X02996Y020448D01*
Y020548D01*
X02986Y020648D01*
X02956D01*
X03994Y03307D02*
Y03367D01*
X04024D01*
X04034Y03357D01*
Y03337D01*
X04024Y03327D01*
X03994D01*
X04014D02*
X04034Y03307D01*
X04054Y03367D02*
Y03307D01*
X04094D01*
X041539D02*
X04114D01*
X041539Y03347D01*
Y03357D01*
X04144Y03367D01*
X04124D01*
X04114Y03357D01*
X03984Y02197D02*
Y02257D01*
X04014D01*
X04024Y02247D01*
Y02227D01*
X04014Y02217D01*
X03984D01*
X04004D02*
X04024Y02197D01*
X04044Y02257D02*
Y02197D01*
X04084D01*
X04104Y02247D02*
X04114Y02257D01*
X04134D01*
X041439Y02247D01*
Y02237D01*
X04134Y02227D01*
X04124D01*
X04134D01*
X041439Y02217D01*
Y02207D01*
X04134Y02197D01*
X04114D01*
X04104Y02207D01*
X04834Y04437D02*
Y04377D01*
Y04407D01*
X04874D01*
Y04437D01*
Y04377D01*
X04894Y04437D02*
Y04377D01*
X04924D01*
X04934Y04387D01*
Y04427D01*
X04924Y04437D01*
X04894D01*
X049939Y04377D02*
X04954D01*
X049939Y04417D01*
Y04427D01*
X04984Y04437D01*
X04964D01*
X04954Y04427D01*
X03994Y04382D02*
Y04442D01*
X04024D01*
X04034Y04432D01*
Y04412D01*
X04024Y04402D01*
X03994D01*
X04014D02*
X04034Y04382D01*
X04054Y04442D02*
Y04382D01*
X04094D01*
X04114D02*
X04134D01*
X04124D01*
Y04442D01*
X04114Y04432D01*
X01556Y03372D02*
X01536D01*
X01546D01*
Y03322D01*
X01536Y03312D01*
X01526D01*
X01516Y03322D01*
X01576Y03312D02*
Y03372D01*
X01606D01*
X01616Y03362D01*
Y03342D01*
X01606Y03332D01*
X01576D01*
X01636Y03312D02*
X01656D01*
X01646D01*
Y03372D01*
X01636Y03362D01*
X01556Y04599D02*
X01536D01*
X01546D01*
Y04549D01*
X01536Y04539D01*
X01526D01*
X01516Y04549D01*
X01576Y04539D02*
Y04599D01*
X01606D01*
X01616Y04589D01*
Y04569D01*
X01606Y04559D01*
X01576D01*
X016759Y04539D02*
X01636D01*
X016759Y04579D01*
Y04589D01*
X01666Y04599D01*
X01646D01*
X01636Y04589D01*
X01556Y03985D02*
X01536D01*
X01546D01*
Y03935D01*
X01536Y03925D01*
X01526D01*
X01516Y03935D01*
X01576Y03925D02*
Y03985D01*
X01606D01*
X01616Y03975D01*
Y03955D01*
X01606Y03945D01*
X01576D01*
X01636Y03975D02*
X01646Y03985D01*
X01666D01*
X016759Y03975D01*
Y03965D01*
X01666Y03955D01*
X01656D01*
X01666D01*
X016759Y03945D01*
Y03935D01*
X01666Y03925D01*
X01646D01*
X01636Y03935D01*
X01556Y02759D02*
X01536D01*
X01546D01*
Y02709D01*
X01536Y02699D01*
X01526D01*
X01516Y02709D01*
X01576Y02699D02*
Y02759D01*
X01606D01*
X01616Y02749D01*
Y02729D01*
X01606Y02719D01*
X01576D01*
X01666Y02699D02*
Y02759D01*
X01636Y02729D01*
X016759D01*
D13*
X028775Y0233D02*
G03*
X030334Y0233I00078J-000591D01*
G01*
X028925Y034246D02*
G03*
X030484Y034246I00078J-000591D01*
G01*
X028925Y04495D02*
G03*
X030484Y04495I00078J-000591D01*
G01*
X0151Y02555D02*
X0161D01*
X0151Y026648D02*
X0161D01*
Y022452D02*
Y026648D01*
X0151Y022452D02*
Y026648D01*
Y022452D02*
X0161D01*
X0151Y04395D02*
X0161D01*
X0151Y045048D02*
X0161D01*
Y040851D02*
Y045048D01*
X0151Y040851D02*
Y045048D01*
Y040851D02*
X0161D01*
X019337Y023973D02*
X025744D01*
X019337Y02265D02*
X025744D01*
Y023973D01*
X019337Y02265D02*
Y023973D01*
X0151Y031683D02*
X0161D01*
X0151Y032782D02*
X0161D01*
Y028585D02*
Y032782D01*
X0151Y028585D02*
Y032782D01*
Y028585D02*
X0161D01*
X0151Y037817D02*
X0161D01*
X0151Y038915D02*
X0161D01*
Y034718D02*
Y038915D01*
X0151Y034718D02*
Y038915D01*
Y034718D02*
X0161D01*
X028775Y0233D02*
X030334D01*
X028925Y034246D02*
X030484D01*
X028925Y04495D02*
X030484D01*
D14*
X020967Y04798D02*
Y04718D01*
X021005Y04798D02*
Y04718D01*
X020738Y04798D02*
X0207Y047751D01*
Y04798D01*
X021271D01*
Y047751D01*
X021233Y04798D01*
X020852Y04718D02*
X021119D01*
X0215Y04798D02*
Y04718D01*
X021538Y04798D02*
Y04718D01*
X021386Y04798D02*
X021843D01*
X021957Y047942D01*
X021995Y047903D01*
X022033Y047827D01*
Y047751D01*
X021995Y047675D01*
X021957Y047637D01*
X021843Y047599D01*
X021538D01*
X021843Y04798D02*
X021919Y047942D01*
X021957Y047903D01*
X021995Y047827D01*
Y047751D01*
X021957Y047675D01*
X021919Y047637D01*
X021843Y047599D01*
X021386Y04718D02*
X021652D01*
X021728Y047599D02*
X021805Y047561D01*
X021843Y047523D01*
X021957Y047256D01*
X021995Y047218D01*
X022033D01*
X022071Y047256D01*
X021805Y047561D02*
X021843Y047484D01*
X021919Y047218D01*
X021957Y04718D01*
X022033D01*
X022071Y047256D01*
Y047294D01*
X022288Y04798D02*
Y04718D01*
X022326Y04798D02*
Y04718D01*
X022174Y04798D02*
X022441D01*
X022174Y04718D02*
X022441D01*
X0227Y04798D02*
Y04718D01*
X022738Y04798D02*
X023195Y047256D01*
X022738Y047903D02*
X023195Y04718D01*
Y04798D02*
Y04718D01*
X022585Y04798D02*
X022738D01*
X02308D02*
X023309D01*
X022585Y04718D02*
X022814D01*
X023522Y04798D02*
Y04718D01*
X02356Y04798D02*
Y04718D01*
X024017Y04798D02*
Y04718D01*
X024055Y04798D02*
Y04718D01*
X023408Y04798D02*
X023675D01*
X023903D02*
X02417D01*
X02356Y047599D02*
X024017D01*
X023408Y04718D02*
X023675D01*
X023903D02*
X02417D01*
X025099Y04798D02*
Y04718D01*
X025137Y04798D02*
Y04718D01*
X024985Y04798D02*
X025366D01*
X02548Y047942D01*
X025556Y047865D01*
X025594Y047789D01*
X025632Y047675D01*
Y047484D01*
X025594Y04737D01*
X025556Y047294D01*
X02548Y047218D01*
X025366Y04718D01*
X024985D01*
X025366Y04798D02*
X025442Y047942D01*
X025518Y047865D01*
X025556Y047789D01*
X025594Y047675D01*
Y047484D01*
X025556Y04737D01*
X025518Y047294D01*
X025442Y047218D01*
X025366Y04718D01*
X025853Y04798D02*
Y04718D01*
X025891Y04798D02*
Y04718D01*
X025739Y04798D02*
X026006D01*
X025739Y04718D02*
X026006D01*
X026265Y04798D02*
Y04718D01*
X026303Y04798D02*
X02676Y047256D01*
X026303Y047903D02*
X02676Y04718D01*
Y04798D02*
Y04718D01*
X02615Y04798D02*
X026303D01*
X026645D02*
X026874D01*
X02615Y04718D02*
X026379D01*
X027087Y04798D02*
Y04718D01*
X027125Y04798D02*
Y04718D01*
X027582Y04798D02*
Y04718D01*
X02762Y04798D02*
Y04718D01*
X026973Y04798D02*
X02724D01*
X027468D02*
X027735D01*
X027125Y047599D02*
X027582D01*
X026973Y04718D02*
X02724D01*
X027468D02*
X027735D01*
X028664Y04798D02*
Y04718D01*
X028702Y04798D02*
Y04718D01*
X02855Y04798D02*
X029007D01*
X029121Y047942D01*
X029159Y047903D01*
X029197Y047827D01*
Y047713D01*
X029159Y047637D01*
X029121Y047599D01*
X029007Y047561D01*
X028702D01*
X029007Y04798D02*
X029083Y047942D01*
X029121Y047903D01*
X029159Y047827D01*
Y047713D01*
X029121Y047637D01*
X029083Y047599D01*
X029007Y047561D01*
X02855Y04718D02*
X028816D01*
X029418Y04798D02*
Y04718D01*
X029456Y04798D02*
Y04718D01*
X029913Y04798D02*
Y04718D01*
X029951Y04798D02*
Y04718D01*
X029304Y04798D02*
X02957D01*
X029799D02*
X030066D01*
X029456Y047599D02*
X029913D01*
X029304Y04718D02*
X02957D01*
X029799D02*
X030066D01*
X030275Y04798D02*
Y04718D01*
X030313Y04798D02*
Y04718D01*
X030161Y04798D02*
X030427D01*
X030161Y04718D02*
X030427D01*
X032732Y047523D02*
X033417D01*
X033558Y047827D02*
X033596Y047789D01*
X033558Y047751D01*
X03352Y047789D01*
Y047827D01*
X033558Y047903D01*
X033596Y047942D01*
X033711Y04798D01*
X033863D01*
X033977Y047942D01*
X034015Y047903D01*
X034053Y047827D01*
Y047751D01*
X034015Y047675D01*
X033901Y047599D01*
X033711Y047523D01*
X033634Y047484D01*
X033558Y047408D01*
X03352Y047294D01*
Y04718D01*
X033863Y04798D02*
X033939Y047942D01*
X033977Y047903D01*
X034015Y047827D01*
Y047751D01*
X033977Y047675D01*
X033863Y047599D01*
X033711Y047523D01*
X03352Y047256D02*
X033558Y047294D01*
X033634D01*
X033825Y047218D01*
X033939D01*
X034015Y047256D01*
X034053Y047294D01*
Y04737D01*
X033634Y047294D02*
X033825Y04718D01*
X033977D01*
X034015Y047218D01*
X034053Y047294D01*
X0344Y04798D02*
X034286Y047942D01*
X034209Y047827D01*
X034171Y047637D01*
Y047523D01*
X034209Y047332D01*
X034286Y047218D01*
X0344Y04718D01*
X034476D01*
X03459Y047218D01*
X034667Y047332D01*
X034705Y047523D01*
Y047637D01*
X034667Y047827D01*
X03459Y047942D01*
X034476Y04798D01*
X0344D01*
X034324Y047942D01*
X034286Y047903D01*
X034248Y047827D01*
X034209Y047637D01*
Y047523D01*
X034248Y047332D01*
X034286Y047256D01*
X034324Y047218D01*
X0344Y04718D01*
X034476D02*
X034552Y047218D01*
X03459Y047256D01*
X034628Y047332D01*
X034667Y047523D01*
Y047637D01*
X034628Y047827D01*
X03459Y047903D01*
X034552Y047942D01*
X034476Y04798D01*
X034823Y047827D02*
X034899Y047865D01*
X035013Y04798D01*
Y04718D01*
X034975Y047942D02*
Y04718D01*
X034823D02*
X035165D01*
X035303Y047827D02*
X035379Y047865D01*
X035493Y04798D01*
Y04718D01*
X035455Y047942D02*
Y04718D01*
X035303D02*
X035645D01*
X036278Y047713D02*
X03624Y047599D01*
X036163Y047523D01*
X036049Y047484D01*
X036011D01*
X035897Y047523D01*
X035821Y047599D01*
X035782Y047713D01*
Y047751D01*
X035821Y047865D01*
X035897Y047942D01*
X036011Y04798D01*
X036087D01*
X036201Y047942D01*
X036278Y047865D01*
X036316Y047751D01*
Y047523D01*
X036278Y04737D01*
X03624Y047294D01*
X036163Y047218D01*
X036049Y04718D01*
X035935D01*
X035859Y047218D01*
X035821Y047294D01*
Y047332D01*
X035859Y04737D01*
X035897Y047332D01*
X035859Y047294D01*
X036011Y047484D02*
X035935Y047523D01*
X035859Y047599D01*
X035821Y047713D01*
Y047751D01*
X035859Y047865D01*
X035935Y047942D01*
X036011Y04798D01*
X036087D02*
X036163Y047942D01*
X03624Y047865D01*
X036278Y047751D01*
Y047523D01*
X03624Y04737D01*
X036201Y047294D01*
X036125Y047218D01*
X036049Y04718D01*
X036472Y047827D02*
X03651Y047789D01*
X036472Y047751D01*
X036434Y047789D01*
Y047827D01*
X036472Y047903D01*
X03651Y047942D01*
X036624Y04798D01*
X036777D01*
X036891Y047942D01*
X036929Y047903D01*
X036967Y047827D01*
Y047751D01*
X036929Y047675D01*
X036815Y047599D01*
X036624Y047523D01*
X036548Y047484D01*
X036472Y047408D01*
X036434Y047294D01*
Y04718D01*
X036777Y04798D02*
X036853Y047942D01*
X036891Y047903D01*
X036929Y047827D01*
Y047751D01*
X036891Y047675D01*
X036777Y047599D01*
X036624Y047523D01*
X036434Y047256D02*
X036472Y047294D01*
X036548D01*
X036738Y047218D01*
X036853D01*
X036929Y047256D01*
X036967Y047294D01*
Y04737D01*
X036548Y047294D02*
X036738Y04718D01*
X036891D01*
X036929Y047218D01*
X036967Y047294D01*
X037542Y047865D02*
X037504Y047827D01*
X037542Y047789D01*
X03758Y047827D01*
Y047865D01*
X037542Y047942D01*
X037466Y04798D01*
X037352D01*
X037237Y047942D01*
X037161Y047865D01*
X037123Y047789D01*
X037085Y047637D01*
Y047408D01*
X037123Y047294D01*
X037199Y047218D01*
X037314Y04718D01*
X03739D01*
X037504Y047218D01*
X03758Y047294D01*
X037618Y047408D01*
Y047446D01*
X03758Y047561D01*
X037504Y047637D01*
X03739Y047675D01*
X037352D01*
X037237Y047637D01*
X037161Y047561D01*
X037123Y047446D01*
X037352Y04798D02*
X037276Y047942D01*
X037199Y047865D01*
X037161Y047789D01*
X037123Y047637D01*
Y047408D01*
X037161Y047294D01*
X037237Y047218D01*
X037314Y04718D01*
X03739D02*
X037466Y047218D01*
X037542Y047294D01*
X03758Y047408D01*
Y047446D01*
X037542Y047561D01*
X037466Y047637D01*
X03739Y047675D01*
X038193Y047865D02*
X038155Y047827D01*
X038193Y047789D01*
X038231Y047827D01*
Y047865D01*
X038193Y047942D01*
X038117Y04798D01*
X038003D01*
X037889Y047942D01*
X037813Y047865D01*
X037774Y047789D01*
X037736Y047637D01*
Y047408D01*
X037774Y047294D01*
X037851Y047218D01*
X037965Y04718D01*
X038041D01*
X038155Y047218D01*
X038231Y047294D01*
X03827Y047408D01*
Y047446D01*
X038231Y047561D01*
X038155Y047637D01*
X038041Y047675D01*
X038003D01*
X037889Y047637D01*
X037813Y047561D01*
X037774Y047446D01*
X038003Y04798D02*
X037927Y047942D01*
X037851Y047865D01*
X037813Y047789D01*
X037774Y047637D01*
Y047408D01*
X037813Y047294D01*
X037889Y047218D01*
X037965Y04718D01*
X038041D02*
X038117Y047218D01*
X038193Y047294D01*
X038231Y047408D01*
Y047446D01*
X038193Y047561D01*
X038117Y047637D01*
X038041Y047675D01*
X020814Y0469D02*
Y0461D01*
X020852Y0469D02*
X021309Y046176D01*
X020852Y046824D02*
X021309Y0461D01*
Y0469D02*
Y0461D01*
X0207Y0469D02*
X020852D01*
X021195D02*
X021424D01*
X0207Y0461D02*
X020929D01*
X022056Y046786D02*
X022094Y046671D01*
Y0469D01*
X022056Y046786D01*
X02198Y046862D01*
X021865Y0469D01*
X021789D01*
X021675Y046862D01*
X021599Y046786D01*
X021561Y046709D01*
X021523Y046595D01*
Y046405D01*
X021561Y04629D01*
X021599Y046214D01*
X021675Y046138D01*
X021789Y0461D01*
X021865D01*
X02198Y046138D01*
X022056Y046214D01*
X021789Y0469D02*
X021713Y046862D01*
X021637Y046786D01*
X021599Y046709D01*
X021561Y046595D01*
Y046405D01*
X021599Y04629D01*
X021637Y046214D01*
X021713Y046138D01*
X021789Y0461D01*
X022056Y046405D02*
Y0461D01*
X022094Y046405D02*
Y0461D01*
X021942Y046405D02*
X022208D01*
X022425Y0469D02*
Y046329D01*
X022463Y046214D01*
X02254Y046138D01*
X022654Y0461D01*
X02273D01*
X022844Y046138D01*
X02292Y046214D01*
X022959Y046329D01*
Y0469D01*
X022463D02*
Y046329D01*
X022502Y046214D01*
X022578Y046138D01*
X022654Y0461D01*
X022311Y0469D02*
X022578D01*
X022844D02*
X023073D01*
X023244D02*
X023511Y046481D01*
Y0461D01*
X023282Y0469D02*
X023549Y046481D01*
Y0461D01*
X023816Y0469D02*
X023549Y046481D01*
X023168Y0469D02*
X023397D01*
X023663D02*
X023892D01*
X023397Y0461D02*
X023663D01*
X024105Y0469D02*
Y0461D01*
X024143Y0469D02*
Y0461D01*
X024372Y046671D02*
Y046367D01*
X023991Y0469D02*
X0246D01*
Y046671D01*
X024562Y0469D01*
X024143Y046519D02*
X024372D01*
X023991Y0461D02*
X0246D01*
Y046329D01*
X024562Y0461D01*
X024825Y0469D02*
Y0461D01*
X024863Y0469D02*
X02532Y046176D01*
X024863Y046824D02*
X02532Y0461D01*
Y0469D02*
Y0461D01*
X024711Y0469D02*
X024863D01*
X025206D02*
X025434D01*
X024711Y0461D02*
X024939D01*
X02652Y0469D02*
Y0461D01*
X026558Y0469D02*
Y0461D01*
X026291Y0469D02*
X026253Y046671D01*
Y0469D01*
X026824D01*
Y046671D01*
X026786Y0469D01*
X026405Y0461D02*
X026672D01*
X027281Y0469D02*
X027015Y0461D01*
X027281Y0469D02*
X027548Y0461D01*
X027281Y046786D02*
X02751Y0461D01*
X027091Y046329D02*
X027434D01*
X026939Y0461D02*
X027167D01*
X027396D02*
X027624D01*
X027994Y0469D02*
Y0461D01*
X028032Y0469D02*
Y0461D01*
X027765Y0469D02*
X027727Y046671D01*
Y0469D01*
X028298D01*
Y046671D01*
X02826Y0469D01*
X027879Y0461D02*
X028146D01*
X029247Y0469D02*
Y0461D01*
X029285Y0469D02*
Y0461D01*
X029132Y0469D02*
X02959D01*
X029704Y046862D01*
X029742Y046824D01*
X02978Y046747D01*
Y046671D01*
X029742Y046595D01*
X029704Y046557D01*
X02959Y046519D01*
Y0469D02*
X029666Y046862D01*
X029704Y046824D01*
X029742Y046747D01*
Y046671D01*
X029704Y046595D01*
X029666Y046557D01*
X02959Y046519D01*
X029285D02*
X02959D01*
X029704Y046481D01*
X029742Y046443D01*
X02978Y046367D01*
Y046252D01*
X029742Y046176D01*
X029704Y046138D01*
X02959Y0461D01*
X029132D01*
X02959Y046519D02*
X029666Y046481D01*
X029704Y046443D01*
X029742Y046367D01*
Y046252D01*
X029704Y046176D01*
X029666Y046138D01*
X02959Y0461D01*
X030001Y0469D02*
Y0461D01*
X030039Y0469D02*
Y0461D01*
X029887Y0469D02*
X030153D01*
X029887Y0461D02*
X030153D01*
X030412Y0469D02*
Y0461D01*
X03045Y0469D02*
X030907Y046176D01*
X03045Y046824D02*
X030907Y0461D01*
Y0469D02*
Y0461D01*
X030298Y0469D02*
X03045D01*
X030793D02*
X031022D01*
X030298Y0461D02*
X030526D01*
X031235Y0469D02*
Y0461D01*
X031273Y0469D02*
Y0461D01*
X03173Y0469D02*
Y0461D01*
X031768Y0469D02*
Y0461D01*
X031121Y0469D02*
X031387D01*
X031616D02*
X031882D01*
X031273Y046519D02*
X03173D01*
X031121Y0461D02*
X031387D01*
X031616D02*
X031882D01*
X032697Y046443D02*
X033383D01*
X033524Y046747D02*
X033562Y046709D01*
X033524Y046671D01*
X033486Y046709D01*
Y046747D01*
X033524Y046824D01*
X033562Y046862D01*
X033676Y0469D01*
X033829D01*
X033943Y046862D01*
X033981Y046824D01*
X034019Y046747D01*
Y046671D01*
X033981Y046595D01*
X033867Y046519D01*
X033676Y046443D01*
X0336Y046405D01*
X033524Y046329D01*
X033486Y046214D01*
Y0461D01*
X033829Y0469D02*
X033905Y046862D01*
X033943Y046824D01*
X033981Y046747D01*
Y046671D01*
X033943Y046595D01*
X033829Y046519D01*
X033676Y046443D01*
X033486Y046176D02*
X033524Y046214D01*
X0336D01*
X033791Y046138D01*
X033905D01*
X033981Y046176D01*
X034019Y046214D01*
Y04629D01*
X0336Y046214D02*
X033791Y0461D01*
X033943D01*
X033981Y046138D01*
X034019Y046214D01*
X034366Y0469D02*
X034251Y046862D01*
X034175Y046747D01*
X034137Y046557D01*
Y046443D01*
X034175Y046252D01*
X034251Y046138D01*
X034366Y0461D01*
X034442D01*
X034556Y046138D01*
X034632Y046252D01*
X03467Y046443D01*
Y046557D01*
X034632Y046747D01*
X034556Y046862D01*
X034442Y0469D01*
X034366D01*
X034289Y046862D01*
X034251Y046824D01*
X034213Y046747D01*
X034175Y046557D01*
Y046443D01*
X034213Y046252D01*
X034251Y046176D01*
X034289Y046138D01*
X034366Y0461D01*
X034442D02*
X034518Y046138D01*
X034556Y046176D01*
X034594Y046252D01*
X034632Y046443D01*
Y046557D01*
X034594Y046747D01*
X034556Y046824D01*
X034518Y046862D01*
X034442Y0469D01*
X034788Y046747D02*
X034865Y046786D01*
X034979Y0469D01*
Y0461D01*
X034941Y046862D02*
Y0461D01*
X034788D02*
X035131D01*
X035268Y046747D02*
X035344Y046786D01*
X035459Y0469D01*
Y0461D01*
X035421Y046862D02*
Y0461D01*
X035268D02*
X035611D01*
X036243Y046633D02*
X036205Y046519D01*
X036129Y046443D01*
X036015Y046405D01*
X035977D01*
X035862Y046443D01*
X035786Y046519D01*
X035748Y046633D01*
Y046671D01*
X035786Y046786D01*
X035862Y046862D01*
X035977Y0469D01*
X036053D01*
X036167Y046862D01*
X036243Y046786D01*
X036281Y046671D01*
Y046443D01*
X036243Y04629D01*
X036205Y046214D01*
X036129Y046138D01*
X036015Y0461D01*
X035901D01*
X035824Y046138D01*
X035786Y046214D01*
Y046252D01*
X035824Y04629D01*
X035862Y046252D01*
X035824Y046214D01*
X035977Y046405D02*
X035901Y046443D01*
X035824Y046519D01*
X035786Y046633D01*
Y046671D01*
X035824Y046786D01*
X035901Y046862D01*
X035977Y0469D01*
X036053D02*
X036129Y046862D01*
X036205Y046786D01*
X036243Y046671D01*
Y046443D01*
X036205Y04629D01*
X036167Y046214D01*
X036091Y046138D01*
X036015Y0461D01*
X036438Y046747D02*
X036476Y046709D01*
X036438Y046671D01*
X036399Y046709D01*
Y046747D01*
X036438Y046824D01*
X036476Y046862D01*
X03659Y0469D01*
X036742D01*
X036857Y046862D01*
X036895Y046824D01*
X036933Y046747D01*
Y046671D01*
X036895Y046595D01*
X03678Y046519D01*
X03659Y046443D01*
X036514Y046405D01*
X036438Y046329D01*
X036399Y046214D01*
Y0461D01*
X036742Y0469D02*
X036818Y046862D01*
X036857Y046824D01*
X036895Y046747D01*
Y046671D01*
X036857Y046595D01*
X036742Y046519D01*
X03659Y046443D01*
X036399Y046176D02*
X036438Y046214D01*
X036514D01*
X036704Y046138D01*
X036818D01*
X036895Y046176D01*
X036933Y046214D01*
Y04629D01*
X036514Y046214D02*
X036704Y0461D01*
X036857D01*
X036895Y046138D01*
X036933Y046214D01*
X037279Y0469D02*
X037165Y046862D01*
X037089Y046747D01*
X037051Y046557D01*
Y046443D01*
X037089Y046252D01*
X037165Y046138D01*
X037279Y0461D01*
X037355D01*
X03747Y046138D01*
X037546Y046252D01*
X037584Y046443D01*
Y046557D01*
X037546Y046747D01*
X03747Y046862D01*
X037355Y0469D01*
X037279D01*
X037203Y046862D01*
X037165Y046824D01*
X037127Y046747D01*
X037089Y046557D01*
Y046443D01*
X037127Y046252D01*
X037165Y046176D01*
X037203Y046138D01*
X037279Y0461D01*
X037355D02*
X037432Y046138D01*
X03747Y046176D01*
X037508Y046252D01*
X037546Y046443D01*
Y046557D01*
X037508Y046747D01*
X03747Y046824D01*
X037432Y046862D01*
X037355Y0469D01*
X037702Y046747D02*
X037778Y046786D01*
X037893Y0469D01*
Y0461D01*
X037854Y046862D02*
Y0461D01*
X037702D02*
X038045D01*
D15*
X03708Y03865D02*
D03*
X03758Y02775D02*
D03*
X03708Y01685D02*
D03*
M02*
