G04*
G04 #@! TF.GenerationSoftware,Altium Limited,Altium Designer,23.2.1 (34)*
G04*
G04 Layer_Color=16711935*
%FSTAX24Y24*%
%MOIN*%
G70*
G04*
G04 #@! TF.SameCoordinates,BC3F6091-25B6-48BF-90D5-32B1282762A0*
G04*
G04*
G04 #@! TF.FilePolarity,Negative*
G04*
G01*
G75*
%ADD16C,0.0880*%
%ADD17R,0.0880X0.0880*%
%ADD18C,0.1180*%
%ADD19C,0.0631*%
%ADD20O,0.0730X0.1080*%
%ADD21R,0.0730X0.1080*%
%ADD22C,0.0671*%
%ADD23R,0.0671X0.0592*%
%ADD24O,0.0671X0.0592*%
%ADD25C,0.0678*%
%ADD26R,0.0678X0.0678*%
%ADD27C,0.1280*%
%ADD28R,0.0671X0.0671*%
%ADD29C,0.0680*%
%ADD30R,0.0680X0.0680*%
%ADD31O,0.0671X0.0867*%
%ADD32O,0.0671X0.0867*%
D16*
X0371Y0408D02*
D03*
X0376Y0299D02*
D03*
X0371Y019D02*
D03*
D17*
Y0378D02*
D03*
X0376Y0269D02*
D03*
X0371Y016D02*
D03*
D18*
X049274Y040376D02*
D03*
Y042376D02*
D03*
X0493Y03835D02*
D03*
X049274Y029613D02*
D03*
Y031613D02*
D03*
X0493Y027587D02*
D03*
X01595Y01705D02*
D03*
Y01905D02*
D03*
X04915Y0185D02*
D03*
Y0205D02*
D03*
X049176Y016474D02*
D03*
D19*
X02965Y041578D02*
D03*
Y037562D02*
D03*
X0294Y019728D02*
D03*
Y015712D02*
D03*
X033324Y041578D02*
D03*
Y037562D02*
D03*
X033474Y030828D02*
D03*
Y026812D02*
D03*
X02965Y030828D02*
D03*
Y026812D02*
D03*
X033049Y019728D02*
D03*
Y015712D02*
D03*
D20*
X0357Y03355D02*
D03*
Y04425D02*
D03*
X0356Y0226D02*
D03*
D21*
X0347Y03355D02*
D03*
Y04425D02*
D03*
X0346Y0226D02*
D03*
D22*
X02555Y0175D02*
D03*
Y0185D02*
D03*
X02005Y0234D02*
D03*
X02105D02*
D03*
X02205D02*
D03*
X02305D02*
D03*
X02405D02*
D03*
D23*
X02155Y0174D02*
D03*
D24*
Y0184D02*
D03*
D25*
X0156Y02305D02*
D03*
Y02405D02*
D03*
Y02505D02*
D03*
Y04145D02*
D03*
Y04245D02*
D03*
Y04345D02*
D03*
Y029183D02*
D03*
Y030183D02*
D03*
Y031183D02*
D03*
Y035317D02*
D03*
Y036317D02*
D03*
Y037317D02*
D03*
D26*
Y02605D02*
D03*
Y04445D02*
D03*
Y032183D02*
D03*
Y038317D02*
D03*
D27*
X041297Y038026D02*
D03*
Y04275D02*
D03*
X0461Y03795D02*
D03*
Y04275D02*
D03*
X040509Y040388D02*
D03*
X041297Y027276D02*
D03*
Y032D02*
D03*
X0461Y0272D02*
D03*
Y032D02*
D03*
X040509Y029638D02*
D03*
X041197Y016176D02*
D03*
Y0209D02*
D03*
X046Y0161D02*
D03*
Y0209D02*
D03*
X040409Y018538D02*
D03*
D28*
X02505Y0234D02*
D03*
D29*
X0196Y04355D02*
D03*
Y04255D02*
D03*
Y04055D02*
D03*
Y03955D02*
D03*
Y04155D02*
D03*
Y03855D02*
D03*
Y03755D02*
D03*
Y03655D02*
D03*
Y03555D02*
D03*
Y03455D02*
D03*
Y03355D02*
D03*
Y03255D02*
D03*
Y03155D02*
D03*
Y03055D02*
D03*
X0256Y04355D02*
D03*
Y04255D02*
D03*
X0196Y02955D02*
D03*
X0256Y03055D02*
D03*
Y03155D02*
D03*
Y03255D02*
D03*
Y03355D02*
D03*
Y03455D02*
D03*
Y03555D02*
D03*
Y03655D02*
D03*
Y03755D02*
D03*
Y03855D02*
D03*
Y03955D02*
D03*
Y04055D02*
D03*
Y04155D02*
D03*
D30*
Y02955D02*
D03*
D31*
X030455Y022609D02*
D03*
X028545D02*
D03*
X030605Y033556D02*
D03*
X028695D02*
D03*
X030605Y044259D02*
D03*
X028695D02*
D03*
D32*
X0295Y0226D02*
D03*
X02965Y033546D02*
D03*
Y04425D02*
D03*
M02*
