G04*
G04 #@! TF.GenerationSoftware,Altium Limited,Altium Designer,23.2.1 (34)*
G04*
G04 Layer_Physical_Order=2*
G04 Layer_Color=16711680*
%FSTAX24Y24*%
%MOIN*%
G70*
G04*
G04 #@! TF.SameCoordinates,BC3F6091-25B6-48BF-90D5-32B1282762A0*
G04*
G04*
G04 #@! TF.FilePolarity,Positive*
G04*
G01*
G75*
%ADD33C,0.0800*%
%ADD34R,0.0800X0.0800*%
%ADD35C,0.1100*%
%ADD36C,0.0551*%
%ADD37O,0.0650X0.1000*%
%ADD38R,0.0650X0.1000*%
%ADD39C,0.0591*%
%ADD40R,0.0591X0.0512*%
%ADD41O,0.0591X0.0512*%
%ADD42C,0.0598*%
%ADD43R,0.0598X0.0598*%
%ADD44C,0.1200*%
%ADD45R,0.0591X0.0591*%
%ADD46C,0.0600*%
%ADD47R,0.0600X0.0600*%
%ADD48O,0.0591X0.0787*%
%ADD49O,0.0591X0.0787*%
%ADD50C,0.0400*%
G36*
X05205Y01315D02*
X01255D01*
Y0486D01*
X05205D01*
Y01315D01*
D02*
G37*
%LPC*%
G36*
X028745Y04475D02*
Y044309D01*
X029094D01*
Y044358D01*
X02908Y044461D01*
X029041Y044557D01*
X028977Y04464D01*
X028895Y044703D01*
X028798Y044743D01*
X028745Y04475D01*
D02*
G37*
G36*
X029094Y044209D02*
X028745D01*
Y043769D01*
X028798Y043776D01*
X028895Y043816D01*
X028977Y043879D01*
X029041Y043962D01*
X02908Y044058D01*
X029094Y044161D01*
Y044209D01*
D02*
G37*
G36*
X0357Y045453D02*
X03D01*
X029909Y045441D01*
X029823Y045406D01*
X02975Y04535D01*
X0294Y045D01*
X029344Y044927D01*
X029309Y044841D01*
X029297Y04475D01*
Y04462D01*
X029261Y044573D01*
X029216Y044465D01*
X029201Y044348D01*
Y044152D01*
X029216Y044035D01*
X029261Y043927D01*
X029332Y043834D01*
X029425Y043763D01*
X029534Y043718D01*
X02965Y043702D01*
X029766Y043718D01*
X029875Y043763D01*
X029968Y043834D01*
X030039Y043927D01*
X030084Y044035D01*
X030099Y044152D01*
Y044348D01*
X030084Y044465D01*
X030039Y044573D01*
X03001Y044611D01*
X030146Y044747D01*
X030298D01*
X030315Y044697D01*
X030287Y044675D01*
X030216Y044582D01*
X030171Y044474D01*
X030156Y044358D01*
Y044161D01*
X030171Y044045D01*
X030216Y043936D01*
X030252Y04389D01*
Y043613D01*
X030264Y043522D01*
X030299Y043437D01*
X030355Y043364D01*
X030665Y043054D01*
X030738Y042998D01*
X030823Y042963D01*
X030914Y042951D01*
X030914Y042951D01*
X031168D01*
Y039579D01*
X029569Y037981D01*
X029539Y037977D01*
X029435Y037934D01*
X029346Y037866D01*
X029278Y037777D01*
X029235Y037673D01*
X029221Y037562D01*
X029235Y037451D01*
X029278Y037348D01*
X029346Y037259D01*
X029435Y037191D01*
X029539Y037148D01*
X02965Y037133D01*
X029761Y037148D01*
X029865Y037191D01*
X029954Y037259D01*
X030022Y037348D01*
X030065Y037451D01*
X030069Y037482D01*
X03177Y039184D01*
X031827Y039257D01*
X031862Y039342D01*
X031874Y039433D01*
Y043159D01*
X031874Y043159D01*
X031862Y04325D01*
X031827Y043335D01*
X03177Y043408D01*
X031625Y043553D01*
X031552Y043609D01*
X031467Y043645D01*
X031376Y043657D01*
X03106D01*
X030958Y043759D01*
Y04389D01*
X030994Y043936D01*
X031039Y044045D01*
X031054Y044161D01*
Y044358D01*
X031039Y044474D01*
X030994Y044582D01*
X030922Y044675D01*
X030894Y044697D01*
X030911Y044747D01*
X034225D01*
Y0436D01*
X034347D01*
Y043101D01*
X033243Y041997D01*
X033213Y041993D01*
X033109Y04195D01*
X03302Y041882D01*
X032952Y041793D01*
X032909Y041689D01*
X032894Y041578D01*
X032909Y041467D01*
X032952Y041364D01*
X03302Y041275D01*
X033109Y041206D01*
X033213Y041164D01*
X033324Y041149D01*
X033435Y041164D01*
X033538Y041206D01*
X033627Y041275D01*
X033695Y041364D01*
X033738Y041467D01*
X033742Y041498D01*
X03495Y042705D01*
X035006Y042778D01*
X035041Y042863D01*
X035053Y042955D01*
Y0436D01*
X035175D01*
Y044041D01*
X035225Y044044D01*
X035237Y043951D01*
X035285Y043835D01*
X035347Y043755D01*
Y0422D01*
X035359Y042109D01*
X035394Y042023D01*
X03545Y04195D01*
X036552Y040849D01*
X036545Y0408D01*
X036564Y040656D01*
X03662Y040523D01*
X036708Y040408D01*
X036823Y04032D01*
X036956Y040264D01*
X0371Y040245D01*
X037244Y040264D01*
X037377Y04032D01*
X037492Y040408D01*
X03758Y040523D01*
X037636Y040656D01*
X037655Y0408D01*
X037636Y040944D01*
X03758Y041077D01*
X037492Y041192D01*
X037377Y04128D01*
X037244Y041336D01*
X0371Y041355D01*
X037051Y041348D01*
X036053Y042346D01*
Y043349D01*
X036103Y043382D01*
X036159Y043359D01*
X03625Y043347D01*
X040768D01*
X040785Y0433D01*
X040764Y043283D01*
X04067Y043169D01*
X040601Y043038D01*
X040558Y042897D01*
X040543Y04275D01*
X040558Y042603D01*
X040601Y042462D01*
X04067Y042331D01*
X040764Y042217D01*
X040878Y042123D01*
X040944Y042088D01*
Y041321D01*
X040728Y041105D01*
X040656Y041127D01*
X040509Y041141D01*
X040362Y041127D01*
X040221Y041084D01*
X040091Y041014D01*
X039977Y040921D01*
X039883Y040806D01*
X039813Y040676D01*
X03977Y040535D01*
X039756Y040388D01*
X03977Y040241D01*
X039792Y04017D01*
X037775Y038153D01*
X03765D01*
Y03835D01*
X03655D01*
Y038153D01*
X033561D01*
X03347Y038141D01*
X033385Y038106D01*
X033312Y03805D01*
X033243Y037981D01*
X033213Y037977D01*
X033109Y037934D01*
X03302Y037866D01*
X032952Y037777D01*
X032909Y037673D01*
X032894Y037562D01*
X032909Y037451D01*
X032952Y037348D01*
X03302Y037259D01*
X033109Y037191D01*
X033213Y037148D01*
X033324Y037133D01*
X033435Y037148D01*
X033538Y037191D01*
X033627Y037259D01*
X033695Y037348D01*
X033736Y037447D01*
X03655D01*
Y03725D01*
X03765D01*
Y037447D01*
X039884D01*
X042447Y034884D01*
Y034278D01*
X042401Y034258D01*
X04225Y03441D01*
X042177Y034466D01*
X042091Y034501D01*
X042Y034513D01*
X036032D01*
X036006Y034577D01*
X03595Y03465D01*
X035877Y034706D01*
X035791Y034741D01*
X0357Y034753D01*
X03D01*
X029909Y034741D01*
X029823Y034706D01*
X02975Y03465D01*
X0294Y0343D01*
X029344Y034227D01*
X029309Y034141D01*
X029297Y03405D01*
Y033916D01*
X029261Y033869D01*
X029216Y033761D01*
X029201Y033645D01*
Y033448D01*
X029216Y033332D01*
X029261Y033224D01*
X029332Y03313D01*
X029425Y033059D01*
X029534Y033014D01*
X02965Y032999D01*
X029766Y033014D01*
X029875Y033059D01*
X029968Y03313D01*
X030039Y033224D01*
X030084Y033332D01*
X030099Y033448D01*
Y033645D01*
X030084Y033761D01*
X030039Y033869D01*
X030008Y033909D01*
X030146Y034047D01*
X030303D01*
X03032Y033997D01*
X030287Y033972D01*
X030216Y033879D01*
X030171Y033771D01*
X030156Y033654D01*
Y033457D01*
X030171Y033341D01*
X030216Y033233D01*
X030252Y033186D01*
Y03296D01*
X030264Y032869D01*
X030299Y032783D01*
X030355Y03271D01*
X031023Y032043D01*
Y028684D01*
X029569Y027231D01*
X029539Y027227D01*
X029435Y027184D01*
X029346Y027116D01*
X029278Y027027D01*
X029235Y026923D01*
X029221Y026812D01*
X029235Y026701D01*
X029278Y026598D01*
X029346Y026509D01*
X029435Y026441D01*
X029539Y026398D01*
X02965Y026383D01*
X029761Y026398D01*
X029865Y026441D01*
X029954Y026509D01*
X030022Y026598D01*
X030065Y026701D01*
X030069Y026732D01*
X031625Y028288D01*
X031681Y028361D01*
X031717Y028447D01*
X031729Y028538D01*
Y032189D01*
X031717Y03228D01*
X031681Y032366D01*
X031625Y032439D01*
X030958Y033106D01*
Y033186D01*
X030994Y033233D01*
X031039Y033341D01*
X031054Y033457D01*
Y033654D01*
X031039Y033771D01*
X030994Y033879D01*
X030922Y033972D01*
X03089Y033997D01*
X030907Y034047D01*
X034225D01*
Y0329D01*
X034347D01*
Y032201D01*
X033393Y031247D01*
X033363Y031243D01*
X033259Y0312D01*
X03317Y031132D01*
X033102Y031043D01*
X033059Y030939D01*
X033044Y030828D01*
X033059Y030717D01*
X033102Y030614D01*
X03317Y030525D01*
X033259Y030456D01*
X033363Y030414D01*
X033474Y030399D01*
X033585Y030414D01*
X033688Y030456D01*
X033777Y030525D01*
X033845Y030614D01*
X033888Y030717D01*
X033892Y030748D01*
X03495Y031805D01*
X035006Y031878D01*
X035041Y031963D01*
X035053Y032055D01*
Y0329D01*
X035175D01*
Y033341D01*
X035225Y033344D01*
X035237Y033251D01*
X035285Y033135D01*
X035347Y033055D01*
Y0318D01*
X035359Y031709D01*
X035394Y031623D01*
X03545Y03155D01*
X037052Y029949D01*
X037045Y0299D01*
X037064Y029756D01*
X03712Y029623D01*
X037208Y029508D01*
X037323Y02942D01*
X037456Y029364D01*
X0376Y029345D01*
X037744Y029364D01*
X037877Y02942D01*
X037992Y029508D01*
X03808Y029623D01*
X038136Y029756D01*
X038155Y0299D01*
X038136Y030044D01*
X03808Y030177D01*
X037992Y030292D01*
X037877Y03038D01*
X037744Y030436D01*
X0376Y030455D01*
X037551Y030448D01*
X036053Y031946D01*
Y033055D01*
X036115Y033135D01*
X036163Y033251D01*
X036179Y033375D01*
Y033725D01*
X036173Y033769D01*
X036206Y033807D01*
X041854D01*
X041897Y033764D01*
Y032525D01*
X04185Y032508D01*
X04183Y032533D01*
X041716Y032627D01*
X041585Y032696D01*
X041444Y032739D01*
X041297Y032754D01*
X04115Y032739D01*
X041008Y032696D01*
X040878Y032627D01*
X040764Y032533D01*
X04067Y032419D01*
X040601Y032288D01*
X040558Y032147D01*
X040543Y032D01*
X040558Y031853D01*
X040601Y031712D01*
X04067Y031581D01*
X040764Y031467D01*
X040878Y031373D01*
X040944Y031338D01*
Y030571D01*
X040728Y030355D01*
X040656Y030377D01*
X040509Y030391D01*
X040362Y030377D01*
X040221Y030334D01*
X040091Y030264D01*
X039977Y030171D01*
X039883Y030056D01*
X039813Y029926D01*
X03977Y029785D01*
X039756Y029638D01*
X03977Y029491D01*
X039792Y02942D01*
X03969Y029318D01*
X039634Y029245D01*
X039599Y02916D01*
X039587Y029068D01*
Y028351D01*
X039593Y028308D01*
X039597Y028266D01*
X039839Y027292D01*
X039808Y027253D01*
X03815D01*
Y02745D01*
X03705D01*
Y027253D01*
X035628D01*
X03562Y027252D01*
X035613Y027253D01*
X0337Y027175D01*
X033688Y027184D01*
X033585Y027227D01*
X033474Y027242D01*
X033363Y027227D01*
X033259Y027184D01*
X03317Y027116D01*
X033102Y027027D01*
X033059Y026923D01*
X033044Y026812D01*
X033059Y026701D01*
X033102Y026598D01*
X03317Y026509D01*
X033259Y026441D01*
X033363Y026398D01*
X033474Y026383D01*
X033585Y026398D01*
X033688Y026441D01*
X033726Y026469D01*
X035635Y026547D01*
X03705D01*
Y02635D01*
X03815D01*
Y026547D01*
X039947D01*
Y021797D01*
X039959Y021705D01*
X039994Y02162D01*
X04005Y021547D01*
X040479Y021118D01*
X040458Y021047D01*
X040443Y0209D01*
X040458Y020753D01*
X040501Y020612D01*
X04057Y020481D01*
X040664Y020367D01*
X040778Y020273D01*
X040844Y020238D01*
Y019471D01*
X040628Y019255D01*
X040556Y019277D01*
X040409Y019291D01*
X040262Y019277D01*
X040121Y019234D01*
X039991Y019164D01*
X039877Y019071D01*
X039783Y018956D01*
X039713Y018826D01*
X03967Y018685D01*
X039656Y018538D01*
X03967Y018391D01*
X039713Y018249D01*
X039736Y018206D01*
X039696Y018176D01*
X038622Y01925D01*
X038549Y019306D01*
X038464Y019341D01*
X038372Y019353D01*
X037522D01*
X037492Y019392D01*
X037377Y01948D01*
X037244Y019536D01*
X0371Y019555D01*
X037051Y019548D01*
X035953Y020646D01*
Y022105D01*
X036015Y022185D01*
X036063Y022301D01*
X036079Y022425D01*
Y022775D01*
X036063Y022899D01*
X036015Y023015D01*
X035953Y023095D01*
Y02345D01*
X035941Y023541D01*
X035906Y023627D01*
X03585Y0237D01*
X035777Y023756D01*
X035691Y023791D01*
X0356Y023803D01*
X02975D01*
X029659Y023791D01*
X029573Y023756D01*
X0295Y0237D01*
X02925Y02345D01*
X029194Y023377D01*
X029159Y023291D01*
X029147Y0232D01*
Y02297D01*
X029111Y022923D01*
X029066Y022815D01*
X029051Y022698D01*
Y022502D01*
X029066Y022385D01*
X029111Y022277D01*
X029182Y022184D01*
X029275Y022113D01*
X029384Y022068D01*
X0295Y022052D01*
X029616Y022068D01*
X029725Y022113D01*
X029818Y022184D01*
X029889Y022277D01*
X029934Y022385D01*
X029949Y022502D01*
Y022698D01*
X029934Y022815D01*
X029889Y022923D01*
X029853Y02297D01*
Y023054D01*
X029896Y023097D01*
X030148D01*
X030165Y023047D01*
X030137Y023025D01*
X030066Y022932D01*
X030021Y022824D01*
X030006Y022708D01*
Y022511D01*
X030021Y022395D01*
X030066Y022286D01*
X030102Y02224D01*
Y021107D01*
X030114Y021016D01*
X030149Y020931D01*
X030205Y020858D01*
X030223Y02084D01*
Y017034D01*
X029319Y016131D01*
X029289Y016127D01*
X029185Y016084D01*
X029096Y016016D01*
X029028Y015927D01*
X028985Y015824D01*
X028971Y015712D01*
X028985Y015601D01*
X029028Y015498D01*
X029096Y015409D01*
X029185Y015341D01*
X029289Y015298D01*
X0294Y015283D01*
X029511Y015298D01*
X029615Y015341D01*
X029704Y015409D01*
X029772Y015498D01*
X029815Y015601D01*
X029819Y015632D01*
X030825Y016638D01*
X030881Y016711D01*
X030917Y016797D01*
X030929Y016888D01*
Y020986D01*
X030917Y021078D01*
X030881Y021163D01*
X030825Y021236D01*
X030808Y021254D01*
Y02224D01*
X030844Y022286D01*
X030889Y022395D01*
X030904Y022511D01*
Y022708D01*
X030889Y022824D01*
X030844Y022932D01*
X030772Y023025D01*
X030744Y023047D01*
X030761Y023097D01*
X034125D01*
Y02195D01*
X034247D01*
Y021426D01*
X032968Y020147D01*
X032938Y020143D01*
X032834Y0201D01*
X032745Y020032D01*
X032677Y019943D01*
X032634Y019839D01*
X032619Y019728D01*
X032634Y019617D01*
X032677Y019514D01*
X032745Y019425D01*
X032834Y019356D01*
X032938Y019314D01*
X033049Y019299D01*
X03316Y019314D01*
X033263Y019356D01*
X033352Y019425D01*
X03342Y019514D01*
X033463Y019617D01*
X033467Y019648D01*
X03485Y02103D01*
X034906Y021103D01*
X034941Y021188D01*
X034953Y02128D01*
Y02195D01*
X035075D01*
Y022391D01*
X035125Y022394D01*
X035137Y022301D01*
X035185Y022185D01*
X035247Y022105D01*
Y0205D01*
X035259Y020409D01*
X035294Y020323D01*
X03535Y02025D01*
X036552Y019049D01*
X036545Y019D01*
X036564Y018856D01*
X03662Y018723D01*
X036708Y018608D01*
X036823Y01852D01*
X036956Y018464D01*
X0371Y018445D01*
X037244Y018464D01*
X037377Y01852D01*
X037492Y018608D01*
X037522Y018647D01*
X038226D01*
X040479Y016394D01*
X040458Y016323D01*
X040443Y016176D01*
X040458Y016029D01*
X040501Y015887D01*
X04057Y015757D01*
X040664Y015643D01*
X040778Y015549D01*
X040908Y015479D01*
X04105Y015436D01*
X041197Y015422D01*
X041344Y015436D01*
X041462Y015472D01*
X041489Y015428D01*
X040854Y014793D01*
X038806D01*
X03765Y015949D01*
Y01655D01*
X03655D01*
Y016353D01*
X033336D01*
X033245Y016341D01*
X03316Y016306D01*
X033087Y01625D01*
X032968Y016131D01*
X032938Y016127D01*
X032834Y016084D01*
X032745Y016016D01*
X032677Y015927D01*
X032634Y015824D01*
X03263Y015793D01*
X03119Y014353D01*
X029196D01*
X025992Y017558D01*
X025984Y017616D01*
X025939Y017725D01*
X025868Y017818D01*
X025775Y017889D01*
X025666Y017934D01*
X02555Y017949D01*
X025434Y017934D01*
X025325Y017889D01*
X025279Y017853D01*
X02365D01*
X023642Y017852D01*
X023633Y017853D01*
X022027Y017776D01*
X021995Y017806D01*
Y017806D01*
X021105D01*
Y017753D01*
X0191D01*
X019081Y01775D01*
X019061Y017751D01*
X016513Y017468D01*
X016447Y017547D01*
X016341Y017635D01*
X016219Y0177D01*
X016087Y01774D01*
X01595Y017753D01*
X015813Y01774D01*
X015772Y017727D01*
X014203Y019296D01*
Y022542D01*
X014249Y022562D01*
X01575Y02106D01*
X015823Y021004D01*
X015909Y020969D01*
X016Y020957D01*
X01896D01*
X019051Y020969D01*
X019137Y021004D01*
X01921Y02106D01*
X021108Y022958D01*
X021166Y022966D01*
X021275Y023011D01*
X021368Y023082D01*
X021439Y023175D01*
X021484Y023284D01*
X021499Y0234D01*
X021484Y023516D01*
X021439Y023625D01*
X021368Y023718D01*
X021275Y023789D01*
X021166Y023834D01*
X02105Y023849D01*
X020934Y023834D01*
X020825Y023789D01*
X020732Y023718D01*
X020661Y023625D01*
X020616Y023516D01*
X020608Y023458D01*
X020546Y023395D01*
X020497Y023417D01*
X020484Y023516D01*
X020439Y023625D01*
X020368Y023718D01*
X020275Y023789D01*
X020166Y023834D01*
X02005Y023849D01*
X019934Y023834D01*
X019825Y023789D01*
X019732Y023718D01*
X019661Y023625D01*
X019616Y023516D01*
X019601Y0234D01*
X019616Y023284D01*
X019661Y023175D01*
X019732Y023082D01*
X019825Y023011D01*
X019934Y022966D01*
X020033Y022953D01*
X020055Y022904D01*
X018814Y021663D01*
X016146D01*
X014753Y023056D01*
Y024704D01*
X015099Y02505D01*
X01515Y02503D01*
X015162Y024933D01*
X015208Y024823D01*
X01528Y02473D01*
X015373Y024658D01*
X015483Y024612D01*
X0156Y024597D01*
X015717Y024612D01*
X015827Y024658D01*
X015878Y024697D01*
X021D01*
X021091Y024709D01*
X021177Y024744D01*
X02125Y0248D01*
X022651Y026202D01*
X022697Y026182D01*
Y023671D01*
X022661Y023625D01*
X022616Y023516D01*
X022601Y0234D01*
X022616Y023284D01*
X022661Y023175D01*
X022732Y023082D01*
X022825Y023011D01*
X022934Y022966D01*
X02305Y022951D01*
X023166Y022966D01*
X023275Y023011D01*
X023368Y023082D01*
X023439Y023175D01*
X023484Y023284D01*
X023499Y0234D01*
X023484Y023516D01*
X023439Y023625D01*
X023403Y023671D01*
Y028854D01*
X024746Y030197D01*
X025321D01*
X025373Y030157D01*
X025483Y030112D01*
X0256Y030096D01*
X025717Y030112D01*
X025827Y030157D01*
X025921Y030229D01*
X025993Y030323D01*
X026038Y030433D01*
X026054Y03055D01*
X026038Y030667D01*
X025993Y030777D01*
X025921Y030871D01*
X025827Y030943D01*
X025717Y030988D01*
X0256Y031004D01*
X025483Y030988D01*
X025373Y030943D01*
X025321Y030903D01*
X0246D01*
X024509Y030891D01*
X024423Y030856D01*
X02435Y0308D01*
X022899Y029348D01*
X022853Y029368D01*
Y043154D01*
X024146Y044447D01*
X024887D01*
X024907Y044401D01*
X0247Y044195D01*
X024644Y044122D01*
X024609Y044036D01*
X024597Y043945D01*
Y0342D01*
X024609Y034109D01*
X024644Y034023D01*
X0247Y03395D01*
X025153Y033498D01*
X025162Y033433D01*
X025207Y033323D01*
X025279Y033229D01*
X025373Y033157D01*
X025483Y033112D01*
X0256Y033096D01*
X025717Y033112D01*
X025827Y033157D01*
X025921Y033229D01*
X025993Y033323D01*
X026038Y033433D01*
X026051Y033529D01*
X026102Y033549D01*
X027147Y032504D01*
Y032D01*
X027159Y031909D01*
X027194Y031823D01*
X02725Y03175D01*
X028422Y030579D01*
X028495Y030522D01*
X02858Y030487D01*
X028672Y030475D01*
X029411D01*
X029435Y030456D01*
X029539Y030414D01*
X029623Y030403D01*
X02964Y03035D01*
X02764Y02835D01*
X027584Y028277D01*
X027549Y028191D01*
X027537Y0281D01*
Y021238D01*
X027549Y021147D01*
X027584Y021062D01*
X02764Y020989D01*
X028981Y019648D01*
X028985Y019617D01*
X029028Y019514D01*
X029096Y019425D01*
X029185Y019356D01*
X029289Y019314D01*
X0294Y019299D01*
X029511Y019314D01*
X029615Y019356D01*
X029704Y019425D01*
X029772Y019514D01*
X029815Y019617D01*
X029829Y019728D01*
X029815Y019839D01*
X029772Y019943D01*
X029704Y020032D01*
X029615Y0201D01*
X029511Y020143D01*
X029481Y020147D01*
X028243Y021384D01*
Y022182D01*
X028293Y022206D01*
X028346Y022166D01*
X028442Y022126D01*
X028495Y022119D01*
Y022609D01*
Y0231D01*
X028442Y023093D01*
X028346Y023053D01*
X028293Y023012D01*
X028243Y023037D01*
Y027954D01*
X030525Y030236D01*
X030581Y030309D01*
X030617Y030394D01*
X030629Y030486D01*
Y031178D01*
X030617Y03127D01*
X030581Y031355D01*
X030525Y031428D01*
X03025Y031703D01*
X030177Y031759D01*
X030091Y031795D01*
X03Y031807D01*
X029552D01*
X028393Y032966D01*
Y03311D01*
X02839Y03313D01*
X028437Y033157D01*
X028496Y033112D01*
X028592Y033072D01*
X028645Y033065D01*
Y033506D01*
X028297D01*
Y033457D01*
X028302Y033418D01*
X028254Y033395D01*
X026047Y035602D01*
X026038Y035667D01*
X025993Y035777D01*
X025921Y035871D01*
X025827Y035943D01*
X025717Y035988D01*
X0256Y036004D01*
X025483Y035988D01*
X025373Y035943D01*
X025348Y035924D01*
X025303Y035946D01*
Y036154D01*
X025348Y036176D01*
X025373Y036157D01*
X025483Y036112D01*
X0256Y036096D01*
X025717Y036112D01*
X025827Y036157D01*
X025921Y036229D01*
X025993Y036323D01*
X026038Y036433D01*
X026054Y03655D01*
X026038Y036667D01*
X025993Y036777D01*
X025921Y036871D01*
X025827Y036943D01*
X025717Y036988D01*
X0256Y037004D01*
X025483Y036988D01*
X025373Y036943D01*
X025348Y036924D01*
X025303Y036946D01*
Y037154D01*
X025348Y037176D01*
X025373Y037157D01*
X025483Y037112D01*
X0256Y037096D01*
X025717Y037112D01*
X025827Y037157D01*
X025921Y037229D01*
X025993Y037323D01*
X026038Y037433D01*
X026054Y03755D01*
X026038Y037667D01*
X025993Y037777D01*
X025921Y037871D01*
X025827Y037943D01*
X025717Y037988D01*
X0256Y038004D01*
X025483Y037988D01*
X025373Y037943D01*
X025348Y037924D01*
X025303Y037946D01*
Y038154D01*
X025348Y038176D01*
X025373Y038157D01*
X025483Y038112D01*
X0256Y038096D01*
X025717Y038112D01*
X025827Y038157D01*
X025879Y038197D01*
X0276D01*
X027691Y038209D01*
X027777Y038244D01*
X02785Y0383D01*
X03053Y04098D01*
X030586Y041053D01*
X030621Y041139D01*
X030633Y04123D01*
Y041924D01*
X030621Y042015D01*
X030586Y0421D01*
X03053Y042173D01*
X03025Y042453D01*
X030177Y042509D01*
X030091Y042545D01*
X03Y042557D01*
X029536D01*
X028293Y0438D01*
Y043969D01*
X028343Y043979D01*
X02835Y043962D01*
X028413Y043879D01*
X028496Y043816D01*
X028592Y043776D01*
X028645Y043769D01*
Y044259D01*
Y04475D01*
X028592Y044743D01*
X028496Y044703D01*
X028413Y04464D01*
X02835Y044557D01*
X028339Y044531D01*
X028288Y044538D01*
X028281Y044591D01*
X028246Y044677D01*
X02819Y04475D01*
X02789Y04505D01*
X027817Y045106D01*
X027731Y045141D01*
X02764Y045153D01*
X024D01*
X023909Y045141D01*
X023823Y045106D01*
X02375Y04505D01*
X02225Y04355D01*
X022194Y043477D01*
X022159Y043391D01*
X022147Y0433D01*
Y026696D01*
X020854Y025403D01*
X015878D01*
X015827Y025442D01*
X015717Y025488D01*
X01562Y0255D01*
X0156Y025551D01*
X01565Y025601D01*
X016049D01*
Y025697D01*
X0174D01*
X017491Y025709D01*
X017577Y025744D01*
X01765Y0258D01*
X02092Y02907D01*
X020976Y029143D01*
X021011Y029229D01*
X021023Y02932D01*
Y03148D01*
X021023Y03148D01*
X021011Y031571D01*
X020976Y031657D01*
X02092Y03173D01*
X02092Y03173D01*
X020099Y03255D01*
X02105Y0335D01*
X021106Y033573D01*
X021141Y033659D01*
X021153Y03375D01*
Y04431D01*
X021141Y044401D01*
X021106Y044487D01*
X02105Y04456D01*
X02026Y045349D01*
X020187Y045405D01*
X020102Y04544D01*
X020011Y045452D01*
X014951D01*
X014859Y04544D01*
X014774Y045405D01*
X014701Y045349D01*
X014645Y045276D01*
X01461Y045191D01*
X014598Y045099D01*
Y043099D01*
X01461Y043008D01*
X014645Y042923D01*
X014701Y04285D01*
X015101Y04245D01*
X01415Y0415D01*
X014094Y041427D01*
X014059Y041341D01*
X014047Y04125D01*
Y036517D01*
X014059Y036425D01*
X014094Y03634D01*
X01415Y036267D01*
X015101Y035317D01*
X01415Y034366D01*
X014094Y034293D01*
X014059Y034208D01*
X014047Y034117D01*
Y030383D01*
X014059Y030292D01*
X014094Y030207D01*
X01415Y030134D01*
X015154Y02913D01*
X015162Y029066D01*
X015208Y028957D01*
X01528Y028863D01*
X015373Y028791D01*
X015483Y028746D01*
X0156Y02873D01*
X015717Y028746D01*
X015827Y028791D01*
X01592Y028863D01*
X015992Y028957D01*
X016038Y029066D01*
X016053Y029183D01*
X016038Y029301D01*
X015992Y02941D01*
X01592Y029504D01*
X015827Y029576D01*
X015717Y029621D01*
X015653Y029629D01*
X015545Y029737D01*
X01555Y029747D01*
Y030133D01*
X015164D01*
X015154Y030128D01*
X014753Y03053D01*
Y03397D01*
X015653Y034871D01*
X015717Y034879D01*
X015827Y034924D01*
X01592Y034996D01*
X015992Y03509D01*
X016038Y035199D01*
X016053Y035317D01*
X016038Y035434D01*
X015992Y035543D01*
X01592Y035637D01*
X015827Y035709D01*
X015717Y035754D01*
X015653Y035763D01*
X015545Y035871D01*
X01555Y035881D01*
Y036267D01*
X015164D01*
X015154Y036262D01*
X014753Y036663D01*
Y041104D01*
X015154Y041505D01*
X015164Y0415D01*
X01555D01*
Y041886D01*
X015545Y041896D01*
X015653Y042004D01*
X015717Y042012D01*
X015827Y042058D01*
X01592Y04213D01*
X015992Y042223D01*
X016038Y042333D01*
X01605Y04243D01*
X016101Y04245D01*
X017247Y041304D01*
Y03955D01*
X017259Y039459D01*
X017294Y039373D01*
X01735Y0393D01*
X019153Y037498D01*
X019162Y037433D01*
X019207Y037323D01*
X019279Y037229D01*
X019373Y037157D01*
X019483Y037112D01*
X0196Y037096D01*
X019717Y037112D01*
X019827Y037157D01*
X019921Y037229D01*
X019993Y037323D01*
X020038Y037433D01*
X020054Y03755D01*
X020038Y037667D01*
X019993Y037777D01*
X019921Y037871D01*
X019827Y037943D01*
X019717Y037988D01*
X019652Y037997D01*
X019601Y038048D01*
X019621Y038099D01*
X019717Y038112D01*
X019827Y038157D01*
X019921Y038229D01*
X019993Y038323D01*
X020038Y038433D01*
X020047Y038498D01*
X020401Y038852D01*
X020447Y038832D01*
Y033896D01*
X020102Y033551D01*
X020051Y033571D01*
X020038Y033667D01*
X019993Y033777D01*
X019921Y033871D01*
X019827Y033943D01*
X019717Y033988D01*
X0196Y034004D01*
X019483Y033988D01*
X019373Y033943D01*
X019279Y033871D01*
X019207Y033777D01*
X019162Y033667D01*
X019146Y03355D01*
X019162Y033433D01*
X019207Y033323D01*
X019279Y033229D01*
X019373Y033157D01*
X019483Y033112D01*
X019579Y033099D01*
X019599Y033048D01*
X019548Y032997D01*
X019483Y032988D01*
X019373Y032943D01*
X019279Y032871D01*
X019207Y032777D01*
X019162Y032667D01*
X019146Y03255D01*
X019162Y032433D01*
X019207Y032323D01*
X019279Y032229D01*
X019373Y032157D01*
X019483Y032112D01*
X019548Y032103D01*
X019599Y032052D01*
X019579Y032001D01*
X019483Y031988D01*
X019373Y031943D01*
X019279Y031871D01*
X019207Y031777D01*
X019162Y031667D01*
X019146Y03155D01*
X019162Y031433D01*
X019207Y031323D01*
X019279Y031229D01*
X019373Y031157D01*
X019483Y031112D01*
X0196Y031096D01*
X019717Y031112D01*
X019827Y031157D01*
X019921Y031229D01*
X019993Y031323D01*
X020038Y031433D01*
X020051Y031529D01*
X020102Y031549D01*
X020317Y031334D01*
Y029466D01*
X017254Y026403D01*
X016049D01*
Y026499D01*
X015514D01*
X015495Y026545D01*
X018146Y029197D01*
X019321D01*
X019373Y029157D01*
X019483Y029112D01*
X0196Y029096D01*
X019717Y029112D01*
X019827Y029157D01*
X019921Y029229D01*
X019993Y029323D01*
X020038Y029433D01*
X020054Y02955D01*
X020038Y029667D01*
X019993Y029777D01*
X019921Y029871D01*
X019827Y029943D01*
X019717Y029988D01*
X0196Y030004D01*
X019483Y029988D01*
X019373Y029943D01*
X019321Y029903D01*
X018D01*
X017909Y029891D01*
X017823Y029856D01*
X01775Y0298D01*
X0136Y02565D01*
X013544Y025577D01*
X013509Y025491D01*
X013497Y0254D01*
Y01915D01*
X013509Y019059D01*
X013544Y018973D01*
X0136Y0189D01*
X015273Y017228D01*
X01526Y017187D01*
X015247Y01705D01*
X01526Y016913D01*
X0153Y016781D01*
X015365Y016659D01*
X015453Y016553D01*
X015559Y016465D01*
X015681Y0164D01*
X015813Y01636D01*
X01595Y016347D01*
X016087Y01636D01*
X016219Y0164D01*
X016341Y016465D01*
X016447Y016553D01*
X016535Y016659D01*
X016592Y016766D01*
X01912Y017047D01*
X021105D01*
Y016994D01*
X021995D01*
Y017068D01*
X023658Y017147D01*
X025279D01*
X025325Y017111D01*
X025434Y017066D01*
X025492Y017058D01*
X0288Y01375D01*
X028873Y013694D01*
X028959Y013659D01*
X02905Y013647D01*
X031336D01*
X031428Y013659D01*
X031513Y013694D01*
X031586Y01375D01*
X033129Y015294D01*
X03316Y015298D01*
X033263Y015341D01*
X033352Y015409D01*
X03342Y015498D01*
X033463Y015601D01*
X033467Y015632D01*
X033482Y015647D01*
X03655D01*
Y01545D01*
X037151D01*
X03841Y01419D01*
X038483Y014134D01*
X038569Y014099D01*
X03866Y014087D01*
X041D01*
X041091Y014099D01*
X041177Y014134D01*
X04125Y01419D01*
X0424Y01534D01*
X042456Y015413D01*
X042491Y015499D01*
X042503Y01559D01*
X042503Y01559D01*
Y016797D01*
X042503Y016797D01*
X042491Y016889D01*
X042456Y016974D01*
X0424Y017047D01*
X041127Y01832D01*
X041149Y018391D01*
X041163Y018538D01*
X041149Y018685D01*
X041127Y018756D01*
X041446Y019076D01*
X041503Y019149D01*
X041538Y019234D01*
X04155Y019325D01*
Y020238D01*
X041616Y020273D01*
X04173Y020367D01*
X041823Y020481D01*
X041893Y020612D01*
X041936Y020753D01*
X04195Y0209D01*
X041936Y021047D01*
X041914Y021118D01*
X04305Y022254D01*
X043106Y022327D01*
X043141Y022412D01*
X043153Y022503D01*
Y03503D01*
X043153Y03503D01*
X043141Y035121D01*
X043106Y035207D01*
X04305Y03528D01*
X041071Y037258D01*
X041098Y037302D01*
X04115Y037286D01*
X041297Y037272D01*
X041444Y037286D01*
X041585Y037329D01*
X041716Y037399D01*
X04183Y037493D01*
X041923Y037607D01*
X041956Y037667D01*
X042D01*
X042091Y037679D01*
X042177Y037714D01*
X04225Y03777D01*
X0425Y03802D01*
X042556Y038093D01*
X042591Y038179D01*
X042603Y03827D01*
Y04345D01*
X042591Y043541D01*
X042556Y043627D01*
X0425Y0437D01*
X04225Y04395D01*
X042177Y044006D01*
X042091Y044041D01*
X042Y044053D01*
X036396D01*
X036179Y04427D01*
Y044425D01*
X036163Y044549D01*
X036115Y044665D01*
X036053Y044745D01*
Y0451D01*
X036041Y045191D01*
X036006Y045277D01*
X03595Y04535D01*
X035877Y045406D01*
X035791Y045441D01*
X0357Y045453D01*
D02*
G37*
G36*
X049324Y043024D02*
Y042426D01*
X049922D01*
X049914Y042504D01*
X049877Y042626D01*
X049817Y042739D01*
X049736Y042838D01*
X049637Y042919D01*
X049524Y04298D01*
X049401Y043017D01*
X049324Y043024D01*
D02*
G37*
G36*
X049224D02*
X049146Y043017D01*
X049024Y04298D01*
X048911Y042919D01*
X048812Y042838D01*
X048731Y042739D01*
X04867Y042626D01*
X048633Y042504D01*
X048626Y042426D01*
X049224D01*
Y043024D01*
D02*
G37*
G36*
X0461Y043504D02*
X045953Y043489D01*
X045812Y043446D01*
X045681Y043377D01*
X045567Y043283D01*
X045473Y043169D01*
X045404Y043038D01*
X045361Y042897D01*
X045346Y04275D01*
X045361Y042603D01*
X045404Y042462D01*
X045473Y042331D01*
X045567Y042217D01*
X045681Y042123D01*
X045812Y042054D01*
X045953Y042011D01*
X0461Y041996D01*
X046247Y042011D01*
X046388Y042054D01*
X046519Y042123D01*
X046633Y042217D01*
X046727Y042331D01*
X046796Y042462D01*
X046839Y042603D01*
X046854Y04275D01*
X046839Y042897D01*
X046796Y043038D01*
X046727Y043169D01*
X046633Y043283D01*
X046519Y043377D01*
X046388Y043446D01*
X046247Y043489D01*
X0461Y043504D01*
D02*
G37*
G36*
X049922Y042326D02*
X049324D01*
Y041728D01*
X049401Y041736D01*
X049524Y041773D01*
X049637Y041833D01*
X049736Y041914D01*
X049817Y042013D01*
X049877Y042126D01*
X049914Y042249D01*
X049922Y042326D01*
D02*
G37*
G36*
X049224D02*
X048626D01*
X048633Y042249D01*
X04867Y042126D01*
X048731Y042013D01*
X048812Y041914D01*
X048911Y041833D01*
X049024Y041773D01*
X049146Y041736D01*
X049224Y041728D01*
Y042326D01*
D02*
G37*
G36*
X01565Y041846D02*
Y0415D01*
X015996D01*
X015989Y041554D01*
X015949Y041651D01*
X015885Y041735D01*
X015801Y041799D01*
X015704Y041839D01*
X01565Y041846D01*
D02*
G37*
G36*
X015996Y0414D02*
X01565D01*
Y041054D01*
X015704Y041061D01*
X015801Y041101D01*
X015885Y041165D01*
X015949Y041249D01*
X015989Y041346D01*
X015996Y0414D01*
D02*
G37*
G36*
X01555D02*
X015204D01*
X015211Y041346D01*
X015251Y041249D01*
X015315Y041165D01*
X015399Y041101D01*
X015496Y041061D01*
X01555Y041054D01*
Y0414D01*
D02*
G37*
G36*
X049274Y04108D02*
X049137Y041066D01*
X049005Y041026D01*
X048883Y040961D01*
X048776Y040874D01*
X048689Y040767D01*
X048624Y040645D01*
X048584Y040513D01*
X04857Y040376D01*
X048584Y040239D01*
X048624Y040107D01*
X048689Y039985D01*
X048776Y039879D01*
X048883Y039791D01*
X049005Y039726D01*
X049137Y039686D01*
X049274Y039673D01*
X049411Y039686D01*
X049543Y039726D01*
X049665Y039791D01*
X049771Y039879D01*
X049859Y039985D01*
X049924Y040107D01*
X049964Y040239D01*
X049977Y040376D01*
X049964Y040513D01*
X049924Y040645D01*
X049859Y040767D01*
X049771Y040874D01*
X049665Y040961D01*
X049543Y041026D01*
X049411Y041066D01*
X049274Y04108D01*
D02*
G37*
G36*
X0493Y039053D02*
X049163Y03904D01*
X049031Y039D01*
X048909Y038935D01*
X048803Y038847D01*
X048715Y038741D01*
X04865Y038619D01*
X04861Y038487D01*
X048597Y03835D01*
X048598Y03834D01*
X048564Y038303D01*
X046762D01*
X046727Y038369D01*
X046633Y038483D01*
X046519Y038577D01*
X046388Y038646D01*
X046247Y038689D01*
X0461Y038704D01*
X045953Y038689D01*
X045812Y038646D01*
X045681Y038577D01*
X045567Y038483D01*
X045473Y038369D01*
X045404Y038238D01*
X045361Y038097D01*
X045346Y03795D01*
X045361Y037803D01*
X045404Y037662D01*
X045473Y037531D01*
X045567Y037417D01*
X045681Y037323D01*
X045812Y037254D01*
X045953Y037211D01*
X0461Y037196D01*
X046247Y037211D01*
X046388Y037254D01*
X046519Y037323D01*
X046633Y037417D01*
X046727Y037531D01*
X046762Y037597D01*
X0489D01*
X048991Y037609D01*
X049077Y037644D01*
X049116Y037674D01*
X049163Y03766D01*
X0493Y037647D01*
X049437Y03766D01*
X049569Y0377D01*
X049691Y037765D01*
X049797Y037853D01*
X049885Y037959D01*
X04995Y038081D01*
X04999Y038213D01*
X050003Y03835D01*
X04999Y038487D01*
X04995Y038619D01*
X049885Y038741D01*
X049797Y038847D01*
X049691Y038935D01*
X049569Y039D01*
X049437Y03904D01*
X0493Y039053D01*
D02*
G37*
G36*
X01565Y036713D02*
Y036367D01*
X015996D01*
X015989Y036421D01*
X015949Y036518D01*
X015885Y036601D01*
X015801Y036665D01*
X015704Y036706D01*
X01565Y036713D01*
D02*
G37*
G36*
X01555D02*
X015496Y036706D01*
X015399Y036665D01*
X015315Y036601D01*
X015251Y036518D01*
X015211Y036421D01*
X015204Y036367D01*
X01555D01*
Y036713D01*
D02*
G37*
G36*
X016049Y038766D02*
X015151D01*
Y037867D01*
X01555D01*
X0156Y037818D01*
X01558Y037767D01*
X015483Y037754D01*
X015373Y037709D01*
X01528Y037637D01*
X015208Y037543D01*
X015162Y037434D01*
X015147Y037317D01*
X015162Y037199D01*
X015208Y03709D01*
X01528Y036996D01*
X015373Y036924D01*
X015483Y036879D01*
X0156Y036864D01*
X015717Y036879D01*
X015827Y036924D01*
X01592Y036996D01*
X015992Y03709D01*
X016038Y037199D01*
X01605Y037296D01*
X016101Y037316D01*
X017117Y0363D01*
X01719Y036244D01*
X017275Y036209D01*
X017367Y036197D01*
X017367Y036197D01*
X019321D01*
X019373Y036157D01*
X019483Y036112D01*
X0196Y036096D01*
X019717Y036112D01*
X019827Y036157D01*
X019921Y036229D01*
X019993Y036323D01*
X020038Y036433D01*
X020054Y03655D01*
X020038Y036667D01*
X019993Y036777D01*
X019921Y036871D01*
X019827Y036943D01*
X019717Y036988D01*
X0196Y037004D01*
X019483Y036988D01*
X019373Y036943D01*
X019321Y036903D01*
X017513D01*
X016049Y038367D01*
Y038766D01*
D02*
G37*
G36*
X015996Y036267D02*
X01565D01*
Y035921D01*
X015704Y035928D01*
X015801Y035968D01*
X015885Y036032D01*
X015949Y036115D01*
X015989Y036212D01*
X015996Y036267D01*
D02*
G37*
G36*
X0196Y036004D02*
X019483Y035988D01*
X019373Y035943D01*
X019279Y035871D01*
X019207Y035777D01*
X019162Y035667D01*
X019153Y035602D01*
X016099Y032548D01*
X016049Y032566D01*
Y032633D01*
X015151D01*
Y031734D01*
X016049D01*
Y03183D01*
X016233D01*
X016325Y031842D01*
X01641Y031878D01*
X016483Y031934D01*
X019098Y034549D01*
X019149Y034529D01*
X019162Y034433D01*
X019207Y034323D01*
X019279Y034229D01*
X019373Y034157D01*
X019483Y034112D01*
X0196Y034096D01*
X019717Y034112D01*
X019827Y034157D01*
X019921Y034229D01*
X019993Y034323D01*
X020038Y034433D01*
X020054Y03455D01*
X020038Y034667D01*
X019993Y034777D01*
X019921Y034871D01*
X019827Y034943D01*
X019717Y034988D01*
X019621Y035001D01*
X019601Y035052D01*
X019652Y035103D01*
X019717Y035112D01*
X019827Y035157D01*
X019921Y035229D01*
X019993Y035323D01*
X020038Y035433D01*
X020054Y03555D01*
X020038Y035667D01*
X019993Y035777D01*
X019921Y035871D01*
X019827Y035943D01*
X019717Y035988D01*
X0196Y036004D01*
D02*
G37*
G36*
X028745Y034046D02*
Y033606D01*
X029094D01*
Y033654D01*
X02908Y033757D01*
X029041Y033854D01*
X028977Y033936D01*
X028895Y034D01*
X028798Y034039D01*
X028745Y034046D01*
D02*
G37*
G36*
X028645D02*
X028592Y034039D01*
X028496Y034D01*
X028413Y033936D01*
X02835Y033854D01*
X02831Y033757D01*
X028297Y033654D01*
Y033606D01*
X028645D01*
Y034046D01*
D02*
G37*
G36*
X029094Y033506D02*
X028745D01*
Y033065D01*
X028798Y033072D01*
X028895Y033112D01*
X028977Y033176D01*
X029041Y033258D01*
X02908Y033354D01*
X029094Y033457D01*
Y033506D01*
D02*
G37*
G36*
X0256Y033004D02*
X025483Y032988D01*
X025373Y032943D01*
X025279Y032871D01*
X025207Y032777D01*
X025162Y032667D01*
X025146Y03255D01*
X025162Y032433D01*
X025207Y032323D01*
X025279Y032229D01*
X025373Y032157D01*
X025483Y032112D01*
X0256Y032096D01*
X025717Y032112D01*
X025827Y032157D01*
X025921Y032229D01*
X025993Y032323D01*
X026038Y032433D01*
X026054Y03255D01*
X026038Y032667D01*
X025993Y032777D01*
X025921Y032871D01*
X025827Y032943D01*
X025717Y032988D01*
X0256Y033004D01*
D02*
G37*
G36*
X049324Y032261D02*
Y031663D01*
X049922D01*
X049914Y031741D01*
X049877Y031863D01*
X049817Y031976D01*
X049736Y032075D01*
X049637Y032156D01*
X049524Y032217D01*
X049401Y032254D01*
X049324Y032261D01*
D02*
G37*
G36*
X049224D02*
X049146Y032254D01*
X049024Y032217D01*
X048911Y032156D01*
X048812Y032075D01*
X048731Y031976D01*
X04867Y031863D01*
X048633Y031741D01*
X048626Y031663D01*
X049224D01*
Y032261D01*
D02*
G37*
G36*
X0461Y032754D02*
X045953Y032739D01*
X045812Y032696D01*
X045681Y032627D01*
X045567Y032533D01*
X045473Y032419D01*
X045404Y032288D01*
X045361Y032147D01*
X045346Y032D01*
X045361Y031853D01*
X045404Y031712D01*
X045473Y031581D01*
X045567Y031467D01*
X045681Y031373D01*
X045812Y031304D01*
X045953Y031261D01*
X0461Y031246D01*
X046247Y031261D01*
X046388Y031304D01*
X046519Y031373D01*
X046633Y031467D01*
X046727Y031581D01*
X046796Y031712D01*
X046839Y031853D01*
X046854Y032D01*
X046839Y032147D01*
X046796Y032288D01*
X046727Y032419D01*
X046633Y032533D01*
X046519Y032627D01*
X046388Y032696D01*
X046247Y032739D01*
X0461Y032754D01*
D02*
G37*
G36*
X0256Y032004D02*
X025483Y031988D01*
X025373Y031943D01*
X025279Y031871D01*
X025207Y031777D01*
X025162Y031667D01*
X025146Y03155D01*
X025162Y031433D01*
X025207Y031323D01*
X025279Y031229D01*
X025373Y031157D01*
X025483Y031112D01*
X0256Y031096D01*
X025717Y031112D01*
X025827Y031157D01*
X025921Y031229D01*
X025993Y031323D01*
X026038Y031433D01*
X026054Y03155D01*
X026038Y031667D01*
X025993Y031777D01*
X025921Y031871D01*
X025827Y031943D01*
X025717Y031988D01*
X0256Y032004D01*
D02*
G37*
G36*
X049922Y031563D02*
X049324D01*
Y030965D01*
X049401Y030973D01*
X049524Y03101D01*
X049637Y03107D01*
X049736Y031151D01*
X049817Y03125D01*
X049877Y031363D01*
X049914Y031486D01*
X049922Y031563D01*
D02*
G37*
G36*
X049224D02*
X048626D01*
X048633Y031486D01*
X04867Y031363D01*
X048731Y03125D01*
X048812Y031151D01*
X048911Y03107D01*
X049024Y03101D01*
X049146Y030973D01*
X049224Y030965D01*
Y031563D01*
D02*
G37*
G36*
X0156Y031636D02*
X015483Y031621D01*
X015373Y031576D01*
X01528Y031504D01*
X015208Y03141D01*
X015162Y031301D01*
X015147Y031183D01*
X015162Y031066D01*
X015208Y030957D01*
X01528Y030863D01*
X015373Y030791D01*
X015483Y030746D01*
X0156Y03073D01*
X015717Y030746D01*
X015827Y030791D01*
X01592Y030863D01*
X015992Y030957D01*
X016038Y031066D01*
X016053Y031183D01*
X016038Y031301D01*
X015992Y03141D01*
X01592Y031504D01*
X015827Y031576D01*
X015717Y031621D01*
X0156Y031636D01*
D02*
G37*
G36*
X01965Y030947D02*
Y0306D01*
X019997D01*
X01999Y030654D01*
X019949Y030752D01*
X019885Y030835D01*
X019802Y030899D01*
X019704Y03094D01*
X01965Y030947D01*
D02*
G37*
G36*
X01955D02*
X019496Y03094D01*
X019398Y030899D01*
X019315Y030835D01*
X019251Y030752D01*
X01921Y030654D01*
X019203Y0306D01*
X01955D01*
Y030947D01*
D02*
G37*
G36*
X01565Y030579D02*
Y030233D01*
X015996D01*
X015989Y030288D01*
X015949Y030385D01*
X015885Y030468D01*
X015801Y030532D01*
X015704Y030572D01*
X01565Y030579D01*
D02*
G37*
G36*
X01555D02*
X015496Y030572D01*
X015399Y030532D01*
X015315Y030468D01*
X015251Y030385D01*
X015211Y030288D01*
X015204Y030233D01*
X01555D01*
Y030579D01*
D02*
G37*
G36*
X019997Y0305D02*
X01965D01*
Y030153D01*
X019704Y03016D01*
X019802Y030201D01*
X019885Y030265D01*
X019949Y030348D01*
X01999Y030446D01*
X019997Y0305D01*
D02*
G37*
G36*
X01955D02*
X019203D01*
X01921Y030446D01*
X019251Y030348D01*
X019315Y030265D01*
X019398Y030201D01*
X019496Y03016D01*
X01955Y030153D01*
Y0305D01*
D02*
G37*
G36*
X015996Y030133D02*
X01565D01*
Y029787D01*
X015704Y029794D01*
X015801Y029835D01*
X015885Y029899D01*
X015949Y029982D01*
X015989Y030079D01*
X015996Y030133D01*
D02*
G37*
G36*
X049274Y030316D02*
X049137Y030303D01*
X049005Y030263D01*
X048883Y030198D01*
X048776Y03011D01*
X048689Y030004D01*
X048624Y029882D01*
X048584Y02975D01*
X04857Y029613D01*
X048584Y029476D01*
X048624Y029344D01*
X048689Y029222D01*
X048776Y029116D01*
X048883Y029028D01*
X049005Y028963D01*
X049137Y028923D01*
X049274Y02891D01*
X049411Y028923D01*
X049543Y028963D01*
X049665Y029028D01*
X049771Y029116D01*
X049859Y029222D01*
X049924Y029344D01*
X049964Y029476D01*
X049977Y029613D01*
X049964Y02975D01*
X049924Y029882D01*
X049859Y030004D01*
X049771Y03011D01*
X049665Y030198D01*
X049543Y030263D01*
X049411Y030303D01*
X049274Y030316D01*
D02*
G37*
G36*
X0493Y02829D02*
X049163Y028277D01*
X049031Y028237D01*
X048909Y028172D01*
X048803Y028084D01*
X048715Y027978D01*
X04865Y027856D01*
X04861Y027724D01*
X048597Y027587D01*
X048566Y027553D01*
X046762D01*
X046727Y027619D01*
X046633Y027733D01*
X046519Y027827D01*
X046388Y027896D01*
X046247Y027939D01*
X0461Y027954D01*
X045953Y027939D01*
X045812Y027896D01*
X045681Y027827D01*
X045567Y027733D01*
X045473Y027619D01*
X045404Y027488D01*
X045361Y027347D01*
X045346Y0272D01*
X045361Y027053D01*
X045404Y026912D01*
X045473Y026781D01*
X045567Y026667D01*
X045681Y026573D01*
X045812Y026504D01*
X045953Y026461D01*
X0461Y026446D01*
X046247Y026461D01*
X046388Y026504D01*
X046519Y026573D01*
X046633Y026667D01*
X046727Y026781D01*
X046762Y026847D01*
X048622D01*
X04866Y026818D01*
X048745Y026782D01*
X048837Y02677D01*
X048928Y026782D01*
X049013Y026818D01*
X049086Y026874D01*
X049122Y026909D01*
X049163Y026897D01*
X0493Y026884D01*
X049437Y026897D01*
X049569Y026937D01*
X049691Y027002D01*
X049797Y02709D01*
X049885Y027196D01*
X04995Y027318D01*
X04999Y02745D01*
X050003Y027587D01*
X04999Y027724D01*
X04995Y027856D01*
X049885Y027978D01*
X049797Y028084D01*
X049691Y028172D01*
X049569Y028237D01*
X049437Y028277D01*
X0493Y02829D01*
D02*
G37*
G36*
X0156Y024503D02*
X015483Y024488D01*
X015373Y024442D01*
X01528Y02437D01*
X015208Y024277D01*
X015162Y024167D01*
X015147Y02405D01*
X015162Y023933D01*
X015208Y023823D01*
X01528Y02373D01*
X015373Y023658D01*
X015483Y023612D01*
X0156Y023597D01*
X015717Y023612D01*
X015827Y023658D01*
X01592Y02373D01*
X015992Y023823D01*
X016038Y023933D01*
X016053Y02405D01*
X016038Y024167D01*
X015992Y024277D01*
X01592Y02437D01*
X015827Y024442D01*
X015717Y024488D01*
X0156Y024503D01*
D02*
G37*
G36*
X0221Y023792D02*
Y02345D01*
X022442D01*
X022435Y023503D01*
X022395Y023599D01*
X022332Y023682D01*
X022249Y023745D01*
X022153Y023785D01*
X0221Y023792D01*
D02*
G37*
G36*
X022D02*
X021947Y023785D01*
X021851Y023745D01*
X021768Y023682D01*
X021705Y023599D01*
X021665Y023503D01*
X021658Y02345D01*
X022D01*
Y023792D01*
D02*
G37*
G36*
X01565Y023446D02*
Y0231D01*
X015996D01*
X015989Y023154D01*
X015949Y023251D01*
X015885Y023335D01*
X015801Y023399D01*
X015704Y023439D01*
X01565Y023446D01*
D02*
G37*
G36*
X01555D02*
X015496Y023439D01*
X015399Y023399D01*
X015315Y023335D01*
X015251Y023251D01*
X015211Y023154D01*
X015204Y0231D01*
X01555D01*
Y023446D01*
D02*
G37*
G36*
X022442Y02335D02*
X0221D01*
Y023008D01*
X022153Y023015D01*
X022249Y023055D01*
X022332Y023118D01*
X022395Y023201D01*
X022435Y023297D01*
X022442Y02335D01*
D02*
G37*
G36*
X022D02*
X021658D01*
X021665Y023297D01*
X021705Y023201D01*
X021768Y023118D01*
X021851Y023055D01*
X021947Y023015D01*
X022Y023008D01*
Y02335D01*
D02*
G37*
G36*
X025495Y023845D02*
X024605D01*
Y022955D01*
X025495D01*
Y023845D01*
D02*
G37*
G36*
X02605Y03D02*
X02515D01*
Y029599D01*
X0238Y02825D01*
X023744Y028177D01*
X023709Y028091D01*
X023697Y028D01*
Y023671D01*
X023661Y023625D01*
X023616Y023516D01*
X023601Y0234D01*
X023616Y023284D01*
X023661Y023175D01*
X023732Y023082D01*
X023825Y023011D01*
X023934Y022966D01*
X02405Y022951D01*
X024166Y022966D01*
X024275Y023011D01*
X024368Y023082D01*
X024439Y023175D01*
X024484Y023284D01*
X024499Y0234D01*
X024484Y023516D01*
X024439Y023625D01*
X024403Y023671D01*
Y027854D01*
X025649Y0291D01*
X02605D01*
Y03D01*
D02*
G37*
G36*
X028595Y0231D02*
Y022659D01*
X028944D01*
Y022708D01*
X02893Y022811D01*
X028891Y022907D01*
X028827Y02299D01*
X028745Y023053D01*
X028648Y023093D01*
X028595Y0231D01*
D02*
G37*
G36*
X015996Y023D02*
X01565D01*
Y022654D01*
X015704Y022661D01*
X015801Y022701D01*
X015885Y022765D01*
X015949Y022849D01*
X015989Y022946D01*
X015996Y023D01*
D02*
G37*
G36*
X01555D02*
X015204D01*
X015211Y022946D01*
X015251Y022849D01*
X015315Y022765D01*
X015399Y022701D01*
X015496Y022661D01*
X01555Y022654D01*
Y023D01*
D02*
G37*
G36*
X028944Y022559D02*
X028595D01*
Y022119D01*
X028648Y022126D01*
X028745Y022166D01*
X028827Y022229D01*
X028891Y022312D01*
X02893Y022408D01*
X028944Y022511D01*
Y022559D01*
D02*
G37*
G36*
X0492Y021148D02*
Y02055D01*
X049798D01*
X049791Y020627D01*
X049753Y02075D01*
X049693Y020863D01*
X049612Y020962D01*
X049513Y021043D01*
X0494Y021103D01*
X049277Y021141D01*
X0492Y021148D01*
D02*
G37*
G36*
X0491D02*
X049023Y021141D01*
X0489Y021103D01*
X048787Y021043D01*
X048688Y020962D01*
X048607Y020863D01*
X048547Y02075D01*
X048509Y020627D01*
X048502Y02055D01*
X0491D01*
Y021148D01*
D02*
G37*
G36*
X046Y021654D02*
X045853Y021639D01*
X045712Y021596D01*
X045581Y021527D01*
X045467Y021433D01*
X045373Y021319D01*
X045304Y021188D01*
X045261Y021047D01*
X045246Y0209D01*
X045261Y020753D01*
X045304Y020612D01*
X045373Y020481D01*
X045467Y020367D01*
X045581Y020273D01*
X045712Y020204D01*
X045853Y020161D01*
X046Y020146D01*
X046147Y020161D01*
X046288Y020204D01*
X046419Y020273D01*
X046533Y020367D01*
X046627Y020481D01*
X046696Y020612D01*
X046739Y020753D01*
X046754Y0209D01*
X046739Y021047D01*
X046696Y021188D01*
X046627Y021319D01*
X046533Y021433D01*
X046419Y021527D01*
X046288Y021596D01*
X046147Y021639D01*
X046Y021654D01*
D02*
G37*
G36*
X049798Y02045D02*
X0492D01*
Y019852D01*
X049277Y019859D01*
X0494Y019897D01*
X049513Y019957D01*
X049612Y020038D01*
X049693Y020137D01*
X049753Y02025D01*
X049791Y020373D01*
X049798Y02045D01*
D02*
G37*
G36*
X0491D02*
X048502D01*
X048509Y020373D01*
X048547Y02025D01*
X048607Y020137D01*
X048688Y020038D01*
X048787Y019957D01*
X0489Y019897D01*
X049023Y019859D01*
X0491Y019852D01*
Y02045D01*
D02*
G37*
G36*
X016Y019698D02*
Y0191D01*
X016598D01*
X016591Y019177D01*
X016553Y0193D01*
X016493Y019413D01*
X016412Y019512D01*
X016313Y019593D01*
X0162Y019653D01*
X016077Y019691D01*
X016Y019698D01*
D02*
G37*
G36*
X0159D02*
X015823Y019691D01*
X0157Y019653D01*
X015587Y019593D01*
X015488Y019512D01*
X015407Y019413D01*
X015347Y0193D01*
X015309Y019177D01*
X015302Y0191D01*
X0159D01*
Y019698D01*
D02*
G37*
G36*
X0256Y018892D02*
Y01855D01*
X025942D01*
X025935Y018603D01*
X025895Y018699D01*
X025832Y018782D01*
X025749Y018845D01*
X025653Y018885D01*
X0256Y018892D01*
D02*
G37*
G36*
X0255D02*
X025447Y018885D01*
X025351Y018845D01*
X025268Y018782D01*
X025205Y018699D01*
X025165Y018603D01*
X025158Y01855D01*
X0255D01*
Y018892D01*
D02*
G37*
G36*
X0216Y018758D02*
Y01845D01*
X021942D01*
X021936Y018493D01*
X0219Y018579D01*
X021843Y018654D01*
X021769Y018711D01*
X021682Y018747D01*
X0216Y018758D01*
D02*
G37*
G36*
X0215D02*
X021418Y018747D01*
X021331Y018711D01*
X021257Y018654D01*
X0212Y018579D01*
X021164Y018493D01*
X021158Y01845D01*
X0215D01*
Y018758D01*
D02*
G37*
G36*
X016598Y019D02*
X016D01*
Y018402D01*
X016077Y018409D01*
X0162Y018447D01*
X016313Y018507D01*
X016412Y018588D01*
X016493Y018687D01*
X016553Y0188D01*
X016591Y018923D01*
X016598Y019D01*
D02*
G37*
G36*
X0159D02*
X015302D01*
X015309Y018923D01*
X015347Y0188D01*
X015407Y018687D01*
X015488Y018588D01*
X015587Y018507D01*
X0157Y018447D01*
X015823Y018409D01*
X0159Y018402D01*
Y019D01*
D02*
G37*
G36*
X025942Y01845D02*
X0256D01*
Y018108D01*
X025653Y018115D01*
X025749Y018155D01*
X025832Y018218D01*
X025895Y018301D01*
X025935Y018397D01*
X025942Y01845D01*
D02*
G37*
G36*
X0255D02*
X025158D01*
X025165Y018397D01*
X025205Y018301D01*
X025268Y018218D01*
X025351Y018155D01*
X025447Y018115D01*
X0255Y018108D01*
Y01845D01*
D02*
G37*
G36*
X021942Y01835D02*
X0216D01*
Y018042D01*
X021682Y018053D01*
X021769Y018089D01*
X021843Y018146D01*
X0219Y018221D01*
X021936Y018307D01*
X021942Y01835D01*
D02*
G37*
G36*
X0215D02*
X021158D01*
X021164Y018307D01*
X0212Y018221D01*
X021257Y018146D01*
X021331Y018089D01*
X021418Y018053D01*
X0215Y018042D01*
Y01835D01*
D02*
G37*
G36*
X04915Y019203D02*
X049013Y01919D01*
X048881Y01915D01*
X048759Y019085D01*
X048653Y018997D01*
X048565Y018891D01*
X0485Y018769D01*
X04846Y018637D01*
X048447Y0185D01*
X04846Y018363D01*
X0485Y018231D01*
X048565Y018109D01*
X048653Y018003D01*
X048759Y017915D01*
X048881Y01785D01*
X049013Y01781D01*
X04915Y017797D01*
X049287Y01781D01*
X049419Y01785D01*
X049541Y017915D01*
X049647Y018003D01*
X049735Y018109D01*
X0498Y018231D01*
X04984Y018363D01*
X049853Y0185D01*
X04984Y018637D01*
X0498Y018769D01*
X049735Y018891D01*
X049647Y018997D01*
X049541Y019085D01*
X049419Y01915D01*
X049287Y01919D01*
X04915Y019203D01*
D02*
G37*
G36*
X049176Y017177D02*
X049039Y017164D01*
X048907Y017124D01*
X048785Y017059D01*
X048679Y016971D01*
X048591Y016865D01*
X048526Y016743D01*
X048486Y016611D01*
X048473Y016474D01*
X048454Y016453D01*
X046662D01*
X046627Y016519D01*
X046533Y016633D01*
X046419Y016727D01*
X046288Y016796D01*
X046147Y016839D01*
X046Y016854D01*
X045853Y016839D01*
X045712Y016796D01*
X045581Y016727D01*
X045467Y016633D01*
X045373Y016519D01*
X045304Y016388D01*
X045261Y016247D01*
X045246Y0161D01*
X045261Y015953D01*
X045304Y015812D01*
X045373Y015681D01*
X045467Y015567D01*
X045581Y015473D01*
X045712Y015404D01*
X045853Y015361D01*
X046Y015346D01*
X046147Y015361D01*
X046288Y015404D01*
X046419Y015473D01*
X046533Y015567D01*
X046627Y015681D01*
X046662Y015747D01*
X048331D01*
X04839Y015688D01*
X048463Y015632D01*
X048549Y015597D01*
X04864Y015585D01*
X048731Y015597D01*
X048817Y015632D01*
X04889Y015688D01*
X048998Y015796D01*
X049039Y015784D01*
X049176Y01577D01*
X049313Y015784D01*
X049445Y015824D01*
X049567Y015889D01*
X049674Y015976D01*
X049761Y016083D01*
X049826Y016205D01*
X049866Y016337D01*
X04988Y016474D01*
X049866Y016611D01*
X049826Y016743D01*
X049761Y016865D01*
X049674Y016971D01*
X049567Y017059D01*
X049445Y017124D01*
X049313Y017164D01*
X049176Y017177D01*
D02*
G37*
%LPD*%
G36*
X019797Y04401D02*
X019768Y043967D01*
X019717Y043988D01*
X0196Y044004D01*
X019483Y043988D01*
X019373Y043943D01*
X019279Y043871D01*
X019207Y043777D01*
X019162Y043667D01*
X019146Y04355D01*
X019162Y043433D01*
X019207Y043323D01*
X019279Y043229D01*
X019373Y043157D01*
X019483Y043112D01*
X0196Y043096D01*
X019717Y043112D01*
X019827Y043157D01*
X019852Y043176D01*
X019897Y043154D01*
Y042946D01*
X019852Y042924D01*
X019827Y042943D01*
X019717Y042988D01*
X0196Y043004D01*
X019483Y042988D01*
X019373Y042943D01*
X019279Y042871D01*
X019207Y042777D01*
X019162Y042667D01*
X019146Y04255D01*
X019162Y042433D01*
X019207Y042323D01*
X019279Y042229D01*
X019373Y042157D01*
X019483Y042112D01*
X0196Y042096D01*
X019717Y042112D01*
X019827Y042157D01*
X019852Y042176D01*
X019897Y042154D01*
Y041946D01*
X019852Y041924D01*
X019827Y041943D01*
X019717Y041988D01*
X0196Y042004D01*
X019483Y041988D01*
X019373Y041943D01*
X019279Y041871D01*
X019207Y041777D01*
X019162Y041667D01*
X019146Y04155D01*
X019162Y041433D01*
X019207Y041323D01*
X019279Y041229D01*
X019373Y041157D01*
X019483Y041112D01*
X0196Y041096D01*
X019717Y041112D01*
X019827Y041157D01*
X019852Y041176D01*
X019897Y041154D01*
Y040946D01*
X019852Y040924D01*
X019827Y040943D01*
X019717Y040988D01*
X0196Y041004D01*
X019483Y040988D01*
X019373Y040943D01*
X019279Y040871D01*
X019207Y040777D01*
X019162Y040667D01*
X019146Y04055D01*
X019162Y040433D01*
X019207Y040323D01*
X019279Y040229D01*
X019373Y040157D01*
X019483Y040112D01*
X0196Y040096D01*
X019717Y040112D01*
X019827Y040157D01*
X019852Y040176D01*
X019897Y040154D01*
Y039946D01*
X019852Y039924D01*
X019827Y039943D01*
X019717Y039988D01*
X0196Y040004D01*
X019483Y039988D01*
X019373Y039943D01*
X019279Y039871D01*
X019207Y039777D01*
X019162Y039667D01*
X019146Y03955D01*
X019162Y039433D01*
X019207Y039323D01*
X019279Y039229D01*
X019373Y039157D01*
X019483Y039112D01*
X019579Y039099D01*
X019599Y039048D01*
X019548Y038997D01*
X019483Y038988D01*
X019373Y038943D01*
X019279Y038871D01*
X019207Y038777D01*
X019162Y038667D01*
X019149Y038571D01*
X019098Y038551D01*
X017953Y039696D01*
Y04145D01*
X017941Y041541D01*
X017906Y041627D01*
X01785Y0417D01*
X016046Y043503D01*
X016038Y043567D01*
X015992Y043677D01*
X01592Y04377D01*
X015827Y043842D01*
X015717Y043888D01*
X0156Y043903D01*
X015483Y043888D01*
X015373Y043842D01*
X015349Y043823D01*
X015304Y043845D01*
Y044001D01*
X016049D01*
Y044097D01*
X019709D01*
X019797Y04401D01*
D02*
G37*
G36*
X026746Y04253D02*
X026758Y042438D01*
X026794Y042353D01*
X02685Y04228D01*
X027801Y041329D01*
X027874Y041272D01*
X027959Y041237D01*
X028051Y041225D01*
X029411D01*
X029435Y041206D01*
X029539Y041164D01*
X029631Y041151D01*
X029653Y041102D01*
X027454Y038903D01*
X025879D01*
X025827Y038943D01*
X025717Y038988D01*
X0256Y039004D01*
X025483Y038988D01*
X025373Y038943D01*
X025348Y038924D01*
X025303Y038946D01*
Y039154D01*
X025348Y039176D01*
X025373Y039157D01*
X025483Y039112D01*
X0256Y039096D01*
X025717Y039112D01*
X025827Y039157D01*
X025921Y039229D01*
X025993Y039323D01*
X026038Y039433D01*
X026054Y03955D01*
X026038Y039667D01*
X025993Y039777D01*
X025921Y039871D01*
X025827Y039943D01*
X025717Y039988D01*
X0256Y040004D01*
X025483Y039988D01*
X025373Y039943D01*
X025348Y039924D01*
X025303Y039946D01*
Y040154D01*
X025348Y040176D01*
X025373Y040157D01*
X025483Y040112D01*
X0256Y040096D01*
X025717Y040112D01*
X025827Y040157D01*
X025921Y040229D01*
X025993Y040323D01*
X026038Y040433D01*
X026054Y04055D01*
X026038Y040667D01*
X025993Y040777D01*
X025921Y040871D01*
X025827Y040943D01*
X025717Y040988D01*
X0256Y041004D01*
X025483Y040988D01*
X025373Y040943D01*
X025348Y040924D01*
X025303Y040946D01*
Y041154D01*
X025348Y041176D01*
X025373Y041157D01*
X025483Y041112D01*
X0256Y041096D01*
X025717Y041112D01*
X025827Y041157D01*
X025921Y041229D01*
X025993Y041323D01*
X026038Y041433D01*
X026054Y04155D01*
X026038Y041667D01*
X025993Y041777D01*
X025921Y041871D01*
X025827Y041943D01*
X025717Y041988D01*
X0256Y042004D01*
X025483Y041988D01*
X025373Y041943D01*
X025348Y041924D01*
X025303Y041946D01*
Y042154D01*
X025348Y042176D01*
X025373Y042157D01*
X025483Y042112D01*
X0256Y042096D01*
X025717Y042112D01*
X025827Y042157D01*
X025921Y042229D01*
X025993Y042323D01*
X026038Y042433D01*
X026054Y04255D01*
X026038Y042667D01*
X025993Y042777D01*
X025921Y042871D01*
X025827Y042943D01*
X025717Y042988D01*
X0256Y043004D01*
X025483Y042988D01*
X025373Y042943D01*
X025348Y042924D01*
X025303Y042946D01*
Y043154D01*
X025348Y043176D01*
X025373Y043157D01*
X025483Y043112D01*
X0256Y043096D01*
X025717Y043112D01*
X025827Y043157D01*
X025921Y043229D01*
X025993Y043323D01*
X026038Y043433D01*
X026054Y04355D01*
X026038Y043667D01*
X025993Y043777D01*
X025943Y043842D01*
X025968Y043892D01*
X026746D01*
Y04253D01*
D02*
G37*
G36*
X027587Y044354D02*
Y043654D01*
X027599Y043562D01*
X027634Y043477D01*
X02769Y043404D01*
X029113Y041981D01*
X029093Y041931D01*
X028197D01*
X027452Y042676D01*
Y044129D01*
X02744Y04422D01*
X027405Y044305D01*
X027349Y044379D01*
X027327Y044401D01*
X027346Y044447D01*
X027494D01*
X027587Y044354D01*
D02*
G37*
G36*
X041897Y042225D02*
Y038551D01*
X04185Y038534D01*
X04183Y038558D01*
X041716Y038652D01*
X041585Y038722D01*
X041444Y038765D01*
X041297Y038779D01*
X04115Y038765D01*
X041008Y038722D01*
X040878Y038652D01*
X040764Y038558D01*
X04067Y038444D01*
X040601Y038314D01*
X040558Y038173D01*
X040543Y038026D01*
X040558Y037879D01*
X040574Y037826D01*
X040529Y0378D01*
X04028Y03805D01*
X040207Y038106D01*
X040121Y038141D01*
X04003Y038153D01*
X038839D01*
X03882Y038199D01*
X040291Y03967D01*
X040362Y039649D01*
X040509Y039634D01*
X040656Y039649D01*
X040798Y039692D01*
X040928Y039761D01*
X041042Y039855D01*
X041136Y039969D01*
X041206Y040099D01*
X041249Y040241D01*
X041263Y040388D01*
X041249Y040535D01*
X041227Y040606D01*
X041546Y040926D01*
X041603Y040999D01*
X041638Y041084D01*
X04165Y041175D01*
Y042088D01*
X041716Y042123D01*
X04183Y042217D01*
X04185Y042242D01*
X041897Y042225D01*
D02*
G37*
G36*
X02913Y031231D02*
X029109Y031181D01*
X028818D01*
X027853Y032146D01*
Y032442D01*
X027899Y032462D01*
X02913Y031231D01*
D02*
G37*
G36*
X041897Y031475D02*
Y029896D01*
X041113Y029112D01*
X041076Y029146D01*
X041136Y029219D01*
X041206Y029349D01*
X041249Y029491D01*
X041263Y029638D01*
X041249Y029785D01*
X041227Y029856D01*
X041546Y030176D01*
X041603Y030249D01*
X041638Y030334D01*
X04165Y030425D01*
Y031338D01*
X041716Y031373D01*
X04183Y031467D01*
X04185Y031492D01*
X041897Y031475D01*
D02*
G37*
G36*
X041043Y02904D02*
X040991Y028973D01*
X040956Y028888D01*
X040944Y028797D01*
Y027937D01*
X040878Y027902D01*
X040764Y027808D01*
X04067Y027694D01*
X040601Y027564D01*
X040573Y027473D01*
X040521Y027474D01*
X040293Y028394D01*
Y028878D01*
X040333Y028908D01*
X040362Y028899D01*
X040509Y028884D01*
X040656Y028899D01*
X040798Y028942D01*
X040928Y029011D01*
X041006Y029075D01*
X041043Y02904D01*
D02*
G37*
G36*
X042447Y029382D02*
Y022649D01*
X041415Y021618D01*
X041344Y021639D01*
X041197Y021654D01*
X04105Y021639D01*
X040979Y021618D01*
X040653Y021943D01*
Y026799D01*
X040703Y026817D01*
X040764Y026743D01*
X040878Y026649D01*
X041008Y026579D01*
X04115Y026536D01*
X041297Y026522D01*
X041444Y026536D01*
X041585Y026579D01*
X041716Y026649D01*
X04183Y026743D01*
X041923Y026857D01*
X041993Y026987D01*
X042036Y027129D01*
X04205Y027276D01*
X042036Y027423D01*
X041993Y027564D01*
X041923Y027694D01*
X04183Y027808D01*
X041716Y027902D01*
X04165Y027937D01*
Y028651D01*
X042401Y029402D01*
X042447Y029382D01*
D02*
G37*
G36*
X040121Y017842D02*
X040262Y017799D01*
X040409Y017784D01*
X040556Y017799D01*
X040628Y01782D01*
X041559Y016889D01*
X041529Y016849D01*
X041485Y016872D01*
X041344Y016915D01*
X041197Y016929D01*
X04105Y016915D01*
X040979Y016893D01*
X040048Y017824D01*
X040078Y017865D01*
X040121Y017842D01*
D02*
G37*
D33*
X0371Y0408D02*
D03*
X0376Y0299D02*
D03*
X0371Y019D02*
D03*
D34*
Y0378D02*
D03*
X0376Y0269D02*
D03*
X0371Y016D02*
D03*
D35*
X049274Y040376D02*
D03*
Y042376D02*
D03*
X0493Y03835D02*
D03*
X049274Y029613D02*
D03*
Y031613D02*
D03*
X0493Y027587D02*
D03*
X01595Y01705D02*
D03*
Y01905D02*
D03*
X04915Y0185D02*
D03*
Y0205D02*
D03*
X049176Y016474D02*
D03*
D36*
X02965Y041578D02*
D03*
Y037562D02*
D03*
X0294Y019728D02*
D03*
Y015712D02*
D03*
X033324Y041578D02*
D03*
Y037562D02*
D03*
X033474Y030828D02*
D03*
Y026812D02*
D03*
X02965Y030828D02*
D03*
Y026812D02*
D03*
X033049Y019728D02*
D03*
Y015712D02*
D03*
D37*
X0357Y03355D02*
D03*
Y04425D02*
D03*
X0356Y0226D02*
D03*
D38*
X0347Y03355D02*
D03*
Y04425D02*
D03*
X0346Y0226D02*
D03*
D39*
X02555Y0175D02*
D03*
Y0185D02*
D03*
X02005Y0234D02*
D03*
X02105D02*
D03*
X02205D02*
D03*
X02305D02*
D03*
X02405D02*
D03*
D40*
X02155Y0174D02*
D03*
D41*
Y0184D02*
D03*
D42*
X0156Y02305D02*
D03*
Y02405D02*
D03*
Y02505D02*
D03*
Y04145D02*
D03*
Y04245D02*
D03*
Y04345D02*
D03*
Y029183D02*
D03*
Y030183D02*
D03*
Y031183D02*
D03*
Y035317D02*
D03*
Y036317D02*
D03*
Y037317D02*
D03*
D43*
Y02605D02*
D03*
Y04445D02*
D03*
Y032183D02*
D03*
Y038317D02*
D03*
D44*
X041297Y038026D02*
D03*
Y04275D02*
D03*
X0461Y03795D02*
D03*
Y04275D02*
D03*
X040509Y040388D02*
D03*
X041297Y027276D02*
D03*
Y032D02*
D03*
X0461Y0272D02*
D03*
Y032D02*
D03*
X040509Y029638D02*
D03*
X041197Y016176D02*
D03*
Y0209D02*
D03*
X046Y0161D02*
D03*
Y0209D02*
D03*
X040409Y018538D02*
D03*
D45*
X02505Y0234D02*
D03*
D46*
X0196Y04355D02*
D03*
Y04255D02*
D03*
Y04055D02*
D03*
Y03955D02*
D03*
Y04155D02*
D03*
Y03855D02*
D03*
Y03755D02*
D03*
Y03655D02*
D03*
Y03555D02*
D03*
Y03455D02*
D03*
Y03355D02*
D03*
Y03255D02*
D03*
Y03155D02*
D03*
Y03055D02*
D03*
X0256Y04355D02*
D03*
Y04255D02*
D03*
X0196Y02955D02*
D03*
X0256Y03055D02*
D03*
Y03155D02*
D03*
Y03255D02*
D03*
Y03355D02*
D03*
Y03455D02*
D03*
Y03555D02*
D03*
Y03655D02*
D03*
Y03755D02*
D03*
Y03855D02*
D03*
Y03955D02*
D03*
Y04055D02*
D03*
Y04155D02*
D03*
D47*
Y02955D02*
D03*
D48*
X030455Y022609D02*
D03*
X028545D02*
D03*
X030605Y033556D02*
D03*
X028695D02*
D03*
X030605Y044259D02*
D03*
X028695D02*
D03*
D49*
X0295Y0226D02*
D03*
X02965Y033546D02*
D03*
Y04425D02*
D03*
D50*
X04599Y04566D02*
X045995Y045655D01*
X02155Y01875D02*
Y0229D01*
X041297Y03802D02*
X042D01*
X0357Y03416D02*
Y0344D01*
Y03355D02*
Y03416D01*
X042D01*
X04876Y0272D02*
X048837Y027123D01*
X037922Y0378D02*
X04003D01*
X0196Y03255D02*
X02067Y03148D01*
Y02932D02*
Y03148D01*
X0174Y02605D02*
X02067Y02932D01*
X0156Y02605D02*
X0174D01*
X0144Y02485D02*
X0156Y02605D01*
X0144Y02291D02*
Y02485D01*
Y02291D02*
X016Y02131D01*
X01896D01*
X02105Y0234D01*
X016233Y032183D02*
X0196Y03555D01*
X0156Y032183D02*
X016233D01*
X0156Y02505D02*
X021D01*
X0225Y02655D01*
Y0433D01*
X024Y0448D01*
X02764D01*
X02794Y0445D01*
Y043654D02*
Y0445D01*
Y043654D02*
X02939Y042204D01*
X03D01*
X03028Y041924D01*
Y04123D02*
Y041924D01*
X0276Y03855D02*
X03028Y04123D01*
X0256Y03855D02*
X0276D01*
X028545Y02192D02*
Y022609D01*
Y02192D02*
X030026Y02044D01*
Y019D02*
Y02044D01*
X029526Y0185D02*
X030026Y019D01*
X02555Y0185D02*
X029526D01*
X02155Y0229D02*
X02205Y0234D01*
X02365Y0185D02*
X02555D01*
X02155Y0184D02*
X02365Y0185D01*
X02155Y0184D02*
Y01875D01*
X01595Y01905D02*
X02155Y01875D01*
X038372Y019D02*
X041197Y016176D01*
X0371Y019D02*
X038372D01*
X0461Y03795D02*
X0489D01*
X0493Y03835D01*
X048837Y027123D02*
X0493Y027587D01*
X0461Y0272D02*
X04876D01*
X046Y0161D02*
X048478D01*
X04864Y015938D01*
X049176Y016474D01*
X0191Y0174D02*
X02155D01*
X01595Y01705D02*
X0191Y0174D01*
X02365Y0175D02*
X02555D01*
X02155Y0174D02*
X02365Y0175D01*
X033336Y016D02*
X0371D01*
X033049Y015712D02*
X033336Y016D01*
X041197Y019325D02*
Y0209D01*
X040409Y018538D02*
X041197Y019325D01*
X041297Y041175D02*
Y04275D01*
X040509Y040388D02*
X041297Y041175D01*
X037922Y0378D02*
X040509Y040388D01*
X0371Y0378D02*
X037922D01*
X033561D02*
X0371D01*
X033324Y037562D02*
X033561Y0378D01*
X035628Y0269D02*
X0376D01*
X033474Y026812D02*
X035628Y0269D01*
X03994Y028351D02*
Y029068D01*
Y028351D02*
X0403Y0269D01*
Y021797D02*
Y0269D01*
Y021797D02*
X041197Y0209D01*
X03994Y029068D02*
X040509Y029638D01*
X0376Y0269D02*
X0403D01*
X041297Y030425D02*
Y032D01*
X040509Y029638D02*
X041297Y030425D01*
X018Y02955D02*
X0196D01*
X01385Y0254D02*
X018Y02955D01*
X01385Y01915D02*
Y0254D01*
Y01915D02*
X01595Y01705D01*
X0156Y02305D02*
X0168Y02425D01*
X0212D01*
X02205Y0234D01*
X0145Y04566D02*
X04599D01*
X01385Y04501D02*
X0145Y04566D01*
X01385Y02968D02*
Y04501D01*
Y02968D02*
X015Y02853D01*
X016D01*
X01625Y02878D01*
Y029533D01*
X0156Y030183D02*
X01625Y029533D01*
X028695Y033556D02*
Y038725D01*
X030971Y041D01*
Y0425D01*
X030717Y042754D02*
X030971Y0425D01*
X029722Y042754D02*
X030717D01*
X028695Y04378D02*
X029722Y042754D01*
X028695Y04378D02*
Y044259D01*
X02495Y0342D02*
X0256Y03355D01*
X02495Y0342D02*
Y043945D01*
X02525Y044245D01*
X026983D01*
X027099Y044129D01*
Y04253D02*
Y044129D01*
Y04253D02*
X028051Y041578D01*
X02965D01*
X01495Y030833D02*
X0156Y030183D01*
X01495Y030833D02*
Y03343D01*
X01652Y035D01*
Y035397D01*
X0156Y036317D02*
X01652Y035397D01*
X0144Y04125D02*
X0156Y04245D01*
X0144Y036517D02*
Y04125D01*
Y036517D02*
X0156Y035317D01*
X028545Y022609D02*
Y027698D01*
X030826Y029978D01*
Y03175D01*
X030572Y032004D02*
X030826Y03175D01*
X029735Y032004D02*
X030572D01*
X028695Y033043D02*
X029735Y032004D01*
X028695Y033043D02*
Y033556D01*
Y044259D02*
Y045D01*
X029351Y045655D01*
X045995D01*
X049274Y042376D01*
X01495Y036967D02*
X0156Y036317D01*
X01495Y036967D02*
Y0408D01*
X0156Y04145D01*
X0144Y034117D02*
X0156Y035317D01*
X0144Y030383D02*
Y034117D01*
Y030383D02*
X0156Y029183D01*
X0176Y03955D02*
X0196Y03755D01*
X0176Y03955D02*
Y04145D01*
X0156Y04345D02*
X0176Y04145D01*
X049274Y042376D02*
X0502Y04145D01*
Y032539D02*
Y04145D01*
X049274Y031613D02*
X0502Y032539D01*
X04915Y0205D02*
X0502Y02155D01*
Y030687D01*
X049274Y031613D02*
X0502Y030687D01*
X0196Y03255D02*
X0208Y03375D01*
Y04431D01*
X020011Y045099D02*
X0208Y04431D01*
X014951Y045099D02*
X020011D01*
X014951Y043099D02*
Y045099D01*
Y043099D02*
X0156Y04245D01*
X0196Y03855D02*
X02025Y0392D01*
Y044056D01*
X019856Y04445D02*
X02025Y044056D01*
X0156Y04445D02*
X019856D01*
X02965Y037562D02*
X031521Y039433D01*
Y043159D01*
X031376Y043304D02*
X031521Y043159D01*
X030914Y043304D02*
X031376D01*
X030605Y043613D02*
X030914Y043304D01*
X030605Y043613D02*
Y044259D01*
X028672Y030828D02*
X02965D01*
X0275Y032D02*
X028672Y030828D01*
X0275Y032D02*
Y03265D01*
X0256Y03455D02*
X0275Y03265D01*
X0256Y03555D02*
X02804Y03311D01*
Y03282D02*
Y03311D01*
Y03282D02*
X029406Y031454D01*
X03D01*
X030276Y031178D01*
Y030486D02*
Y031178D01*
X02789Y0281D02*
X030276Y030486D01*
X02789Y021238D02*
Y0281D01*
Y021238D02*
X0294Y019728D01*
X030455Y021107D02*
Y022609D01*
Y021107D02*
X030576Y020986D01*
Y016888D02*
Y020986D01*
X0294Y015712D02*
X030576Y016888D01*
X02965Y026812D02*
X031376Y028538D01*
Y032189D01*
X030605Y03296D02*
X031376Y032189D01*
X030605Y03296D02*
Y033556D01*
X03Y0344D02*
X0357D01*
X02965Y03405D02*
X03Y0344D01*
X02965Y033546D02*
Y03405D01*
X019233Y030183D02*
X0196Y03055D01*
X0156Y030183D02*
X019233D01*
X0346Y02128D02*
Y0226D01*
X033049Y019728D02*
X0346Y02128D01*
X0347Y032055D02*
Y03355D01*
X033474Y030828D02*
X0347Y032055D01*
Y042955D02*
Y04425D01*
X033324Y041578D02*
X0347Y042955D01*
X02555Y0175D02*
X02905Y014D01*
X031336D01*
X033049Y015712D01*
X0295Y0226D02*
Y0232D01*
X02975Y02345D01*
X0356D01*
Y0226D02*
Y02345D01*
X02965Y04425D02*
Y04475D01*
X03Y0451D01*
X0357D01*
Y04425D02*
Y0451D01*
X040409Y018538D02*
X04215Y016797D01*
Y01559D02*
Y016797D01*
X041Y01444D02*
X04215Y01559D01*
X03866Y01444D02*
X041D01*
X0371Y016D02*
X03866Y01444D01*
X04003Y0378D02*
X0428Y03503D01*
Y022503D02*
Y03503D01*
X041197Y0209D02*
X0428Y022503D01*
X041297Y027276D02*
Y028797D01*
X04225Y02975D01*
Y03391D01*
X042Y03416D02*
X04225Y03391D01*
X041297Y03802D02*
Y038026D01*
X042Y03802D02*
X04225Y03827D01*
Y04345D01*
X042Y0437D02*
X04225Y04345D01*
X03625Y0437D02*
X042D01*
X0357Y04425D02*
X03625Y0437D01*
X02305Y0234D02*
Y029D01*
X0246Y03055D01*
X0256D01*
X02405Y0234D02*
Y028D01*
X0256Y02955D01*
X0357Y0318D02*
Y03355D01*
Y0318D02*
X0376Y0299D01*
X0156Y038317D02*
X017367Y03655D01*
X0196D01*
X0356Y0205D02*
Y0226D01*
Y0205D02*
X0371Y019D01*
X0357Y0422D02*
Y04425D01*
Y0422D02*
X0371Y0408D01*
M02*
