G04*
G04 #@! TF.GenerationSoftware,Altium Limited,Altium Designer,23.2.1 (34)*
G04*
G04 Layer_Physical_Order=1*
G04 Layer_Color=255*
%FSTAX24Y24*%
%MOIN*%
G70*
G04*
G04 #@! TF.SameCoordinates,BC3F6091-25B6-48BF-90D5-32B1282762A0*
G04*
G04*
G04 #@! TF.FilePolarity,Positive*
G04*
G01*
G75*
%ADD33C,0.0800*%
%ADD34R,0.0800X0.0800*%
%ADD35C,0.1100*%
%ADD36C,0.0551*%
%ADD37O,0.0650X0.1000*%
%ADD38R,0.0650X0.1000*%
%ADD39C,0.0591*%
%ADD40R,0.0591X0.0512*%
%ADD41O,0.0591X0.0512*%
%ADD42C,0.0598*%
%ADD43R,0.0598X0.0598*%
%ADD44C,0.1200*%
%ADD45R,0.0591X0.0591*%
%ADD46C,0.0600*%
%ADD47R,0.0600X0.0600*%
%ADD48O,0.0591X0.0787*%
%ADD49O,0.0591X0.0787*%
G36*
X05205Y0131D02*
X01255D01*
Y0486D01*
X0126Y04865D01*
X05205D01*
Y0131D01*
D02*
G37*
%LPC*%
G36*
X0357Y044904D02*
X035576Y044888D01*
X03546Y04484D01*
X035361Y044764D01*
X035285Y044665D01*
X035237Y044549D01*
X035225Y044456D01*
X035175Y044459D01*
Y0449D01*
X034225D01*
Y0436D01*
X035175D01*
Y044041D01*
X035225Y044044D01*
X035237Y043951D01*
X035285Y043835D01*
X035361Y043736D01*
X03546Y04366D01*
X035576Y043612D01*
X0357Y043596D01*
X035824Y043612D01*
X03594Y04366D01*
X036039Y043736D01*
X036115Y043835D01*
X036163Y043951D01*
X036179Y044075D01*
Y044425D01*
X036163Y044549D01*
X036115Y044665D01*
X036039Y044764D01*
X03594Y04484D01*
X035824Y044888D01*
X0357Y044904D01*
D02*
G37*
G36*
X028745Y04475D02*
Y044309D01*
X029094D01*
Y044358D01*
X02908Y044461D01*
X029041Y044557D01*
X028977Y04464D01*
X028895Y044703D01*
X028798Y044743D01*
X028745Y04475D01*
D02*
G37*
G36*
X028645D02*
X028592Y044743D01*
X028496Y044703D01*
X028413Y04464D01*
X02835Y044557D01*
X02831Y044461D01*
X028297Y044358D01*
Y044309D01*
X028645D01*
Y04475D01*
D02*
G37*
G36*
X016049Y044899D02*
X015151D01*
Y044001D01*
X016049D01*
Y044899D01*
D02*
G37*
G36*
X029094Y044209D02*
X028745D01*
Y043769D01*
X028798Y043776D01*
X028895Y043816D01*
X028977Y043879D01*
X029041Y043962D01*
X02908Y044058D01*
X029094Y044161D01*
Y044209D01*
D02*
G37*
G36*
X028645D02*
X028297D01*
Y044161D01*
X02831Y044058D01*
X02835Y043962D01*
X028413Y043879D01*
X028496Y043816D01*
X028592Y043776D01*
X028645Y043769D01*
Y044209D01*
D02*
G37*
G36*
X030605Y044807D02*
X030488Y044792D01*
X03038Y044747D01*
X030287Y044675D01*
X030216Y044582D01*
X030171Y044474D01*
X030156Y044358D01*
Y044161D01*
X030171Y044045D01*
X030216Y043936D01*
X030287Y043843D01*
X03038Y043772D01*
X030488Y043727D01*
X030605Y043712D01*
X030721Y043727D01*
X030829Y043772D01*
X030922Y043843D01*
X030994Y043936D01*
X031039Y044045D01*
X031054Y044161D01*
Y044358D01*
X031039Y044474D01*
X030994Y044582D01*
X030922Y044675D01*
X030829Y044747D01*
X030721Y044792D01*
X030605Y044807D01*
D02*
G37*
G36*
X02965Y044798D02*
X029534Y044782D01*
X029425Y044737D01*
X029332Y044666D01*
X029261Y044573D01*
X029216Y044465D01*
X029201Y044348D01*
Y044152D01*
X029216Y044035D01*
X029261Y043927D01*
X029332Y043834D01*
X029425Y043763D01*
X029534Y043718D01*
X02965Y043702D01*
X029766Y043718D01*
X029875Y043763D01*
X029968Y043834D01*
X030039Y043927D01*
X030084Y044035D01*
X030099Y044152D01*
Y044348D01*
X030084Y044465D01*
X030039Y044573D01*
X029968Y044666D01*
X029875Y044737D01*
X029766Y044782D01*
X02965Y044798D01*
D02*
G37*
G36*
X0256Y044004D02*
X025483Y043988D01*
X025373Y043943D01*
X025279Y043871D01*
X025207Y043777D01*
X025162Y043667D01*
X025146Y04355D01*
X025162Y043433D01*
X025207Y043323D01*
X025279Y043229D01*
X025373Y043157D01*
X025483Y043112D01*
X0256Y043096D01*
X025717Y043112D01*
X025827Y043157D01*
X025921Y043229D01*
X025993Y043323D01*
X026038Y043433D01*
X026054Y04355D01*
X026038Y043667D01*
X025993Y043777D01*
X025921Y043871D01*
X025827Y043943D01*
X025717Y043988D01*
X0256Y044004D01*
D02*
G37*
G36*
X0196D02*
X019483Y043988D01*
X019373Y043943D01*
X019279Y043871D01*
X019207Y043777D01*
X019162Y043667D01*
X019146Y04355D01*
X019162Y043433D01*
X019207Y043323D01*
X019279Y043229D01*
X019373Y043157D01*
X019483Y043112D01*
X0196Y043096D01*
X019717Y043112D01*
X019827Y043157D01*
X019921Y043229D01*
X019993Y043323D01*
X020038Y043433D01*
X020054Y04355D01*
X020038Y043667D01*
X019993Y043777D01*
X019921Y043871D01*
X019827Y043943D01*
X019717Y043988D01*
X0196Y044004D01*
D02*
G37*
G36*
X0156Y043903D02*
X015483Y043888D01*
X015373Y043842D01*
X01528Y04377D01*
X015208Y043677D01*
X015162Y043567D01*
X015147Y04345D01*
X015162Y043333D01*
X015208Y043223D01*
X01528Y04313D01*
X015373Y043058D01*
X015483Y043012D01*
X0156Y042997D01*
X015717Y043012D01*
X015827Y043058D01*
X01592Y04313D01*
X015992Y043223D01*
X016038Y043333D01*
X016053Y04345D01*
X016038Y043567D01*
X015992Y043677D01*
X01592Y04377D01*
X015827Y043842D01*
X015717Y043888D01*
X0156Y043903D01*
D02*
G37*
G36*
X049324Y043024D02*
Y042426D01*
X049922D01*
X049914Y042504D01*
X049877Y042626D01*
X049817Y042739D01*
X049736Y042838D01*
X049637Y042919D01*
X049524Y04298D01*
X049401Y043017D01*
X049324Y043024D01*
D02*
G37*
G36*
X049224D02*
X049146Y043017D01*
X049024Y04298D01*
X048911Y042919D01*
X048812Y042838D01*
X048731Y042739D01*
X04867Y042626D01*
X048633Y042504D01*
X048626Y042426D01*
X049224D01*
Y043024D01*
D02*
G37*
G36*
X0256Y043004D02*
X025483Y042988D01*
X025373Y042943D01*
X025279Y042871D01*
X025207Y042777D01*
X025162Y042667D01*
X025146Y04255D01*
X025162Y042433D01*
X025207Y042323D01*
X025279Y042229D01*
X025373Y042157D01*
X025483Y042112D01*
X0256Y042096D01*
X025717Y042112D01*
X025827Y042157D01*
X025921Y042229D01*
X025993Y042323D01*
X026038Y042433D01*
X026054Y04255D01*
X026038Y042667D01*
X025993Y042777D01*
X025921Y042871D01*
X025827Y042943D01*
X025717Y042988D01*
X0256Y043004D01*
D02*
G37*
G36*
X0196D02*
X019483Y042988D01*
X019373Y042943D01*
X019279Y042871D01*
X019207Y042777D01*
X019162Y042667D01*
X019146Y04255D01*
X019162Y042433D01*
X019207Y042323D01*
X019279Y042229D01*
X019373Y042157D01*
X019483Y042112D01*
X0196Y042096D01*
X019717Y042112D01*
X019827Y042157D01*
X019921Y042229D01*
X019993Y042323D01*
X020038Y042433D01*
X020054Y04255D01*
X020038Y042667D01*
X019993Y042777D01*
X019921Y042871D01*
X019827Y042943D01*
X019717Y042988D01*
X0196Y043004D01*
D02*
G37*
G36*
X0156Y042903D02*
X015483Y042888D01*
X015373Y042842D01*
X01528Y04277D01*
X015208Y042677D01*
X015162Y042567D01*
X015147Y04245D01*
X015162Y042333D01*
X015208Y042223D01*
X01528Y04213D01*
X015373Y042058D01*
X015483Y042012D01*
X0156Y041997D01*
X015717Y042012D01*
X015827Y042058D01*
X01592Y04213D01*
X015992Y042223D01*
X016038Y042333D01*
X016053Y04245D01*
X016038Y042567D01*
X015992Y042677D01*
X01592Y04277D01*
X015827Y042842D01*
X015717Y042888D01*
X0156Y042903D01*
D02*
G37*
G36*
X0461Y043504D02*
X045953Y043489D01*
X045812Y043446D01*
X045681Y043377D01*
X045567Y043283D01*
X045473Y043169D01*
X045404Y043038D01*
X045361Y042897D01*
X045346Y04275D01*
X045361Y042603D01*
X045404Y042462D01*
X045473Y042331D01*
X045567Y042217D01*
X045681Y042123D01*
X045812Y042054D01*
X045953Y042011D01*
X0461Y041996D01*
X046247Y042011D01*
X046388Y042054D01*
X046519Y042123D01*
X046633Y042217D01*
X046727Y042331D01*
X046796Y042462D01*
X046839Y042603D01*
X046854Y04275D01*
X046839Y042897D01*
X046796Y043038D01*
X046727Y043169D01*
X046633Y043283D01*
X046519Y043377D01*
X046388Y043446D01*
X046247Y043489D01*
X0461Y043504D01*
D02*
G37*
G36*
X041297D02*
X04115Y043489D01*
X041008Y043446D01*
X040878Y043377D01*
X040764Y043283D01*
X04067Y043169D01*
X040601Y043038D01*
X040558Y042897D01*
X040543Y04275D01*
X040558Y042603D01*
X040601Y042462D01*
X04067Y042331D01*
X040764Y042217D01*
X040878Y042123D01*
X041008Y042054D01*
X04115Y042011D01*
X041297Y041996D01*
X041444Y042011D01*
X041585Y042054D01*
X041716Y042123D01*
X04183Y042217D01*
X041923Y042331D01*
X041993Y042462D01*
X042036Y042603D01*
X04205Y04275D01*
X042036Y042897D01*
X041993Y043038D01*
X041923Y043169D01*
X04183Y043283D01*
X041716Y043377D01*
X041585Y043446D01*
X041444Y043489D01*
X041297Y043504D01*
D02*
G37*
G36*
X049922Y042326D02*
X049324D01*
Y041728D01*
X049401Y041736D01*
X049524Y041773D01*
X049637Y041833D01*
X049736Y041914D01*
X049817Y042013D01*
X049877Y042126D01*
X049914Y042249D01*
X049922Y042326D01*
D02*
G37*
G36*
X049224D02*
X048626D01*
X048633Y042249D01*
X04867Y042126D01*
X048731Y042013D01*
X048812Y041914D01*
X048911Y041833D01*
X049024Y041773D01*
X049146Y041736D01*
X049224Y041728D01*
Y042326D01*
D02*
G37*
G36*
X01565Y041846D02*
Y0415D01*
X015996D01*
X015989Y041554D01*
X015949Y041651D01*
X015885Y041735D01*
X015801Y041799D01*
X015704Y041839D01*
X01565Y041846D01*
D02*
G37*
G36*
X01555D02*
X015496Y041839D01*
X015399Y041799D01*
X015315Y041735D01*
X015251Y041651D01*
X015211Y041554D01*
X015204Y0415D01*
X01555D01*
Y041846D01*
D02*
G37*
G36*
X033324Y042007D02*
X033213Y041993D01*
X033109Y04195D01*
X03302Y041882D01*
X032952Y041793D01*
X032909Y041689D01*
X032894Y041578D01*
X032909Y041467D01*
X032952Y041364D01*
X03302Y041275D01*
X033109Y041206D01*
X033213Y041164D01*
X033324Y041149D01*
X033435Y041164D01*
X033538Y041206D01*
X033627Y041275D01*
X033695Y041364D01*
X033738Y041467D01*
X033753Y041578D01*
X033738Y041689D01*
X033695Y041793D01*
X033627Y041882D01*
X033538Y04195D01*
X033435Y041993D01*
X033324Y042007D01*
D02*
G37*
G36*
X02965D02*
X029539Y041993D01*
X029435Y04195D01*
X029346Y041882D01*
X029278Y041793D01*
X029235Y041689D01*
X029221Y041578D01*
X029235Y041467D01*
X029278Y041364D01*
X029346Y041275D01*
X029435Y041206D01*
X029539Y041164D01*
X02965Y041149D01*
X029761Y041164D01*
X029865Y041206D01*
X029954Y041275D01*
X030022Y041364D01*
X030065Y041467D01*
X030079Y041578D01*
X030065Y041689D01*
X030022Y041793D01*
X029954Y041882D01*
X029865Y04195D01*
X029761Y041993D01*
X02965Y042007D01*
D02*
G37*
G36*
X0256Y042004D02*
X025483Y041988D01*
X025373Y041943D01*
X025279Y041871D01*
X025207Y041777D01*
X025162Y041667D01*
X025146Y04155D01*
X025162Y041433D01*
X025207Y041323D01*
X025279Y041229D01*
X025373Y041157D01*
X025483Y041112D01*
X0256Y041096D01*
X025717Y041112D01*
X025827Y041157D01*
X025921Y041229D01*
X025993Y041323D01*
X026038Y041433D01*
X026054Y04155D01*
X026038Y041667D01*
X025993Y041777D01*
X025921Y041871D01*
X025827Y041943D01*
X025717Y041988D01*
X0256Y042004D01*
D02*
G37*
G36*
X0196D02*
X019483Y041988D01*
X019373Y041943D01*
X019279Y041871D01*
X019207Y041777D01*
X019162Y041667D01*
X019146Y04155D01*
X019162Y041433D01*
X019207Y041323D01*
X019279Y041229D01*
X019373Y041157D01*
X019483Y041112D01*
X0196Y041096D01*
X019717Y041112D01*
X019827Y041157D01*
X019921Y041229D01*
X019993Y041323D01*
X020038Y041433D01*
X020054Y04155D01*
X020038Y041667D01*
X019993Y041777D01*
X019921Y041871D01*
X019827Y041943D01*
X019717Y041988D01*
X0196Y042004D01*
D02*
G37*
G36*
X015996Y0414D02*
X01565D01*
Y041054D01*
X015704Y041061D01*
X015801Y041101D01*
X015885Y041165D01*
X015949Y041249D01*
X015989Y041346D01*
X015996Y0414D01*
D02*
G37*
G36*
X01555D02*
X015204D01*
X015211Y041346D01*
X015251Y041249D01*
X015315Y041165D01*
X015399Y041101D01*
X015496Y041061D01*
X01555Y041054D01*
Y0414D01*
D02*
G37*
G36*
X0371Y041355D02*
X036956Y041336D01*
X036823Y04128D01*
X036708Y041192D01*
X03662Y041077D01*
X036564Y040944D01*
X036545Y0408D01*
X036564Y040656D01*
X03662Y040523D01*
X036708Y040408D01*
X036823Y04032D01*
X036956Y040264D01*
X0371Y040245D01*
X037244Y040264D01*
X037377Y04032D01*
X037492Y040408D01*
X03758Y040523D01*
X037636Y040656D01*
X037655Y0408D01*
X037636Y040944D01*
X03758Y041077D01*
X037492Y041192D01*
X037377Y04128D01*
X037244Y041336D01*
X0371Y041355D01*
D02*
G37*
G36*
X0256Y041004D02*
X025483Y040988D01*
X025373Y040943D01*
X025279Y040871D01*
X025207Y040777D01*
X025162Y040667D01*
X025146Y04055D01*
X025162Y040433D01*
X025207Y040323D01*
X025279Y040229D01*
X025373Y040157D01*
X025483Y040112D01*
X0256Y040096D01*
X025717Y040112D01*
X025827Y040157D01*
X025921Y040229D01*
X025993Y040323D01*
X026038Y040433D01*
X026054Y04055D01*
X026038Y040667D01*
X025993Y040777D01*
X025921Y040871D01*
X025827Y040943D01*
X025717Y040988D01*
X0256Y041004D01*
D02*
G37*
G36*
X0196D02*
X019483Y040988D01*
X019373Y040943D01*
X019279Y040871D01*
X019207Y040777D01*
X019162Y040667D01*
X019146Y04055D01*
X019162Y040433D01*
X019207Y040323D01*
X019279Y040229D01*
X019373Y040157D01*
X019483Y040112D01*
X0196Y040096D01*
X019717Y040112D01*
X019827Y040157D01*
X019921Y040229D01*
X019993Y040323D01*
X020038Y040433D01*
X020054Y04055D01*
X020038Y040667D01*
X019993Y040777D01*
X019921Y040871D01*
X019827Y040943D01*
X019717Y040988D01*
X0196Y041004D01*
D02*
G37*
G36*
X049274Y04108D02*
X049137Y041066D01*
X049005Y041026D01*
X048883Y040961D01*
X048776Y040874D01*
X048689Y040767D01*
X048624Y040645D01*
X048584Y040513D01*
X04857Y040376D01*
X048584Y040239D01*
X048624Y040107D01*
X048689Y039985D01*
X048776Y039879D01*
X048883Y039791D01*
X049005Y039726D01*
X049137Y039686D01*
X049274Y039673D01*
X049411Y039686D01*
X049543Y039726D01*
X049665Y039791D01*
X049771Y039879D01*
X049859Y039985D01*
X049924Y040107D01*
X049964Y040239D01*
X049977Y040376D01*
X049964Y040513D01*
X049924Y040645D01*
X049859Y040767D01*
X049771Y040874D01*
X049665Y040961D01*
X049543Y041026D01*
X049411Y041066D01*
X049274Y04108D01*
D02*
G37*
G36*
X040509Y041141D02*
X040362Y041127D01*
X040221Y041084D01*
X040091Y041014D01*
X039977Y040921D01*
X039883Y040806D01*
X039813Y040676D01*
X03977Y040535D01*
X039756Y040388D01*
X03977Y040241D01*
X039813Y040099D01*
X039883Y039969D01*
X039977Y039855D01*
X040091Y039761D01*
X040221Y039692D01*
X040362Y039649D01*
X040509Y039634D01*
X040656Y039649D01*
X040798Y039692D01*
X040928Y039761D01*
X041042Y039855D01*
X041136Y039969D01*
X041206Y040099D01*
X041249Y040241D01*
X041263Y040388D01*
X041249Y040535D01*
X041206Y040676D01*
X041136Y040806D01*
X041042Y040921D01*
X040928Y041014D01*
X040798Y041084D01*
X040656Y041127D01*
X040509Y041141D01*
D02*
G37*
G36*
X0256Y040004D02*
X025483Y039988D01*
X025373Y039943D01*
X025279Y039871D01*
X025207Y039777D01*
X025162Y039667D01*
X025146Y03955D01*
X025162Y039433D01*
X025207Y039323D01*
X025279Y039229D01*
X025373Y039157D01*
X025483Y039112D01*
X0256Y039096D01*
X025717Y039112D01*
X025827Y039157D01*
X025921Y039229D01*
X025993Y039323D01*
X026038Y039433D01*
X026054Y03955D01*
X026038Y039667D01*
X025993Y039777D01*
X025921Y039871D01*
X025827Y039943D01*
X025717Y039988D01*
X0256Y040004D01*
D02*
G37*
G36*
X0196D02*
X019483Y039988D01*
X019373Y039943D01*
X019279Y039871D01*
X019207Y039777D01*
X019162Y039667D01*
X019146Y03955D01*
X019162Y039433D01*
X019207Y039323D01*
X019279Y039229D01*
X019373Y039157D01*
X019483Y039112D01*
X0196Y039096D01*
X019717Y039112D01*
X019827Y039157D01*
X019921Y039229D01*
X019993Y039323D01*
X020038Y039433D01*
X020054Y03955D01*
X020038Y039667D01*
X019993Y039777D01*
X019921Y039871D01*
X019827Y039943D01*
X019717Y039988D01*
X0196Y040004D01*
D02*
G37*
G36*
X0256Y039004D02*
X025483Y038988D01*
X025373Y038943D01*
X025279Y038871D01*
X025207Y038777D01*
X025162Y038667D01*
X025146Y03855D01*
X025162Y038433D01*
X025207Y038323D01*
X025279Y038229D01*
X025373Y038157D01*
X025483Y038112D01*
X0256Y038096D01*
X025717Y038112D01*
X025827Y038157D01*
X025921Y038229D01*
X025993Y038323D01*
X026038Y038433D01*
X026054Y03855D01*
X026038Y038667D01*
X025993Y038777D01*
X025921Y038871D01*
X025827Y038943D01*
X025717Y038988D01*
X0256Y039004D01*
D02*
G37*
G36*
X0196D02*
X019483Y038988D01*
X019373Y038943D01*
X019279Y038871D01*
X019207Y038777D01*
X019162Y038667D01*
X019146Y03855D01*
X019162Y038433D01*
X019207Y038323D01*
X019279Y038229D01*
X019373Y038157D01*
X019483Y038112D01*
X0196Y038096D01*
X019717Y038112D01*
X019827Y038157D01*
X019921Y038229D01*
X019993Y038323D01*
X020038Y038433D01*
X020054Y03855D01*
X020038Y038667D01*
X019993Y038777D01*
X019921Y038871D01*
X019827Y038943D01*
X019717Y038988D01*
X0196Y039004D01*
D02*
G37*
G36*
X016049Y038766D02*
X015151D01*
Y037867D01*
X016049D01*
Y038766D01*
D02*
G37*
G36*
X0493Y039053D02*
X049163Y03904D01*
X049031Y039D01*
X048909Y038935D01*
X048803Y038847D01*
X048715Y038741D01*
X04865Y038619D01*
X04861Y038487D01*
X048597Y03835D01*
X04861Y038213D01*
X04865Y038081D01*
X048715Y037959D01*
X048803Y037853D01*
X048909Y037765D01*
X049031Y0377D01*
X049163Y03766D01*
X0493Y037647D01*
X049437Y03766D01*
X049569Y0377D01*
X049691Y037765D01*
X049797Y037853D01*
X049885Y037959D01*
X04995Y038081D01*
X04999Y038213D01*
X050003Y03835D01*
X04999Y038487D01*
X04995Y038619D01*
X049885Y038741D01*
X049797Y038847D01*
X049691Y038935D01*
X049569Y039D01*
X049437Y03904D01*
X0493Y039053D01*
D02*
G37*
G36*
X041297Y038779D02*
X04115Y038765D01*
X041008Y038722D01*
X040878Y038652D01*
X040764Y038558D01*
X04067Y038444D01*
X040601Y038314D01*
X040558Y038173D01*
X040543Y038026D01*
X040558Y037879D01*
X040601Y037737D01*
X04067Y037607D01*
X040764Y037493D01*
X040878Y037399D01*
X041008Y037329D01*
X04115Y037286D01*
X041297Y037272D01*
X041444Y037286D01*
X041585Y037329D01*
X041716Y037399D01*
X04183Y037493D01*
X041923Y037607D01*
X041993Y037737D01*
X042036Y037879D01*
X04205Y038026D01*
X042036Y038173D01*
X041993Y038314D01*
X041923Y038444D01*
X04183Y038558D01*
X041716Y038652D01*
X041585Y038722D01*
X041444Y038765D01*
X041297Y038779D01*
D02*
G37*
G36*
X03765Y03835D02*
X03655D01*
Y03725D01*
X03765D01*
Y03835D01*
D02*
G37*
G36*
X0461Y038704D02*
X045953Y038689D01*
X045812Y038646D01*
X045681Y038577D01*
X045567Y038483D01*
X045473Y038369D01*
X045404Y038238D01*
X045361Y038097D01*
X045346Y03795D01*
X045361Y037803D01*
X045404Y037662D01*
X045473Y037531D01*
X045567Y037417D01*
X045681Y037323D01*
X045812Y037254D01*
X045953Y037211D01*
X0461Y037196D01*
X046247Y037211D01*
X046388Y037254D01*
X046519Y037323D01*
X046633Y037417D01*
X046727Y037531D01*
X046796Y037662D01*
X046839Y037803D01*
X046854Y03795D01*
X046839Y038097D01*
X046796Y038238D01*
X046727Y038369D01*
X046633Y038483D01*
X046519Y038577D01*
X046388Y038646D01*
X046247Y038689D01*
X0461Y038704D01*
D02*
G37*
G36*
X033324Y037992D02*
X033213Y037977D01*
X033109Y037934D01*
X03302Y037866D01*
X032952Y037777D01*
X032909Y037673D01*
X032894Y037562D01*
X032909Y037451D01*
X032952Y037348D01*
X03302Y037259D01*
X033109Y037191D01*
X033213Y037148D01*
X033324Y037133D01*
X033435Y037148D01*
X033538Y037191D01*
X033627Y037259D01*
X033695Y037348D01*
X033738Y037451D01*
X033753Y037562D01*
X033738Y037673D01*
X033695Y037777D01*
X033627Y037866D01*
X033538Y037934D01*
X033435Y037977D01*
X033324Y037992D01*
D02*
G37*
G36*
X02965D02*
X029539Y037977D01*
X029435Y037934D01*
X029346Y037866D01*
X029278Y037777D01*
X029235Y037673D01*
X029221Y037562D01*
X029235Y037451D01*
X029278Y037348D01*
X029346Y037259D01*
X029435Y037191D01*
X029539Y037148D01*
X02965Y037133D01*
X029761Y037148D01*
X029865Y037191D01*
X029954Y037259D01*
X030022Y037348D01*
X030065Y037451D01*
X030079Y037562D01*
X030065Y037673D01*
X030022Y037777D01*
X029954Y037866D01*
X029865Y037934D01*
X029761Y037977D01*
X02965Y037992D01*
D02*
G37*
G36*
X0256Y038004D02*
X025483Y037988D01*
X025373Y037943D01*
X025279Y037871D01*
X025207Y037777D01*
X025162Y037667D01*
X025146Y03755D01*
X025162Y037433D01*
X025207Y037323D01*
X025279Y037229D01*
X025373Y037157D01*
X025483Y037112D01*
X0256Y037096D01*
X025717Y037112D01*
X025827Y037157D01*
X025921Y037229D01*
X025993Y037323D01*
X026038Y037433D01*
X026054Y03755D01*
X026038Y037667D01*
X025993Y037777D01*
X025921Y037871D01*
X025827Y037943D01*
X025717Y037988D01*
X0256Y038004D01*
D02*
G37*
G36*
X0196D02*
X019483Y037988D01*
X019373Y037943D01*
X019279Y037871D01*
X019207Y037777D01*
X019162Y037667D01*
X019146Y03755D01*
X019162Y037433D01*
X019207Y037323D01*
X019279Y037229D01*
X019373Y037157D01*
X019483Y037112D01*
X0196Y037096D01*
X019717Y037112D01*
X019827Y037157D01*
X019921Y037229D01*
X019993Y037323D01*
X020038Y037433D01*
X020054Y03755D01*
X020038Y037667D01*
X019993Y037777D01*
X019921Y037871D01*
X019827Y037943D01*
X019717Y037988D01*
X0196Y038004D01*
D02*
G37*
G36*
X0156Y03777D02*
X015483Y037754D01*
X015373Y037709D01*
X01528Y037637D01*
X015208Y037543D01*
X015162Y037434D01*
X015147Y037317D01*
X015162Y037199D01*
X015208Y03709D01*
X01528Y036996D01*
X015373Y036924D01*
X015483Y036879D01*
X0156Y036864D01*
X015717Y036879D01*
X015827Y036924D01*
X01592Y036996D01*
X015992Y03709D01*
X016038Y037199D01*
X016053Y037317D01*
X016038Y037434D01*
X015992Y037543D01*
X01592Y037637D01*
X015827Y037709D01*
X015717Y037754D01*
X0156Y03777D01*
D02*
G37*
G36*
X01565Y036713D02*
Y036367D01*
X015996D01*
X015989Y036421D01*
X015949Y036518D01*
X015885Y036601D01*
X015801Y036665D01*
X015704Y036706D01*
X01565Y036713D01*
D02*
G37*
G36*
X01555D02*
X015496Y036706D01*
X015399Y036665D01*
X015315Y036601D01*
X015251Y036518D01*
X015211Y036421D01*
X015204Y036367D01*
X01555D01*
Y036713D01*
D02*
G37*
G36*
X0256Y037004D02*
X025483Y036988D01*
X025373Y036943D01*
X025279Y036871D01*
X025207Y036777D01*
X025162Y036667D01*
X025146Y03655D01*
X025162Y036433D01*
X025207Y036323D01*
X025279Y036229D01*
X025373Y036157D01*
X025483Y036112D01*
X0256Y036096D01*
X025717Y036112D01*
X025827Y036157D01*
X025921Y036229D01*
X025993Y036323D01*
X026038Y036433D01*
X026054Y03655D01*
X026038Y036667D01*
X025993Y036777D01*
X025921Y036871D01*
X025827Y036943D01*
X025717Y036988D01*
X0256Y037004D01*
D02*
G37*
G36*
X0196D02*
X019483Y036988D01*
X019373Y036943D01*
X019279Y036871D01*
X019207Y036777D01*
X019162Y036667D01*
X019146Y03655D01*
X019162Y036433D01*
X019207Y036323D01*
X019279Y036229D01*
X019373Y036157D01*
X019483Y036112D01*
X0196Y036096D01*
X019717Y036112D01*
X019827Y036157D01*
X019921Y036229D01*
X019993Y036323D01*
X020038Y036433D01*
X020054Y03655D01*
X020038Y036667D01*
X019993Y036777D01*
X019921Y036871D01*
X019827Y036943D01*
X019717Y036988D01*
X0196Y037004D01*
D02*
G37*
G36*
X015996Y036267D02*
X01565D01*
Y035921D01*
X015704Y035928D01*
X015801Y035968D01*
X015885Y036032D01*
X015949Y036115D01*
X015989Y036212D01*
X015996Y036267D01*
D02*
G37*
G36*
X01555D02*
X015204D01*
X015211Y036212D01*
X015251Y036115D01*
X015315Y036032D01*
X015399Y035968D01*
X015496Y035928D01*
X01555Y035921D01*
Y036267D01*
D02*
G37*
G36*
X0256Y036004D02*
X025483Y035988D01*
X025373Y035943D01*
X025279Y035871D01*
X025207Y035777D01*
X025162Y035667D01*
X025146Y03555D01*
X025162Y035433D01*
X025207Y035323D01*
X025279Y035229D01*
X025373Y035157D01*
X025483Y035112D01*
X0256Y035096D01*
X025717Y035112D01*
X025827Y035157D01*
X025921Y035229D01*
X025993Y035323D01*
X026038Y035433D01*
X026054Y03555D01*
X026038Y035667D01*
X025993Y035777D01*
X025921Y035871D01*
X025827Y035943D01*
X025717Y035988D01*
X0256Y036004D01*
D02*
G37*
G36*
X0196D02*
X019483Y035988D01*
X019373Y035943D01*
X019279Y035871D01*
X019207Y035777D01*
X019162Y035667D01*
X019146Y03555D01*
X019162Y035433D01*
X019207Y035323D01*
X019279Y035229D01*
X019373Y035157D01*
X019483Y035112D01*
X0196Y035096D01*
X019717Y035112D01*
X019827Y035157D01*
X019921Y035229D01*
X019993Y035323D01*
X020038Y035433D01*
X020054Y03555D01*
X020038Y035667D01*
X019993Y035777D01*
X019921Y035871D01*
X019827Y035943D01*
X019717Y035988D01*
X0196Y036004D01*
D02*
G37*
G36*
X0156Y03577D02*
X015483Y035754D01*
X015373Y035709D01*
X01528Y035637D01*
X015208Y035543D01*
X015162Y035434D01*
X015147Y035317D01*
X015162Y035199D01*
X015208Y03509D01*
X01528Y034996D01*
X015373Y034924D01*
X015483Y034879D01*
X0156Y034864D01*
X015717Y034879D01*
X015827Y034924D01*
X01592Y034996D01*
X015992Y03509D01*
X016038Y035199D01*
X016053Y035317D01*
X016038Y035434D01*
X015992Y035543D01*
X01592Y035637D01*
X015827Y035709D01*
X015717Y035754D01*
X0156Y03577D01*
D02*
G37*
G36*
X0256Y035004D02*
X025483Y034988D01*
X025373Y034943D01*
X025279Y034871D01*
X025207Y034777D01*
X025162Y034667D01*
X025146Y03455D01*
X025162Y034433D01*
X025207Y034323D01*
X025279Y034229D01*
X025373Y034157D01*
X025483Y034112D01*
X0256Y034096D01*
X025717Y034112D01*
X025827Y034157D01*
X025921Y034229D01*
X025993Y034323D01*
X026038Y034433D01*
X026054Y03455D01*
X026038Y034667D01*
X025993Y034777D01*
X025921Y034871D01*
X025827Y034943D01*
X025717Y034988D01*
X0256Y035004D01*
D02*
G37*
G36*
X0196D02*
X019483Y034988D01*
X019373Y034943D01*
X019279Y034871D01*
X019207Y034777D01*
X019162Y034667D01*
X019146Y03455D01*
X019162Y034433D01*
X019207Y034323D01*
X019279Y034229D01*
X019373Y034157D01*
X019483Y034112D01*
X0196Y034096D01*
X019717Y034112D01*
X019827Y034157D01*
X019921Y034229D01*
X019993Y034323D01*
X020038Y034433D01*
X020054Y03455D01*
X020038Y034667D01*
X019993Y034777D01*
X019921Y034871D01*
X019827Y034943D01*
X019717Y034988D01*
X0196Y035004D01*
D02*
G37*
G36*
X0357Y034204D02*
X035576Y034188D01*
X03546Y03414D01*
X035361Y034064D01*
X035285Y033965D01*
X035237Y033849D01*
X035225Y033756D01*
X035175Y033759D01*
Y0342D01*
X034225D01*
Y0329D01*
X035175D01*
Y033341D01*
X035225Y033344D01*
X035237Y033251D01*
X035285Y033135D01*
X035361Y033036D01*
X03546Y03296D01*
X035576Y032912D01*
X0357Y032896D01*
X035824Y032912D01*
X03594Y03296D01*
X036039Y033036D01*
X036115Y033135D01*
X036163Y033251D01*
X036179Y033375D01*
Y033725D01*
X036163Y033849D01*
X036115Y033965D01*
X036039Y034064D01*
X03594Y03414D01*
X035824Y034188D01*
X0357Y034204D01*
D02*
G37*
G36*
X028745Y034046D02*
Y033606D01*
X029094D01*
Y033654D01*
X02908Y033757D01*
X029041Y033854D01*
X028977Y033936D01*
X028895Y034D01*
X028798Y034039D01*
X028745Y034046D01*
D02*
G37*
G36*
X028645D02*
X028592Y034039D01*
X028496Y034D01*
X028413Y033936D01*
X02835Y033854D01*
X02831Y033757D01*
X028297Y033654D01*
Y033606D01*
X028645D01*
Y034046D01*
D02*
G37*
G36*
X0256Y034004D02*
X025483Y033988D01*
X025373Y033943D01*
X025279Y033871D01*
X025207Y033777D01*
X025162Y033667D01*
X025146Y03355D01*
X025162Y033433D01*
X025207Y033323D01*
X025279Y033229D01*
X025373Y033157D01*
X025483Y033112D01*
X0256Y033096D01*
X025717Y033112D01*
X025827Y033157D01*
X025921Y033229D01*
X025993Y033323D01*
X026038Y033433D01*
X026054Y03355D01*
X026038Y033667D01*
X025993Y033777D01*
X025921Y033871D01*
X025827Y033943D01*
X025717Y033988D01*
X0256Y034004D01*
D02*
G37*
G36*
X0196D02*
X019483Y033988D01*
X019373Y033943D01*
X019279Y033871D01*
X019207Y033777D01*
X019162Y033667D01*
X019146Y03355D01*
X019162Y033433D01*
X019207Y033323D01*
X019279Y033229D01*
X019373Y033157D01*
X019483Y033112D01*
X0196Y033096D01*
X019717Y033112D01*
X019827Y033157D01*
X019921Y033229D01*
X019993Y033323D01*
X020038Y033433D01*
X020054Y03355D01*
X020038Y033667D01*
X019993Y033777D01*
X019921Y033871D01*
X019827Y033943D01*
X019717Y033988D01*
X0196Y034004D01*
D02*
G37*
G36*
X029094Y033506D02*
X028745D01*
Y033065D01*
X028798Y033072D01*
X028895Y033112D01*
X028977Y033176D01*
X029041Y033258D01*
X02908Y033354D01*
X029094Y033457D01*
Y033506D01*
D02*
G37*
G36*
X028645D02*
X028297D01*
Y033457D01*
X02831Y033354D01*
X02835Y033258D01*
X028413Y033176D01*
X028496Y033112D01*
X028592Y033072D01*
X028645Y033065D01*
Y033506D01*
D02*
G37*
G36*
X030605Y034103D02*
X030488Y034088D01*
X03038Y034043D01*
X030287Y033972D01*
X030216Y033879D01*
X030171Y033771D01*
X030156Y033654D01*
Y033457D01*
X030171Y033341D01*
X030216Y033233D01*
X030287Y03314D01*
X03038Y033069D01*
X030488Y033024D01*
X030605Y033008D01*
X030721Y033024D01*
X030829Y033069D01*
X030922Y03314D01*
X030994Y033233D01*
X031039Y033341D01*
X031054Y033457D01*
Y033654D01*
X031039Y033771D01*
X030994Y033879D01*
X030922Y033972D01*
X030829Y034043D01*
X030721Y034088D01*
X030605Y034103D01*
D02*
G37*
G36*
X02965Y034094D02*
X029534Y034079D01*
X029425Y034034D01*
X029332Y033962D01*
X029261Y033869D01*
X029216Y033761D01*
X029201Y033645D01*
Y033448D01*
X029216Y033332D01*
X029261Y033224D01*
X029332Y03313D01*
X029425Y033059D01*
X029534Y033014D01*
X02965Y032999D01*
X029766Y033014D01*
X029875Y033059D01*
X029968Y03313D01*
X030039Y033224D01*
X030084Y033332D01*
X030099Y033448D01*
Y033645D01*
X030084Y033761D01*
X030039Y033869D01*
X029968Y033962D01*
X029875Y034034D01*
X029766Y034079D01*
X02965Y034094D01*
D02*
G37*
G36*
X0256Y033004D02*
X025483Y032988D01*
X025373Y032943D01*
X025279Y032871D01*
X025207Y032777D01*
X025162Y032667D01*
X025146Y03255D01*
X025162Y032433D01*
X025207Y032323D01*
X025279Y032229D01*
X025373Y032157D01*
X025483Y032112D01*
X0256Y032096D01*
X025717Y032112D01*
X025827Y032157D01*
X025921Y032229D01*
X025993Y032323D01*
X026038Y032433D01*
X026054Y03255D01*
X026038Y032667D01*
X025993Y032777D01*
X025921Y032871D01*
X025827Y032943D01*
X025717Y032988D01*
X0256Y033004D01*
D02*
G37*
G36*
X0196D02*
X019483Y032988D01*
X019373Y032943D01*
X019279Y032871D01*
X019207Y032777D01*
X019162Y032667D01*
X019146Y03255D01*
X019162Y032433D01*
X019207Y032323D01*
X019279Y032229D01*
X019373Y032157D01*
X019483Y032112D01*
X0196Y032096D01*
X019717Y032112D01*
X019827Y032157D01*
X019921Y032229D01*
X019993Y032323D01*
X020038Y032433D01*
X020054Y03255D01*
X020038Y032667D01*
X019993Y032777D01*
X019921Y032871D01*
X019827Y032943D01*
X019717Y032988D01*
X0196Y033004D01*
D02*
G37*
G36*
X016049Y032633D02*
X015151D01*
Y031734D01*
X016049D01*
Y032633D01*
D02*
G37*
G36*
X049324Y032261D02*
Y031663D01*
X049922D01*
X049914Y031741D01*
X049877Y031863D01*
X049817Y031976D01*
X049736Y032075D01*
X049637Y032156D01*
X049524Y032217D01*
X049401Y032254D01*
X049324Y032261D01*
D02*
G37*
G36*
X049224D02*
X049146Y032254D01*
X049024Y032217D01*
X048911Y032156D01*
X048812Y032075D01*
X048731Y031976D01*
X04867Y031863D01*
X048633Y031741D01*
X048626Y031663D01*
X049224D01*
Y032261D01*
D02*
G37*
G36*
X0461Y032754D02*
X045953Y032739D01*
X045812Y032696D01*
X045681Y032627D01*
X045567Y032533D01*
X045473Y032419D01*
X045404Y032288D01*
X045361Y032147D01*
X045346Y032D01*
X045361Y031853D01*
X045404Y031712D01*
X045473Y031581D01*
X045567Y031467D01*
X045681Y031373D01*
X045812Y031304D01*
X045953Y031261D01*
X0461Y031246D01*
X046247Y031261D01*
X046388Y031304D01*
X046519Y031373D01*
X046633Y031467D01*
X046727Y031581D01*
X046796Y031712D01*
X046839Y031853D01*
X046854Y032D01*
X046839Y032147D01*
X046796Y032288D01*
X046727Y032419D01*
X046633Y032533D01*
X046519Y032627D01*
X046388Y032696D01*
X046247Y032739D01*
X0461Y032754D01*
D02*
G37*
G36*
X041297D02*
X04115Y032739D01*
X041008Y032696D01*
X040878Y032627D01*
X040764Y032533D01*
X04067Y032419D01*
X040601Y032288D01*
X040558Y032147D01*
X040543Y032D01*
X040558Y031853D01*
X040601Y031712D01*
X04067Y031581D01*
X040764Y031467D01*
X040878Y031373D01*
X041008Y031304D01*
X04115Y031261D01*
X041297Y031246D01*
X041444Y031261D01*
X041585Y031304D01*
X041716Y031373D01*
X04183Y031467D01*
X041923Y031581D01*
X041993Y031712D01*
X042036Y031853D01*
X04205Y032D01*
X042036Y032147D01*
X041993Y032288D01*
X041923Y032419D01*
X04183Y032533D01*
X041716Y032627D01*
X041585Y032696D01*
X041444Y032739D01*
X041297Y032754D01*
D02*
G37*
G36*
X0256Y032004D02*
X025483Y031988D01*
X025373Y031943D01*
X025279Y031871D01*
X025207Y031777D01*
X025162Y031667D01*
X025146Y03155D01*
X025162Y031433D01*
X025207Y031323D01*
X025279Y031229D01*
X025373Y031157D01*
X025483Y031112D01*
X0256Y031096D01*
X025717Y031112D01*
X025827Y031157D01*
X025921Y031229D01*
X025993Y031323D01*
X026038Y031433D01*
X026054Y03155D01*
X026038Y031667D01*
X025993Y031777D01*
X025921Y031871D01*
X025827Y031943D01*
X025717Y031988D01*
X0256Y032004D01*
D02*
G37*
G36*
X0196D02*
X019483Y031988D01*
X019373Y031943D01*
X019279Y031871D01*
X019207Y031777D01*
X019162Y031667D01*
X019146Y03155D01*
X019162Y031433D01*
X019207Y031323D01*
X019279Y031229D01*
X019373Y031157D01*
X019483Y031112D01*
X0196Y031096D01*
X019717Y031112D01*
X019827Y031157D01*
X019921Y031229D01*
X019993Y031323D01*
X020038Y031433D01*
X020054Y03155D01*
X020038Y031667D01*
X019993Y031777D01*
X019921Y031871D01*
X019827Y031943D01*
X019717Y031988D01*
X0196Y032004D01*
D02*
G37*
G36*
X049922Y031563D02*
X049324D01*
Y030965D01*
X049401Y030973D01*
X049524Y03101D01*
X049637Y03107D01*
X049736Y031151D01*
X049817Y03125D01*
X049877Y031363D01*
X049914Y031486D01*
X049922Y031563D01*
D02*
G37*
G36*
X049224D02*
X048626D01*
X048633Y031486D01*
X04867Y031363D01*
X048731Y03125D01*
X048812Y031151D01*
X048911Y03107D01*
X049024Y03101D01*
X049146Y030973D01*
X049224Y030965D01*
Y031563D01*
D02*
G37*
G36*
X0156Y031636D02*
X015483Y031621D01*
X015373Y031576D01*
X01528Y031504D01*
X015208Y03141D01*
X015162Y031301D01*
X015147Y031183D01*
X015162Y031066D01*
X015208Y030957D01*
X01528Y030863D01*
X015373Y030791D01*
X015483Y030746D01*
X0156Y03073D01*
X015717Y030746D01*
X015827Y030791D01*
X01592Y030863D01*
X015992Y030957D01*
X016038Y031066D01*
X016053Y031183D01*
X016038Y031301D01*
X015992Y03141D01*
X01592Y031504D01*
X015827Y031576D01*
X015717Y031621D01*
X0156Y031636D01*
D02*
G37*
G36*
X01965Y030947D02*
Y0306D01*
X019997D01*
X01999Y030654D01*
X019949Y030752D01*
X019885Y030835D01*
X019802Y030899D01*
X019704Y03094D01*
X01965Y030947D01*
D02*
G37*
G36*
X01955D02*
X019496Y03094D01*
X019398Y030899D01*
X019315Y030835D01*
X019251Y030752D01*
X01921Y030654D01*
X019203Y0306D01*
X01955D01*
Y030947D01*
D02*
G37*
G36*
X033474Y031257D02*
X033363Y031243D01*
X033259Y0312D01*
X03317Y031132D01*
X033102Y031043D01*
X033059Y030939D01*
X033044Y030828D01*
X033059Y030717D01*
X033102Y030614D01*
X03317Y030525D01*
X033259Y030456D01*
X033363Y030414D01*
X033474Y030399D01*
X033585Y030414D01*
X033688Y030456D01*
X033777Y030525D01*
X033845Y030614D01*
X033888Y030717D01*
X033903Y030828D01*
X033888Y030939D01*
X033845Y031043D01*
X033777Y031132D01*
X033688Y0312D01*
X033585Y031243D01*
X033474Y031257D01*
D02*
G37*
G36*
X02965D02*
X029539Y031243D01*
X029435Y0312D01*
X029346Y031132D01*
X029278Y031043D01*
X029235Y030939D01*
X029221Y030828D01*
X029235Y030717D01*
X029278Y030614D01*
X029346Y030525D01*
X029435Y030456D01*
X029539Y030414D01*
X02965Y030399D01*
X029761Y030414D01*
X029865Y030456D01*
X029954Y030525D01*
X030022Y030614D01*
X030065Y030717D01*
X030079Y030828D01*
X030065Y030939D01*
X030022Y031043D01*
X029954Y031132D01*
X029865Y0312D01*
X029761Y031243D01*
X02965Y031257D01*
D02*
G37*
G36*
X01565Y030579D02*
Y030233D01*
X015996D01*
X015989Y030288D01*
X015949Y030385D01*
X015885Y030468D01*
X015801Y030532D01*
X015704Y030572D01*
X01565Y030579D01*
D02*
G37*
G36*
X01555D02*
X015496Y030572D01*
X015399Y030532D01*
X015315Y030468D01*
X015251Y030385D01*
X015211Y030288D01*
X015204Y030233D01*
X01555D01*
Y030579D01*
D02*
G37*
G36*
X019997Y0305D02*
X01965D01*
Y030153D01*
X019704Y03016D01*
X019802Y030201D01*
X019885Y030265D01*
X019949Y030348D01*
X01999Y030446D01*
X019997Y0305D01*
D02*
G37*
G36*
X01955D02*
X019203D01*
X01921Y030446D01*
X019251Y030348D01*
X019315Y030265D01*
X019398Y030201D01*
X019496Y03016D01*
X01955Y030153D01*
Y0305D01*
D02*
G37*
G36*
X0256Y031004D02*
X025483Y030988D01*
X025373Y030943D01*
X025279Y030871D01*
X025207Y030777D01*
X025162Y030667D01*
X025146Y03055D01*
X025162Y030433D01*
X025207Y030323D01*
X025279Y030229D01*
X025373Y030157D01*
X025483Y030112D01*
X0256Y030096D01*
X025717Y030112D01*
X025827Y030157D01*
X025921Y030229D01*
X025993Y030323D01*
X026038Y030433D01*
X026054Y03055D01*
X026038Y030667D01*
X025993Y030777D01*
X025921Y030871D01*
X025827Y030943D01*
X025717Y030988D01*
X0256Y031004D01*
D02*
G37*
G36*
X015996Y030133D02*
X01565D01*
Y029787D01*
X015704Y029794D01*
X015801Y029835D01*
X015885Y029899D01*
X015949Y029982D01*
X015989Y030079D01*
X015996Y030133D01*
D02*
G37*
G36*
X01555D02*
X015204D01*
X015211Y030079D01*
X015251Y029982D01*
X015315Y029899D01*
X015399Y029835D01*
X015496Y029794D01*
X01555Y029787D01*
Y030133D01*
D02*
G37*
G36*
X0376Y030455D02*
X037456Y030436D01*
X037323Y03038D01*
X037208Y030292D01*
X03712Y030177D01*
X037064Y030044D01*
X037045Y0299D01*
X037064Y029756D01*
X03712Y029623D01*
X037208Y029508D01*
X037323Y02942D01*
X037456Y029364D01*
X0376Y029345D01*
X037744Y029364D01*
X037877Y02942D01*
X037992Y029508D01*
X03808Y029623D01*
X038136Y029756D01*
X038155Y0299D01*
X038136Y030044D01*
X03808Y030177D01*
X037992Y030292D01*
X037877Y03038D01*
X037744Y030436D01*
X0376Y030455D01*
D02*
G37*
G36*
X02605Y03D02*
X02515D01*
Y0291D01*
X02605D01*
Y03D01*
D02*
G37*
G36*
X0196Y030004D02*
X019483Y029988D01*
X019373Y029943D01*
X019279Y029871D01*
X019207Y029777D01*
X019162Y029667D01*
X019146Y02955D01*
X019162Y029433D01*
X019207Y029323D01*
X019279Y029229D01*
X019373Y029157D01*
X019483Y029112D01*
X0196Y029096D01*
X019717Y029112D01*
X019827Y029157D01*
X019921Y029229D01*
X019993Y029323D01*
X020038Y029433D01*
X020054Y02955D01*
X020038Y029667D01*
X019993Y029777D01*
X019921Y029871D01*
X019827Y029943D01*
X019717Y029988D01*
X0196Y030004D01*
D02*
G37*
G36*
X049274Y030316D02*
X049137Y030303D01*
X049005Y030263D01*
X048883Y030198D01*
X048776Y03011D01*
X048689Y030004D01*
X048624Y029882D01*
X048584Y02975D01*
X04857Y029613D01*
X048584Y029476D01*
X048624Y029344D01*
X048689Y029222D01*
X048776Y029116D01*
X048883Y029028D01*
X049005Y028963D01*
X049137Y028923D01*
X049274Y02891D01*
X049411Y028923D01*
X049543Y028963D01*
X049665Y029028D01*
X049771Y029116D01*
X049859Y029222D01*
X049924Y029344D01*
X049964Y029476D01*
X049977Y029613D01*
X049964Y02975D01*
X049924Y029882D01*
X049859Y030004D01*
X049771Y03011D01*
X049665Y030198D01*
X049543Y030263D01*
X049411Y030303D01*
X049274Y030316D01*
D02*
G37*
G36*
X040509Y030391D02*
X040362Y030377D01*
X040221Y030334D01*
X040091Y030264D01*
X039977Y030171D01*
X039883Y030056D01*
X039813Y029926D01*
X03977Y029785D01*
X039756Y029638D01*
X03977Y029491D01*
X039813Y029349D01*
X039883Y029219D01*
X039977Y029105D01*
X040091Y029011D01*
X040221Y028942D01*
X040362Y028899D01*
X040509Y028884D01*
X040656Y028899D01*
X040798Y028942D01*
X040928Y029011D01*
X041042Y029105D01*
X041136Y029219D01*
X041206Y029349D01*
X041249Y029491D01*
X041263Y029638D01*
X041249Y029785D01*
X041206Y029926D01*
X041136Y030056D01*
X041042Y030171D01*
X040928Y030264D01*
X040798Y030334D01*
X040656Y030377D01*
X040509Y030391D01*
D02*
G37*
G36*
X0156Y029636D02*
X015483Y029621D01*
X015373Y029576D01*
X01528Y029504D01*
X015208Y02941D01*
X015162Y029301D01*
X015147Y029183D01*
X015162Y029066D01*
X015208Y028957D01*
X01528Y028863D01*
X015373Y028791D01*
X015483Y028746D01*
X0156Y02873D01*
X015717Y028746D01*
X015827Y028791D01*
X01592Y028863D01*
X015992Y028957D01*
X016038Y029066D01*
X016053Y029183D01*
X016038Y029301D01*
X015992Y02941D01*
X01592Y029504D01*
X015827Y029576D01*
X015717Y029621D01*
X0156Y029636D01*
D02*
G37*
G36*
X0493Y02829D02*
X049163Y028277D01*
X049031Y028237D01*
X048909Y028172D01*
X048803Y028084D01*
X048715Y027978D01*
X04865Y027856D01*
X04861Y027724D01*
X048597Y027587D01*
X04861Y02745D01*
X04865Y027318D01*
X048715Y027196D01*
X048803Y02709D01*
X048909Y027002D01*
X049031Y026937D01*
X049163Y026897D01*
X0493Y026884D01*
X049437Y026897D01*
X049569Y026937D01*
X049691Y027002D01*
X049797Y02709D01*
X049885Y027196D01*
X04995Y027318D01*
X04999Y02745D01*
X050003Y027587D01*
X04999Y027724D01*
X04995Y027856D01*
X049885Y027978D01*
X049797Y028084D01*
X049691Y028172D01*
X049569Y028237D01*
X049437Y028277D01*
X0493Y02829D01*
D02*
G37*
G36*
X041297Y028029D02*
X04115Y028015D01*
X041008Y027972D01*
X040878Y027902D01*
X040764Y027808D01*
X04067Y027694D01*
X040601Y027564D01*
X040558Y027423D01*
X040543Y027276D01*
X040558Y027129D01*
X040601Y026987D01*
X04067Y026857D01*
X040764Y026743D01*
X040878Y026649D01*
X041008Y026579D01*
X04115Y026536D01*
X041297Y026522D01*
X041444Y026536D01*
X041585Y026579D01*
X041716Y026649D01*
X04183Y026743D01*
X041923Y026857D01*
X041993Y026987D01*
X042036Y027129D01*
X04205Y027276D01*
X042036Y027423D01*
X041993Y027564D01*
X041923Y027694D01*
X04183Y027808D01*
X041716Y027902D01*
X041585Y027972D01*
X041444Y028015D01*
X041297Y028029D01*
D02*
G37*
G36*
X0461Y027954D02*
X045953Y027939D01*
X045812Y027896D01*
X045681Y027827D01*
X045567Y027733D01*
X045473Y027619D01*
X045404Y027488D01*
X045361Y027347D01*
X045346Y0272D01*
X045361Y027053D01*
X045404Y026912D01*
X045473Y026781D01*
X045567Y026667D01*
X045681Y026573D01*
X045812Y026504D01*
X045953Y026461D01*
X0461Y026446D01*
X046247Y026461D01*
X046388Y026504D01*
X046519Y026573D01*
X046633Y026667D01*
X046727Y026781D01*
X046796Y026912D01*
X046839Y027053D01*
X046854Y0272D01*
X046839Y027347D01*
X046796Y027488D01*
X046727Y027619D01*
X046633Y027733D01*
X046519Y027827D01*
X046388Y027896D01*
X046247Y027939D01*
X0461Y027954D01*
D02*
G37*
G36*
X033474Y027242D02*
X033363Y027227D01*
X033259Y027184D01*
X03317Y027116D01*
X033102Y027027D01*
X033059Y026923D01*
X033044Y026812D01*
X033059Y026701D01*
X033102Y026598D01*
X03317Y026509D01*
X033259Y026441D01*
X033363Y026398D01*
X033474Y026383D01*
X033585Y026398D01*
X033688Y026441D01*
X033777Y026509D01*
X033845Y026598D01*
X033888Y026701D01*
X033903Y026812D01*
X033888Y026923D01*
X033845Y027027D01*
X033777Y027116D01*
X033688Y027184D01*
X033585Y027227D01*
X033474Y027242D01*
D02*
G37*
G36*
X02965D02*
X029539Y027227D01*
X029435Y027184D01*
X029346Y027116D01*
X029278Y027027D01*
X029235Y026923D01*
X029221Y026812D01*
X029235Y026701D01*
X029278Y026598D01*
X029346Y026509D01*
X029435Y026441D01*
X029539Y026398D01*
X02965Y026383D01*
X029761Y026398D01*
X029865Y026441D01*
X029954Y026509D01*
X030022Y026598D01*
X030065Y026701D01*
X030079Y026812D01*
X030065Y026923D01*
X030022Y027027D01*
X029954Y027116D01*
X029865Y027184D01*
X029761Y027227D01*
X02965Y027242D01*
D02*
G37*
G36*
X03815Y02745D02*
X03705D01*
Y02635D01*
X03815D01*
Y02745D01*
D02*
G37*
G36*
X016049Y026499D02*
X015151D01*
Y025601D01*
X016049D01*
Y026499D01*
D02*
G37*
G36*
X0156Y025503D02*
X015483Y025488D01*
X015373Y025442D01*
X01528Y02537D01*
X015208Y025277D01*
X015162Y025167D01*
X015147Y02505D01*
X015162Y024933D01*
X015208Y024823D01*
X01528Y02473D01*
X015373Y024658D01*
X015483Y024612D01*
X0156Y024597D01*
X015717Y024612D01*
X015827Y024658D01*
X01592Y02473D01*
X015992Y024823D01*
X016038Y024933D01*
X016053Y02505D01*
X016038Y025167D01*
X015992Y025277D01*
X01592Y02537D01*
X015827Y025442D01*
X015717Y025488D01*
X0156Y025503D01*
D02*
G37*
G36*
Y024503D02*
X015483Y024488D01*
X015373Y024442D01*
X01528Y02437D01*
X015208Y024277D01*
X015162Y024167D01*
X015147Y02405D01*
X015162Y023933D01*
X015208Y023823D01*
X01528Y02373D01*
X015373Y023658D01*
X015483Y023612D01*
X0156Y023597D01*
X015717Y023612D01*
X015827Y023658D01*
X01592Y02373D01*
X015992Y023823D01*
X016038Y023933D01*
X016053Y02405D01*
X016038Y024167D01*
X015992Y024277D01*
X01592Y02437D01*
X015827Y024442D01*
X015717Y024488D01*
X0156Y024503D01*
D02*
G37*
G36*
X0221Y023792D02*
Y02345D01*
X022442D01*
X022435Y023503D01*
X022395Y023599D01*
X022332Y023682D01*
X022249Y023745D01*
X022153Y023785D01*
X0221Y023792D01*
D02*
G37*
G36*
X022D02*
X021947Y023785D01*
X021851Y023745D01*
X021768Y023682D01*
X021705Y023599D01*
X021665Y023503D01*
X021658Y02345D01*
X022D01*
Y023792D01*
D02*
G37*
G36*
X01565Y023446D02*
Y0231D01*
X015996D01*
X015989Y023154D01*
X015949Y023251D01*
X015885Y023335D01*
X015801Y023399D01*
X015704Y023439D01*
X01565Y023446D01*
D02*
G37*
G36*
X01555D02*
X015496Y023439D01*
X015399Y023399D01*
X015315Y023335D01*
X015251Y023251D01*
X015211Y023154D01*
X015204Y0231D01*
X01555D01*
Y023446D01*
D02*
G37*
G36*
X022442Y02335D02*
X0221D01*
Y023008D01*
X022153Y023015D01*
X022249Y023055D01*
X022332Y023118D01*
X022395Y023201D01*
X022435Y023297D01*
X022442Y02335D01*
D02*
G37*
G36*
X022D02*
X021658D01*
X021665Y023297D01*
X021705Y023201D01*
X021768Y023118D01*
X021851Y023055D01*
X021947Y023015D01*
X022Y023008D01*
Y02335D01*
D02*
G37*
G36*
X025495Y023845D02*
X024605D01*
Y022955D01*
X025495D01*
Y023845D01*
D02*
G37*
G36*
X02405Y023849D02*
X023934Y023834D01*
X023825Y023789D01*
X023732Y023718D01*
X023661Y023625D01*
X023616Y023516D01*
X023601Y0234D01*
X023616Y023284D01*
X023661Y023175D01*
X023732Y023082D01*
X023825Y023011D01*
X023934Y022966D01*
X02405Y022951D01*
X024166Y022966D01*
X024275Y023011D01*
X024368Y023082D01*
X024439Y023175D01*
X024484Y023284D01*
X024499Y0234D01*
X024484Y023516D01*
X024439Y023625D01*
X024368Y023718D01*
X024275Y023789D01*
X024166Y023834D01*
X02405Y023849D01*
D02*
G37*
G36*
X02305D02*
X022934Y023834D01*
X022825Y023789D01*
X022732Y023718D01*
X022661Y023625D01*
X022616Y023516D01*
X022601Y0234D01*
X022616Y023284D01*
X022661Y023175D01*
X022732Y023082D01*
X022825Y023011D01*
X022934Y022966D01*
X02305Y022951D01*
X023166Y022966D01*
X023275Y023011D01*
X023368Y023082D01*
X023439Y023175D01*
X023484Y023284D01*
X023499Y0234D01*
X023484Y023516D01*
X023439Y023625D01*
X023368Y023718D01*
X023275Y023789D01*
X023166Y023834D01*
X02305Y023849D01*
D02*
G37*
G36*
X02105D02*
X020934Y023834D01*
X020825Y023789D01*
X020732Y023718D01*
X020661Y023625D01*
X020616Y023516D01*
X020601Y0234D01*
X020616Y023284D01*
X020661Y023175D01*
X020732Y023082D01*
X020825Y023011D01*
X020934Y022966D01*
X02105Y022951D01*
X021166Y022966D01*
X021275Y023011D01*
X021368Y023082D01*
X021439Y023175D01*
X021484Y023284D01*
X021499Y0234D01*
X021484Y023516D01*
X021439Y023625D01*
X021368Y023718D01*
X021275Y023789D01*
X021166Y023834D01*
X02105Y023849D01*
D02*
G37*
G36*
X02005D02*
X019934Y023834D01*
X019825Y023789D01*
X019732Y023718D01*
X019661Y023625D01*
X019616Y023516D01*
X019601Y0234D01*
X019616Y023284D01*
X019661Y023175D01*
X019732Y023082D01*
X019825Y023011D01*
X019934Y022966D01*
X02005Y022951D01*
X020166Y022966D01*
X020275Y023011D01*
X020368Y023082D01*
X020439Y023175D01*
X020484Y023284D01*
X020499Y0234D01*
X020484Y023516D01*
X020439Y023625D01*
X020368Y023718D01*
X020275Y023789D01*
X020166Y023834D01*
X02005Y023849D01*
D02*
G37*
G36*
X0356Y023254D02*
X035476Y023238D01*
X03536Y02319D01*
X035261Y023114D01*
X035185Y023015D01*
X035137Y022899D01*
X035125Y022806D01*
X035075Y022809D01*
Y02325D01*
X034125D01*
Y02195D01*
X035075D01*
Y022391D01*
X035125Y022394D01*
X035137Y022301D01*
X035185Y022185D01*
X035261Y022086D01*
X03536Y02201D01*
X035476Y021962D01*
X0356Y021946D01*
X035724Y021962D01*
X03584Y02201D01*
X035939Y022086D01*
X036015Y022185D01*
X036063Y022301D01*
X036079Y022425D01*
Y022775D01*
X036063Y022899D01*
X036015Y023015D01*
X035939Y023114D01*
X03584Y02319D01*
X035724Y023238D01*
X0356Y023254D01*
D02*
G37*
G36*
X028595Y0231D02*
Y022659D01*
X028944D01*
Y022708D01*
X02893Y022811D01*
X028891Y022907D01*
X028827Y02299D01*
X028745Y023053D01*
X028648Y023093D01*
X028595Y0231D01*
D02*
G37*
G36*
X028495D02*
X028442Y023093D01*
X028346Y023053D01*
X028263Y02299D01*
X0282Y022907D01*
X02816Y022811D01*
X028147Y022708D01*
Y022659D01*
X028495D01*
Y0231D01*
D02*
G37*
G36*
X015996Y023D02*
X01565D01*
Y022654D01*
X015704Y022661D01*
X015801Y022701D01*
X015885Y022765D01*
X015949Y022849D01*
X015989Y022946D01*
X015996Y023D01*
D02*
G37*
G36*
X01555D02*
X015204D01*
X015211Y022946D01*
X015251Y022849D01*
X015315Y022765D01*
X015399Y022701D01*
X015496Y022661D01*
X01555Y022654D01*
Y023D01*
D02*
G37*
G36*
X028944Y022559D02*
X028595D01*
Y022119D01*
X028648Y022126D01*
X028745Y022166D01*
X028827Y022229D01*
X028891Y022312D01*
X02893Y022408D01*
X028944Y022511D01*
Y022559D01*
D02*
G37*
G36*
X028495D02*
X028147D01*
Y022511D01*
X02816Y022408D01*
X0282Y022312D01*
X028263Y022229D01*
X028346Y022166D01*
X028442Y022126D01*
X028495Y022119D01*
Y022559D01*
D02*
G37*
G36*
X030455Y023157D02*
X030338Y023142D01*
X03023Y023097D01*
X030137Y023025D01*
X030066Y022932D01*
X030021Y022824D01*
X030006Y022708D01*
Y022511D01*
X030021Y022395D01*
X030066Y022286D01*
X030137Y022193D01*
X03023Y022122D01*
X030338Y022077D01*
X030455Y022062D01*
X030571Y022077D01*
X030679Y022122D01*
X030772Y022193D01*
X030844Y022286D01*
X030889Y022395D01*
X030904Y022511D01*
Y022708D01*
X030889Y022824D01*
X030844Y022932D01*
X030772Y023025D01*
X030679Y023097D01*
X030571Y023142D01*
X030455Y023157D01*
D02*
G37*
G36*
X0295Y023148D02*
X029384Y023132D01*
X029275Y023087D01*
X029182Y023016D01*
X029111Y022923D01*
X029066Y022815D01*
X029051Y022698D01*
Y022502D01*
X029066Y022385D01*
X029111Y022277D01*
X029182Y022184D01*
X029275Y022113D01*
X029384Y022068D01*
X0295Y022052D01*
X029616Y022068D01*
X029725Y022113D01*
X029818Y022184D01*
X029889Y022277D01*
X029934Y022385D01*
X029949Y022502D01*
Y022698D01*
X029934Y022815D01*
X029889Y022923D01*
X029818Y023016D01*
X029725Y023087D01*
X029616Y023132D01*
X0295Y023148D01*
D02*
G37*
G36*
X0492Y021148D02*
Y02055D01*
X049798D01*
X049791Y020627D01*
X049753Y02075D01*
X049693Y020863D01*
X049612Y020962D01*
X049513Y021043D01*
X0494Y021103D01*
X049277Y021141D01*
X0492Y021148D01*
D02*
G37*
G36*
X0491D02*
X049023Y021141D01*
X0489Y021103D01*
X048787Y021043D01*
X048688Y020962D01*
X048607Y020863D01*
X048547Y02075D01*
X048509Y020627D01*
X048502Y02055D01*
X0491D01*
Y021148D01*
D02*
G37*
G36*
X046Y021654D02*
X045853Y021639D01*
X045712Y021596D01*
X045581Y021527D01*
X045467Y021433D01*
X045373Y021319D01*
X045304Y021188D01*
X045261Y021047D01*
X045246Y0209D01*
X045261Y020753D01*
X045304Y020612D01*
X045373Y020481D01*
X045467Y020367D01*
X045581Y020273D01*
X045712Y020204D01*
X045853Y020161D01*
X046Y020146D01*
X046147Y020161D01*
X046288Y020204D01*
X046419Y020273D01*
X046533Y020367D01*
X046627Y020481D01*
X046696Y020612D01*
X046739Y020753D01*
X046754Y0209D01*
X046739Y021047D01*
X046696Y021188D01*
X046627Y021319D01*
X046533Y021433D01*
X046419Y021527D01*
X046288Y021596D01*
X046147Y021639D01*
X046Y021654D01*
D02*
G37*
G36*
X041197D02*
X04105Y021639D01*
X040908Y021596D01*
X040778Y021527D01*
X040664Y021433D01*
X04057Y021319D01*
X040501Y021188D01*
X040458Y021047D01*
X040443Y0209D01*
X040458Y020753D01*
X040501Y020612D01*
X04057Y020481D01*
X040664Y020367D01*
X040778Y020273D01*
X040908Y020204D01*
X04105Y020161D01*
X041197Y020146D01*
X041344Y020161D01*
X041485Y020204D01*
X041616Y020273D01*
X04173Y020367D01*
X041823Y020481D01*
X041893Y020612D01*
X041936Y020753D01*
X04195Y0209D01*
X041936Y021047D01*
X041893Y021188D01*
X041823Y021319D01*
X04173Y021433D01*
X041616Y021527D01*
X041485Y021596D01*
X041344Y021639D01*
X041197Y021654D01*
D02*
G37*
G36*
X049798Y02045D02*
X0492D01*
Y019852D01*
X049277Y019859D01*
X0494Y019897D01*
X049513Y019957D01*
X049612Y020038D01*
X049693Y020137D01*
X049753Y02025D01*
X049791Y020373D01*
X049798Y02045D01*
D02*
G37*
G36*
X0491D02*
X048502D01*
X048509Y020373D01*
X048547Y02025D01*
X048607Y020137D01*
X048688Y020038D01*
X048787Y019957D01*
X0489Y019897D01*
X049023Y019859D01*
X0491Y019852D01*
Y02045D01*
D02*
G37*
G36*
X033049Y020157D02*
X032938Y020143D01*
X032834Y0201D01*
X032745Y020032D01*
X032677Y019943D01*
X032634Y019839D01*
X032619Y019728D01*
X032634Y019617D01*
X032677Y019514D01*
X032745Y019425D01*
X032834Y019356D01*
X032938Y019314D01*
X033049Y019299D01*
X03316Y019314D01*
X033263Y019356D01*
X033352Y019425D01*
X03342Y019514D01*
X033463Y019617D01*
X033478Y019728D01*
X033463Y019839D01*
X03342Y019943D01*
X033352Y020032D01*
X033263Y0201D01*
X03316Y020143D01*
X033049Y020157D01*
D02*
G37*
G36*
X0294D02*
X029289Y020143D01*
X029185Y0201D01*
X029096Y020032D01*
X029028Y019943D01*
X028985Y019839D01*
X028971Y019728D01*
X028985Y019617D01*
X029028Y019514D01*
X029096Y019425D01*
X029185Y019356D01*
X029289Y019314D01*
X0294Y019299D01*
X029511Y019314D01*
X029615Y019356D01*
X029704Y019425D01*
X029772Y019514D01*
X029815Y019617D01*
X029829Y019728D01*
X029815Y019839D01*
X029772Y019943D01*
X029704Y020032D01*
X029615Y0201D01*
X029511Y020143D01*
X0294Y020157D01*
D02*
G37*
G36*
X016Y019698D02*
Y0191D01*
X016598D01*
X016591Y019177D01*
X016553Y0193D01*
X016493Y019413D01*
X016412Y019512D01*
X016313Y019593D01*
X0162Y019653D01*
X016077Y019691D01*
X016Y019698D01*
D02*
G37*
G36*
X0159D02*
X015823Y019691D01*
X0157Y019653D01*
X015587Y019593D01*
X015488Y019512D01*
X015407Y019413D01*
X015347Y0193D01*
X015309Y019177D01*
X015302Y0191D01*
X0159D01*
Y019698D01*
D02*
G37*
G36*
X0256Y018892D02*
Y01855D01*
X025942D01*
X025935Y018603D01*
X025895Y018699D01*
X025832Y018782D01*
X025749Y018845D01*
X025653Y018885D01*
X0256Y018892D01*
D02*
G37*
G36*
X0255D02*
X025447Y018885D01*
X025351Y018845D01*
X025268Y018782D01*
X025205Y018699D01*
X025165Y018603D01*
X025158Y01855D01*
X0255D01*
Y018892D01*
D02*
G37*
G36*
X0216Y018758D02*
Y01845D01*
X021942D01*
X021936Y018493D01*
X0219Y018579D01*
X021843Y018654D01*
X021769Y018711D01*
X021682Y018747D01*
X0216Y018758D01*
D02*
G37*
G36*
X0215D02*
X021418Y018747D01*
X021331Y018711D01*
X021257Y018654D01*
X0212Y018579D01*
X021164Y018493D01*
X021158Y01845D01*
X0215D01*
Y018758D01*
D02*
G37*
G36*
X0371Y019555D02*
X036956Y019536D01*
X036823Y01948D01*
X036708Y019392D01*
X03662Y019277D01*
X036564Y019144D01*
X036545Y019D01*
X036564Y018856D01*
X03662Y018723D01*
X036708Y018608D01*
X036823Y01852D01*
X036956Y018464D01*
X0371Y018445D01*
X037244Y018464D01*
X037377Y01852D01*
X037492Y018608D01*
X03758Y018723D01*
X037636Y018856D01*
X037655Y019D01*
X037636Y019144D01*
X03758Y019277D01*
X037492Y019392D01*
X037377Y01948D01*
X037244Y019536D01*
X0371Y019555D01*
D02*
G37*
G36*
X016598Y019D02*
X016D01*
Y018402D01*
X016077Y018409D01*
X0162Y018447D01*
X016313Y018507D01*
X016412Y018588D01*
X016493Y018687D01*
X016553Y0188D01*
X016591Y018923D01*
X016598Y019D01*
D02*
G37*
G36*
X0159D02*
X015302D01*
X015309Y018923D01*
X015347Y0188D01*
X015407Y018687D01*
X015488Y018588D01*
X015587Y018507D01*
X0157Y018447D01*
X015823Y018409D01*
X0159Y018402D01*
Y019D01*
D02*
G37*
G36*
X025942Y01845D02*
X0256D01*
Y018108D01*
X025653Y018115D01*
X025749Y018155D01*
X025832Y018218D01*
X025895Y018301D01*
X025935Y018397D01*
X025942Y01845D01*
D02*
G37*
G36*
X0255D02*
X025158D01*
X025165Y018397D01*
X025205Y018301D01*
X025268Y018218D01*
X025351Y018155D01*
X025447Y018115D01*
X0255Y018108D01*
Y01845D01*
D02*
G37*
G36*
X021942Y01835D02*
X0216D01*
Y018042D01*
X021682Y018053D01*
X021769Y018089D01*
X021843Y018146D01*
X0219Y018221D01*
X021936Y018307D01*
X021942Y01835D01*
D02*
G37*
G36*
X0215D02*
X021158D01*
X021164Y018307D01*
X0212Y018221D01*
X021257Y018146D01*
X021331Y018089D01*
X021418Y018053D01*
X0215Y018042D01*
Y01835D01*
D02*
G37*
G36*
X04915Y019203D02*
X049013Y01919D01*
X048881Y01915D01*
X048759Y019085D01*
X048653Y018997D01*
X048565Y018891D01*
X0485Y018769D01*
X04846Y018637D01*
X048447Y0185D01*
X04846Y018363D01*
X0485Y018231D01*
X048565Y018109D01*
X048653Y018003D01*
X048759Y017915D01*
X048881Y01785D01*
X049013Y01781D01*
X04915Y017797D01*
X049287Y01781D01*
X049419Y01785D01*
X049541Y017915D01*
X049647Y018003D01*
X049735Y018109D01*
X0498Y018231D01*
X04984Y018363D01*
X049853Y0185D01*
X04984Y018637D01*
X0498Y018769D01*
X049735Y018891D01*
X049647Y018997D01*
X049541Y019085D01*
X049419Y01915D01*
X049287Y01919D01*
X04915Y019203D01*
D02*
G37*
G36*
X040409Y019291D02*
X040262Y019277D01*
X040121Y019234D01*
X039991Y019164D01*
X039877Y019071D01*
X039783Y018956D01*
X039713Y018826D01*
X03967Y018685D01*
X039656Y018538D01*
X03967Y018391D01*
X039713Y018249D01*
X039783Y018119D01*
X039877Y018005D01*
X039991Y017911D01*
X040121Y017842D01*
X040262Y017799D01*
X040409Y017784D01*
X040556Y017799D01*
X040698Y017842D01*
X040828Y017911D01*
X040942Y018005D01*
X041036Y018119D01*
X041106Y018249D01*
X041149Y018391D01*
X041163Y018538D01*
X041149Y018685D01*
X041106Y018826D01*
X041036Y018956D01*
X040942Y019071D01*
X040828Y019164D01*
X040698Y019234D01*
X040556Y019277D01*
X040409Y019291D01*
D02*
G37*
G36*
X02555Y017949D02*
X025434Y017934D01*
X025325Y017889D01*
X025232Y017818D01*
X025161Y017725D01*
X025116Y017616D01*
X025101Y0175D01*
X025116Y017384D01*
X025161Y017275D01*
X025232Y017182D01*
X025325Y017111D01*
X025434Y017066D01*
X02555Y017051D01*
X025666Y017066D01*
X025775Y017111D01*
X025868Y017182D01*
X025939Y017275D01*
X025984Y017384D01*
X025999Y0175D01*
X025984Y017616D01*
X025939Y017725D01*
X025868Y017818D01*
X025775Y017889D01*
X025666Y017934D01*
X02555Y017949D01*
D02*
G37*
G36*
X021995Y017806D02*
X021105D01*
Y016994D01*
X021995D01*
Y017806D01*
D02*
G37*
G36*
X01595Y017753D02*
X015813Y01774D01*
X015681Y0177D01*
X015559Y017635D01*
X015453Y017547D01*
X015365Y017441D01*
X0153Y017319D01*
X01526Y017187D01*
X015247Y01705D01*
X01526Y016913D01*
X0153Y016781D01*
X015365Y016659D01*
X015453Y016553D01*
X015559Y016465D01*
X015681Y0164D01*
X015813Y01636D01*
X01595Y016347D01*
X016087Y01636D01*
X016219Y0164D01*
X016341Y016465D01*
X016447Y016553D01*
X016535Y016659D01*
X0166Y016781D01*
X01664Y016913D01*
X016653Y01705D01*
X01664Y017187D01*
X0166Y017319D01*
X016535Y017441D01*
X016447Y017547D01*
X016341Y017635D01*
X016219Y0177D01*
X016087Y01774D01*
X01595Y017753D01*
D02*
G37*
G36*
X049176Y017177D02*
X049039Y017164D01*
X048907Y017124D01*
X048785Y017059D01*
X048679Y016971D01*
X048591Y016865D01*
X048526Y016743D01*
X048486Y016611D01*
X048473Y016474D01*
X048486Y016337D01*
X048526Y016205D01*
X048591Y016083D01*
X048679Y015976D01*
X048785Y015889D01*
X048907Y015824D01*
X049039Y015784D01*
X049176Y01577D01*
X049313Y015784D01*
X049445Y015824D01*
X049567Y015889D01*
X049674Y015976D01*
X049761Y016083D01*
X049826Y016205D01*
X049866Y016337D01*
X04988Y016474D01*
X049866Y016611D01*
X049826Y016743D01*
X049761Y016865D01*
X049674Y016971D01*
X049567Y017059D01*
X049445Y017124D01*
X049313Y017164D01*
X049176Y017177D01*
D02*
G37*
G36*
X03765Y01655D02*
X03655D01*
Y01545D01*
X03765D01*
Y01655D01*
D02*
G37*
G36*
X041197Y016929D02*
X04105Y016915D01*
X040908Y016872D01*
X040778Y016802D01*
X040664Y016709D01*
X04057Y016594D01*
X040501Y016464D01*
X040458Y016323D01*
X040443Y016176D01*
X040458Y016029D01*
X040501Y015887D01*
X04057Y015757D01*
X040664Y015643D01*
X040778Y015549D01*
X040908Y015479D01*
X04105Y015436D01*
X041197Y015422D01*
X041344Y015436D01*
X041485Y015479D01*
X041616Y015549D01*
X04173Y015643D01*
X041823Y015757D01*
X041893Y015887D01*
X041936Y016029D01*
X04195Y016176D01*
X041936Y016323D01*
X041893Y016464D01*
X041823Y016594D01*
X04173Y016709D01*
X041616Y016802D01*
X041485Y016872D01*
X041344Y016915D01*
X041197Y016929D01*
D02*
G37*
G36*
X046Y016854D02*
X045853Y016839D01*
X045712Y016796D01*
X045581Y016727D01*
X045467Y016633D01*
X045373Y016519D01*
X045304Y016388D01*
X045261Y016247D01*
X045246Y0161D01*
X045261Y015953D01*
X045304Y015812D01*
X045373Y015681D01*
X045467Y015567D01*
X045581Y015473D01*
X045712Y015404D01*
X045853Y015361D01*
X046Y015346D01*
X046147Y015361D01*
X046288Y015404D01*
X046419Y015473D01*
X046533Y015567D01*
X046627Y015681D01*
X046696Y015812D01*
X046739Y015953D01*
X046754Y0161D01*
X046739Y016247D01*
X046696Y016388D01*
X046627Y016519D01*
X046533Y016633D01*
X046419Y016727D01*
X046288Y016796D01*
X046147Y016839D01*
X046Y016854D01*
D02*
G37*
G36*
X033049Y016142D02*
X032938Y016127D01*
X032834Y016084D01*
X032745Y016016D01*
X032677Y015927D01*
X032634Y015824D01*
X032619Y015712D01*
X032634Y015601D01*
X032677Y015498D01*
X032745Y015409D01*
X032834Y015341D01*
X032938Y015298D01*
X033049Y015283D01*
X03316Y015298D01*
X033263Y015341D01*
X033352Y015409D01*
X03342Y015498D01*
X033463Y015601D01*
X033478Y015712D01*
X033463Y015824D01*
X03342Y015927D01*
X033352Y016016D01*
X033263Y016084D01*
X03316Y016127D01*
X033049Y016142D01*
D02*
G37*
G36*
X0294D02*
X029289Y016127D01*
X029185Y016084D01*
X029096Y016016D01*
X029028Y015927D01*
X028985Y015824D01*
X028971Y015712D01*
X028985Y015601D01*
X029028Y015498D01*
X029096Y015409D01*
X029185Y015341D01*
X029289Y015298D01*
X0294Y015283D01*
X029511Y015298D01*
X029615Y015341D01*
X029704Y015409D01*
X029772Y015498D01*
X029815Y015601D01*
X029829Y015712D01*
X029815Y015824D01*
X029772Y015927D01*
X029704Y016016D01*
X029615Y016084D01*
X029511Y016127D01*
X0294Y016142D01*
D02*
G37*
%LPD*%
D33*
X0371Y0408D02*
D03*
X0376Y0299D02*
D03*
X0371Y019D02*
D03*
D34*
Y0378D02*
D03*
X0376Y0269D02*
D03*
X0371Y016D02*
D03*
D35*
X049274Y040376D02*
D03*
Y042376D02*
D03*
X0493Y03835D02*
D03*
X049274Y029613D02*
D03*
Y031613D02*
D03*
X0493Y027587D02*
D03*
X01595Y01705D02*
D03*
Y01905D02*
D03*
X04915Y0185D02*
D03*
Y0205D02*
D03*
X049176Y016474D02*
D03*
D36*
X02965Y041578D02*
D03*
Y037562D02*
D03*
X0294Y019728D02*
D03*
Y015712D02*
D03*
X033324Y041578D02*
D03*
Y037562D02*
D03*
X033474Y030828D02*
D03*
Y026812D02*
D03*
X02965Y030828D02*
D03*
Y026812D02*
D03*
X033049Y019728D02*
D03*
Y015712D02*
D03*
D37*
X0357Y03355D02*
D03*
Y04425D02*
D03*
X0356Y0226D02*
D03*
D38*
X0347Y03355D02*
D03*
Y04425D02*
D03*
X0346Y0226D02*
D03*
D39*
X02555Y0175D02*
D03*
Y0185D02*
D03*
X02005Y0234D02*
D03*
X02105D02*
D03*
X02205D02*
D03*
X02305D02*
D03*
X02405D02*
D03*
D40*
X02155Y0174D02*
D03*
D41*
Y0184D02*
D03*
D42*
X0156Y02305D02*
D03*
Y02405D02*
D03*
Y02505D02*
D03*
Y04145D02*
D03*
Y04245D02*
D03*
Y04345D02*
D03*
Y029183D02*
D03*
Y030183D02*
D03*
Y031183D02*
D03*
Y035317D02*
D03*
Y036317D02*
D03*
Y037317D02*
D03*
D43*
Y02605D02*
D03*
Y04445D02*
D03*
Y032183D02*
D03*
Y038317D02*
D03*
D44*
X041297Y038026D02*
D03*
Y04275D02*
D03*
X0461Y03795D02*
D03*
Y04275D02*
D03*
X040509Y040388D02*
D03*
X041297Y027276D02*
D03*
Y032D02*
D03*
X0461Y0272D02*
D03*
Y032D02*
D03*
X040509Y029638D02*
D03*
X041197Y016176D02*
D03*
Y0209D02*
D03*
X046Y0161D02*
D03*
Y0209D02*
D03*
X040409Y018538D02*
D03*
D45*
X02505Y0234D02*
D03*
D46*
X0196Y04355D02*
D03*
Y04255D02*
D03*
Y04055D02*
D03*
Y03955D02*
D03*
Y04155D02*
D03*
Y03855D02*
D03*
Y03755D02*
D03*
Y03655D02*
D03*
Y03555D02*
D03*
Y03455D02*
D03*
Y03355D02*
D03*
Y03255D02*
D03*
Y03155D02*
D03*
Y03055D02*
D03*
X0256Y04355D02*
D03*
Y04255D02*
D03*
X0196Y02955D02*
D03*
X0256Y03055D02*
D03*
Y03155D02*
D03*
Y03255D02*
D03*
Y03355D02*
D03*
Y03455D02*
D03*
Y03555D02*
D03*
Y03655D02*
D03*
Y03755D02*
D03*
Y03855D02*
D03*
Y03955D02*
D03*
Y04055D02*
D03*
Y04155D02*
D03*
D47*
Y02955D02*
D03*
D48*
X030455Y022609D02*
D03*
X028545D02*
D03*
X030605Y033556D02*
D03*
X028695D02*
D03*
X030605Y044259D02*
D03*
X028695D02*
D03*
D49*
X0295Y0226D02*
D03*
X02965Y033546D02*
D03*
Y04425D02*
D03*
M02*
